<?xml version="1.0" encoding="utf-8"?>
<!-- Generator: Adobe Illustrator 25.4.1, SVG Export Plug-In . SVG Version: 6.00 Build 0)  -->
<svg version="1.1" id="レイヤー_1" xmlns="http://www.w3.org/2000/svg" xmlns:xlink="http://www.w3.org/1999/xlink" x="0px"
	 y="0px" viewBox="0 0 292 37" style="enable-background:new 0 0 292 37;" xml:space="preserve">
<g>
	<path d="M0.2,0.4h21.9v6.6h-15V15h13v6.7h-13v13.7H0.2V0.4z"/>
	<path d="M26.6,17.9c0-2.4,0.5-4.7,1.4-6.8c0.9-2.2,2.2-4.1,3.8-5.7c1.6-1.7,3.5-3,5.7-3.9C39.6,0.5,41.9,0,44.4,0
		c2.4,0,4.7,0.5,6.9,1.4c2.2,0.9,4.1,2.3,5.7,3.9c1.7,1.7,3,3.6,3.9,5.7c0.9,2.2,1.4,4.4,1.4,6.8c0,2.5-0.5,4.8-1.4,6.9
		c-0.9,2.2-2.2,4-3.9,5.7c-1.7,1.6-3.6,2.9-5.7,3.8c-2.2,0.9-4.4,1.4-6.9,1.4c-2.5,0-4.8-0.5-6.9-1.4c-2.2-0.9-4-2.2-5.7-3.8
		c-1.6-1.6-2.9-3.5-3.8-5.7C27,22.7,26.6,20.4,26.6,17.9z M33.7,17.9c0,1.6,0.3,3,0.8,4.3c0.6,1.3,1.3,2.5,2.3,3.6
		c1,1,2.2,1.8,3.5,2.4c1.3,0.6,2.7,0.9,4.3,0.9c1.5,0,2.9-0.3,4.2-0.9c1.3-0.6,2.4-1.4,3.3-2.4c0.9-1,1.7-2.2,2.2-3.6
		c0.5-1.3,0.8-2.8,0.8-4.3c0-1.6-0.3-3.1-0.8-4.4c-0.6-1.4-1.3-2.6-2.3-3.6c-1-1-2.1-1.8-3.4-2.4C47.4,7,46,6.7,44.4,6.7
		S41.5,7,40.2,7.5c-1.3,0.6-2.4,1.4-3.4,2.4c-1,1-1.7,2.2-2.3,3.6C34,14.9,33.7,16.3,33.7,17.9z"/>
	<path d="M69.2,0.4h6.9v28.3h16.4v6.6H69.2V0.4z"/>
	<path d="M99.6,0.4h6.9v28.3H123v6.6H99.6V0.4z"/>
	<path d="M128,17.9c0-2.4,0.5-4.7,1.4-6.8c0.9-2.2,2.2-4.1,3.8-5.7c1.6-1.7,3.5-3,5.7-3.9c2.2-0.9,4.5-1.4,6.9-1.4
		c2.4,0,4.7,0.5,6.9,1.4c2.2,0.9,4.1,2.3,5.7,3.9c1.7,1.7,3,3.6,3.9,5.7c0.9,2.2,1.4,4.4,1.4,6.8c0,2.5-0.5,4.8-1.4,6.9
		c-0.9,2.2-2.2,4-3.9,5.7c-1.7,1.6-3.6,2.9-5.7,3.8c-2.2,0.9-4.4,1.4-6.9,1.4c-2.5,0-4.8-0.5-6.9-1.4c-2.2-0.9-4-2.2-5.7-3.8
		c-1.6-1.6-2.9-3.5-3.8-5.7C128.4,22.7,128,20.4,128,17.9z M135.1,17.9c0,1.6,0.3,3,0.8,4.3c0.6,1.3,1.3,2.5,2.3,3.6
		c1,1,2.2,1.8,3.5,2.4c1.3,0.6,2.7,0.9,4.3,0.9c1.5,0,2.9-0.3,4.2-0.9s2.4-1.4,3.3-2.4c0.9-1,1.7-2.2,2.2-3.6
		c0.5-1.3,0.8-2.8,0.8-4.3c0-1.6-0.3-3.1-0.8-4.4c-0.6-1.4-1.3-2.6-2.3-3.6c-1-1-2.1-1.8-3.4-2.4c-1.3-0.6-2.7-0.9-4.2-0.9
		s-2.9,0.3-4.2,0.9c-1.3,0.6-2.4,1.4-3.4,2.4c-1,1-1.7,2.2-2.3,3.6C135.3,14.9,135.1,16.3,135.1,17.9z"/>
	<path d="M167.6,0.6h8.1l7.5,21.9l-1.1-0.5l6.5-16.2l3.2,9.5L181.6,37L167.6,0.6z M185.1,0.6h6.8l8.6,21.2l-1.2-0.2l6.4-21h7.4
		l-13.5,36.2L185.1,0.6z"/>
	<path d="M240.8,22.4c0,1.1,0.3,2.2,1,3.2c0.7,1,1.5,1.8,2.6,2.5c1.1,0.6,2.3,0.9,3.6,0.9c1.4,0,2.7-0.3,3.8-0.9
		c1.1-0.6,2-1.5,2.6-2.5c0.6-1,1-2.1,1-3.2v-22h6.8v22.2c0,2.6-0.6,4.8-1.9,6.8c-1.3,2-3,3.5-5.1,4.7c-2.2,1.1-4.5,1.7-7.2,1.7
		c-2.6,0-5-0.6-7.1-1.7c-2.1-1.1-3.8-2.7-5.1-4.7c-1.3-2-1.9-4.3-1.9-6.8V0.4h6.9V22.4z"/>
	<path d="M289.2,8.9c-1.3-0.7-2.7-1.3-4.1-1.8c-1.4-0.5-2.7-0.7-3.9-0.7c-1.5,0-2.7,0.3-3.5,0.9c-0.9,0.6-1.3,1.5-1.3,2.7
		c0,0.8,0.3,1.6,1,2.2c0.6,0.6,1.5,1.2,2.5,1.7c1,0.5,2.1,1,3.2,1.4c1,0.4,2,0.8,3,1.4c1,0.5,1.9,1.2,2.7,1.9
		c0.8,0.8,1.4,1.7,1.9,2.9c0.5,1.2,0.7,2.6,0.7,4.3c0,1.8-0.5,3.4-1.4,4.9c-0.9,1.5-2.3,2.7-4,3.7s-4,1.4-6.6,1.4
		c-1.3,0-2.7-0.1-4.1-0.4c-1.4-0.3-2.7-0.7-4.1-1.2c-1.3-0.6-2.6-1.3-3.8-2.1l3-5.4c0.8,0.6,1.7,1.1,2.7,1.6c1,0.5,1.9,0.8,2.9,1.1
		c1,0.3,1.9,0.4,2.7,0.4c0.8,0,1.7-0.1,2.5-0.4c0.8-0.2,1.5-0.6,2.1-1.2c0.6-0.6,0.8-1.4,0.8-2.4c0-0.7-0.2-1.3-0.7-1.9
		c-0.5-0.6-1.1-1.1-1.9-1.6c-0.8-0.5-1.6-0.9-2.5-1.2c-1.1-0.4-2.2-0.9-3.3-1.4c-1.1-0.5-2.2-1.2-3.2-2c-1-0.8-1.8-1.7-2.4-2.9
		c-0.6-1.2-0.9-2.6-0.9-4.3c0-2,0.5-3.8,1.4-5.3c0.9-1.5,2.2-2.7,3.8-3.5c1.6-0.9,3.5-1.4,5.7-1.4c2.8,0,5.1,0.3,6.9,1
		c1.8,0.7,3.3,1.5,4.7,2.4L289.2,8.9z"/>
</g>
</svg>
