<?xml version="1.0" encoding="utf-8"?>
<!-- Generator: Adobe Illustrator 25.4.1, SVG Export Plug-In . SVG Version: 6.00 Build 0)  -->
<svg version="1.1" id="レイヤー_1" xmlns="http://www.w3.org/2000/svg" xmlns:xlink="http://www.w3.org/1999/xlink" x="0px"
	 y="0px" viewBox="0 0 60 60" style="enable-background:new 0 0 60 60;" xml:space="preserve">
<g>
	<path d="M30,5.8c7.9,0,8.8,0,11.9,0.2c2.9,0.1,4.4,0.6,5.5,1c1.4,0.5,2.4,1.2,3.4,2.2c1,1,1.7,2,2.2,3.4c0.4,1,0.9,2.6,1,5.5
		c0.1,3.1,0.2,4,0.2,11.9s0,8.8-0.2,11.9c-0.1,2.9-0.6,4.4-1,5.5c-0.5,1.4-1.2,2.4-2.2,3.4c-1,1-2,1.7-3.4,2.2c-1,0.4-2.6,0.9-5.5,1
		c-3.1,0.1-4,0.2-11.9,0.2s-8.8,0-11.9-0.2c-2.9-0.1-4.4-0.6-5.5-1c-1.4-0.5-2.4-1.2-3.4-2.2c-1-1-1.7-2-2.2-3.4
		c-0.4-1-0.9-2.6-1-5.5c-0.1-3.1-0.2-4-0.2-11.9s0-8.8,0.2-11.9c0.1-2.9,0.6-4.4,1-5.5c0.5-1.4,1.2-2.4,2.2-3.4c1-1,2-1.7,3.4-2.2
		c1-0.4,2.6-0.9,5.5-1C21.2,5.8,22.1,5.8,30,5.8 M30,0.5c-8,0-9,0-12.2,0.2c-3.1,0.1-5.3,0.6-7.2,1.4C8.7,2.8,7.1,3.8,5.5,5.5
		C3.8,7.1,2.8,8.7,2,10.7c-0.7,1.9-1.2,4-1.4,7.2C0.5,21,0.5,22,0.5,30c0,8,0,9,0.2,12.2c0.1,3.1,0.6,5.3,1.4,7.2
		c0.8,1.9,1.8,3.6,3.4,5.2c1.6,1.6,3.3,2.6,5.2,3.4c1.9,0.7,4,1.2,7.2,1.4C21,59.5,22,59.5,30,59.5s9,0,12.2-0.2
		c3.1-0.1,5.3-0.6,7.2-1.4c1.9-0.8,3.6-1.8,5.2-3.4c1.6-1.6,2.6-3.3,3.4-5.2c0.7-1.9,1.2-4,1.4-7.2C59.5,39,59.5,38,59.5,30
		s0-9-0.2-12.2c-0.1-3.1-0.6-5.3-1.4-7.2c-0.8-1.9-1.8-3.6-3.4-5.2c-1.6-1.6-3.3-2.6-5.2-3.4c-1.9-0.7-4-1.2-7.2-1.4
		C39,0.5,38,0.5,30,0.5L30,0.5z"/>
	<path d="M30,14.9c-8.4,0-15.1,6.8-15.1,15.1S21.6,45.1,30,45.1S45.1,38.4,45.1,30S38.4,14.9,30,14.9z M30,39.8
		c-5.4,0-9.8-4.4-9.8-9.8c0-5.4,4.4-9.8,9.8-9.8c5.4,0,9.8,4.4,9.8,9.8C39.8,35.4,35.4,39.8,30,39.8z"/>
	<circle cx="45.7" cy="14.3" r="3.5"/>
</g>
</svg>
