<?xml version="1.0" encoding="utf-8"?>
<!-- Generator: Adobe Illustrator 25.4.1, SVG Export Plug-In . SVG Version: 6.00 Build 0)  -->
<svg version="1.1" id="レイヤー_1" xmlns="http://www.w3.org/2000/svg" xmlns:xlink="http://www.w3.org/1999/xlink" x="0px"
	 y="0px" viewBox="0 0 60 60" style="enable-background:new 0 0 60 60;" xml:space="preserve">
<g transform="translate(1.4065934065934016 1.4065934065934016) scale(2.81 2.81)">
	<path d="M19.5,4.8c-1.2,0-2.3-0.4-3.3-1.1c-1-0.8-1.8-1.9-2-3.3c-0.1-0.3-0.1-0.7-0.1-1h-3.5V9l0,5.2c0,1.4-0.9,2.6-2.2,3
		c-0.4,0.1-0.8,0.2-1.2,0.2c-0.5,0-1-0.2-1.4-0.4c-0.9-0.5-1.5-1.5-1.5-2.7c0-1.8,1.4-3.2,3.2-3.2c0.3,0,0.7,0.1,1,0.2V8.6V7.7
		c-0.3,0-0.7-0.1-1-0.1c-1.9,0-3.7,0.8-5,2.2c-1,1.1-1.6,2.5-1.6,3.9c-0.1,1.9,0.6,3.7,1.9,5.1c0.2,0.2,0.4,0.4,0.6,0.6
		c1.2,0.9,2.6,1.4,4.1,1.4c0.3,0,0.7,0,1-0.1c1.4-0.2,2.7-0.9,3.7-1.9c1.3-1.2,2-2.9,2-4.6l0-7.8c0.6,0.5,1.3,0.8,2,1.1
		c1.1,0.5,2.3,0.7,3.4,0.7V5.8L19.5,4.8C19.6,4.8,19.5,4.8,19.5,4.8L19.5,4.8z"/>
</g>
</svg>
