<?xml version="1.0" encoding="utf-8"?>
<!-- Generator: Adobe Illustrator 25.4.1, SVG Export Plug-In . SVG Version: 6.00 Build 0)  -->
<svg version="1.1" id="レイヤー_1" xmlns="http://www.w3.org/2000/svg" xmlns:xlink="http://www.w3.org/1999/xlink" x="0px"
	 y="0px" viewBox="0 0 60 60" style="enable-background:new 0 0 60 60;" xml:space="preserve">
<path id="Logo_1_" d="M52.7,18.3c0,0.5,0,1,0,1.5c0,15.5-11.8,33.4-33.4,33.4v0c-6.4,0-12.6-1.8-18-5.3c0.9,0.1,1.9,0.2,2.8,0.2
	c5.3,0,10.4-1.8,14.6-5c-5-0.1-9.4-3.4-11-8.1c1.8,0.3,3.6,0.3,5.3-0.2c-5.5-1.1-9.4-5.9-9.4-11.5c0-0.1,0-0.1,0-0.1
	C5.3,24,7.2,24.5,9,24.6C3.9,21.1,2.3,14.3,5.4,8.9c6,7.3,14.7,11.8,24.2,12.3c-0.9-4.1,0.3-8.3,3.4-11.2c4.7-4.4,12.2-4.2,16.6,0.5
	C52.2,9.9,54.7,9,57,7.6c-0.9,2.7-2.7,5-5.2,6.5c2.3-0.3,4.6-0.9,6.7-1.8C57,14.6,55,16.7,52.7,18.3z"/>
</svg>
