<?xml version="1.0" encoding="utf-8"?>
<!-- Generator: Adobe Illustrator 25.4.1, SVG Export Plug-In . SVG Version: 6.00 Build 0)  -->
<svg version="1.1" id="レイヤー_1" xmlns="http://www.w3.org/2000/svg" xmlns:xlink="http://www.w3.org/1999/xlink" x="0px"
	 y="0px" viewBox="0 0 60 60" style="enable-background:new 0 0 60 60;" xml:space="preserve">
<path d="M58.6,30c0,0,0,9.3-1.2,13.8c-0.7,2.5-2.6,4.4-5.1,5.1C47.9,50.1,30,50.1,30,50.1s-17.9,0-22.4-1.2
	c-2.5-0.7-4.4-2.6-5.1-5.1C1.4,39.3,1.4,30,1.4,30s0-9.3,1.2-13.8c0.7-2.5,2.6-4.4,5.1-5.1C12.1,9.9,30,9.9,30,9.9s17.9,0,22.4,1.2
	c2.5,0.7,4.4,2.6,5.1,5.1C58.6,20.7,58.6,30,58.6,30z M24.3,38.6L39.2,30l-14.9-8.6V38.6z"/>
</svg>
