<?xml version="1.0" encoding="utf-8"?>
<!-- Generator: Adobe Illustrator 25.4.1, SVG Export Plug-In . SVG Version: 6.00 Build 0)  -->
<svg version="1.1" id="レイヤー_1" xmlns="http://www.w3.org/2000/svg" xmlns:xlink="http://www.w3.org/1999/xlink" x="0px"
	 y="0px" viewBox="0 0 210 65" style="enable-background:new 0 0 210 65;" xml:space="preserve">
<style type="text/css">
	.st0{fill:#888888;}
</style>
<g>
	<g>
		<path class="st0" d="M85.4,0.8c-1.4-0.4-2.9-0.6-4.5-0.6c-1.5,0-3,0.2-4.5,0.6c-7.4,2-12.9,8.7-12.9,16.8v10.3h8.9V17.6
			c0-3,1.6-5.7,4-7.2c1.3-0.8,2.8-1.3,4.5-1.3c1.6,0,3.2,0.5,4.5,1.3c2.4,1.5,4,4.1,4,7.2v10.3h8.9V17.6C98.3,9.5,92.8,2.8,85.4,0.8
			z"/>
		<path class="st0" d="M89.4,47c0,3-1.6,5.7-4,7.2c-1.3,0.8-2.8,1.3-4.5,1.3c-0.6,0-1.2-0.1-1.8-0.2c-1-0.2-1.9-0.6-2.7-1.1
			c-1.9-1.2-3.3-3.2-3.8-5.5c-0.1-0.5-0.2-1.1-0.2-1.7V36.8h-8.9V47c0,3.1,0.8,5.9,2.2,8.4c0.5,0.8,1,1.6,1.6,2.4
			c1.9,2.4,4.4,4.2,7.2,5.3c0.6,0.2,1.2,0.4,1.9,0.6c1.4,0.4,2.9,0.6,4.5,0.6c1.5,0,3-0.2,4.5-0.6c4.6-1.2,8.4-4.3,10.7-8.3
			c1.4-2.5,2.2-5.4,2.2-8.4V36.8h-8.9L89.4,47L89.4,47z"/>
	</g>
	<g>
		<rect x="133" y="0.2" class="st0" width="8.9" height="27.6"/>
		<polygon class="st0" points="133,36.8 133,64.4 142,64.4 142,36.8 142,36.8 		"/>
	</g>
	<g>
		<path class="st0" d="M187.9,10.4c1.3-0.8,2.8-1.3,4.5-1.3s3.2,0.5,4.5,1.3c2.4,1.5,4,4.1,4,7.2c0,1.6-0.4,3-1.2,4.3l-3.5,6h10.2
			c2.1-2.9,3.4-6.4,3.4-10.3c0-8-5.5-14.8-12.9-16.8c-1.4-0.4-2.9-0.6-4.5-0.6c-1.5,0-3,0.2-4.5,0.6c-7.4,2-12.9,8.7-12.9,16.8h8.9
			C183.9,14.6,185.5,11.9,187.9,10.4z"/>
		<path class="st0" d="M190.5,55.5l0.1-0.1c0.1,0,0.1,0,0,0l10.7-18.5H191l-16,27.6h34.7v-8.9L190.5,55.5z"/>
	</g>
	<g>
		<rect x="25.5" y="36.8" class="st0" width="8.9" height="27.6"/>
		<path class="st0" d="M17.1,27.9c-1.6,0-3.2-0.5-4.5-1.3c-2.4-1.5-4-4.1-4-7.2v-1.8c0-3,1.6-5.7,4-7.2c1.3-0.8,2.8-1.3,4.5-1.3
			c1.6,0,3.2,0.5,4.5,1.3c2.4,1.5,4,4.1,4,7.2v10.3h8.9V17.6c0-8-5.5-14.8-12.9-16.8c-1.4-0.4-2.9-0.6-4.5-0.6c-1.5,0-3,0.2-4.5,0.6
			C5.2,2.8-0.3,9.5-0.3,17.6v1.8c0,3.8,1.3,7.4,3.4,10.3C4.4,31.5,6,33,7.9,34.2c0.2,0.1,0.5,0.3,0.7,0.4c1.2,0.7,2.6,1.2,4,1.6
			c1.3,0.4,2.7,0.6,4.2,0.6c0.1,0,8.7,0,8.7,0v-8.9H17.1z"/>
	</g>
</g>
</svg>
