<?xml version="1.0" encoding="utf-8"?>
<!-- Generator: Adobe Illustrator 25.4.1, SVG Export Plug-In . SVG Version: 6.00 Build 0)  -->
<svg version="1.1" id="レイヤー_1" xmlns="http://www.w3.org/2000/svg" xmlns:xlink="http://www.w3.org/1999/xlink" x="0px"
	 y="0px" viewBox="0 0 500 23" style="enable-background:new 0 0 500 23;" xml:space="preserve">
<style type="text/css">
	.st0{fill:#FFFFFF;}
</style>
<g>
	<rect x="384.1" y="11.9" class="st0" width="115.9" height="1"/>
	<rect x="0" y="11.9" class="st0" width="115.9" height="1"/>
	<g>
		<path class="st0" d="M151.5,20.9c-0.4,0.2-0.8,0.5-1.5,0.8c-0.6,0.3-1.3,0.5-2.2,0.8c-0.8,0.2-1.7,0.3-2.7,0.3
			c-1.7,0-3.2-0.3-4.5-0.9c-1.4-0.6-2.5-1.4-3.5-2.4c-1-1-1.7-2.2-2.2-3.5c-0.5-1.3-0.8-2.7-0.8-4.2c0-1.6,0.3-3.1,0.8-4.5
			c0.5-1.4,1.3-2.6,2.2-3.6c1-1,2.1-1.8,3.4-2.4s2.7-0.8,4.3-0.8c1.3,0,2.5,0.2,3.5,0.5c1.1,0.4,2,0.8,2.7,1.2L150,5.1
			c-0.6-0.4-1.3-0.8-2.2-1.2C147,3.6,146,3.4,145,3.4c-1.1,0-2.1,0.2-3,0.6c-0.9,0.4-1.8,1-2.5,1.8c-0.7,0.8-1.3,1.6-1.7,2.6
			s-0.6,2.1-0.6,3.3c0,1.2,0.2,2.2,0.6,3.3c0.4,1,0.9,1.9,1.6,2.6c0.7,0.8,1.5,1.3,2.5,1.8c1,0.4,2.1,0.6,3.3,0.6
			c1.1,0,2.1-0.2,2.9-0.5c0.9-0.3,1.6-0.7,2.1-1.1L151.5,20.9z"/>
		<path class="st0" d="M155,11.7c0-1.5,0.3-2.9,0.9-4.3c0.6-1.3,1.4-2.5,2.4-3.6c1-1,2.2-1.8,3.5-2.4s2.8-0.9,4.3-0.9
			c1.5,0,2.9,0.3,4.3,0.9c1.3,0.6,2.5,1.4,3.6,2.4s1.8,2.2,2.4,3.6s0.9,2.8,0.9,4.3s-0.3,3-0.9,4.3s-1.4,2.5-2.4,3.5
			c-1,1-2.2,1.8-3.5,2.4c-1.3,0.6-2.8,0.9-4.3,0.9c-1.5,0-3-0.3-4.3-0.8c-1.3-0.6-2.5-1.3-3.5-2.4c-1-1-1.8-2.2-2.4-3.5
			C155.3,14.8,155,13.3,155,11.7z M158,11.7c0,1.2,0.2,2.2,0.6,3.2c0.4,1,1,1.9,1.7,2.6c0.8,0.8,1.6,1.4,2.6,1.8
			c1,0.4,2,0.6,3.2,0.6s2.2-0.2,3.2-0.6c1-0.4,1.8-1,2.5-1.8s1.3-1.6,1.7-2.6s0.6-2.1,0.6-3.2c0-1.2-0.2-2.2-0.6-3.2s-1-1.9-1.7-2.7
			c-0.7-0.8-1.6-1.4-2.6-1.8c-1-0.4-2-0.6-3.2-0.6c-1.1,0-2.2,0.2-3.2,0.7c-1,0.4-1.9,1-2.6,1.8c-0.7,0.8-1.3,1.6-1.7,2.7
			C158.2,9.6,158,10.6,158,11.7z"/>
		<path class="st0" d="M193.3,4.7c-0.7-0.4-1.5-0.7-2.4-1s-1.7-0.4-2.6-0.4c-1.2,0-2.1,0.3-2.8,0.8c-0.7,0.5-1,1.3-1,2.2
			c0,0.7,0.2,1.3,0.7,1.7c0.5,0.5,1,0.9,1.7,1.2c0.7,0.3,1.5,0.7,2.3,1c0.7,0.2,1.3,0.5,2,0.9c0.7,0.3,1.3,0.7,1.8,1.2
			c0.5,0.5,1,1.1,1.3,1.8c0.3,0.7,0.5,1.6,0.5,2.6c0,1.2-0.3,2.2-0.9,3.2c-0.6,0.9-1.4,1.7-2.4,2.2c-1.1,0.5-2.3,0.8-3.8,0.8
			c-0.9,0-1.8-0.1-2.7-0.3s-1.7-0.5-2.4-0.9c-0.7-0.4-1.4-0.7-2-1.1l1.3-2.3c0.5,0.3,1,0.7,1.7,1c0.6,0.3,1.3,0.6,2,0.7
			c0.7,0.2,1.3,0.3,2,0.3c0.7,0,1.4-0.1,2-0.4c0.7-0.2,1.2-0.6,1.7-1.1c0.4-0.5,0.7-1.2,0.7-2.1c0-0.7-0.2-1.3-0.6-1.8
			c-0.4-0.5-0.9-0.9-1.5-1.3s-1.3-0.7-2.1-0.9c-0.7-0.2-1.4-0.5-2.1-0.8c-0.7-0.3-1.3-0.7-1.9-1.2c-0.6-0.5-1.1-1-1.4-1.7
			s-0.6-1.5-0.6-2.4c0-1.1,0.3-2.1,0.8-3c0.5-0.8,1.3-1.5,2.3-2s2.1-0.8,3.3-0.8c1.4,0,2.6,0.2,3.7,0.5c1.1,0.3,2,0.8,2.8,1.2
			L193.3,4.7z"/>
		<path class="st0" d="M199.5,22.6V0.2h0l11.4,16.2l-1.2-0.3l11.4-15.9h0v22.4h-2.9V6.8l0.2,1.5l-8.2,11.6h-0.1l-8.3-11.6l0.5-1.4
			v15.7H199.5z"/>
		<path class="st0" d="M226,11.7c0-1.5,0.3-2.9,0.9-4.3c0.6-1.3,1.4-2.5,2.4-3.6s2.2-1.8,3.5-2.4c1.3-0.6,2.8-0.9,4.3-0.9
			c1.5,0,2.9,0.3,4.3,0.9s2.5,1.4,3.6,2.4s1.8,2.2,2.4,3.6s0.9,2.8,0.9,4.3s-0.3,3-0.9,4.3s-1.4,2.5-2.4,3.5c-1,1-2.2,1.8-3.5,2.4
			c-1.3,0.6-2.8,0.9-4.3,0.9c-1.5,0-3-0.3-4.3-0.8c-1.3-0.6-2.5-1.3-3.5-2.4s-1.8-2.2-2.4-3.5C226.3,14.8,226,13.3,226,11.7z
			 M229,11.7c0,1.2,0.2,2.2,0.6,3.2c0.4,1,1,1.9,1.7,2.6c0.8,0.8,1.6,1.4,2.6,1.8c1,0.4,2,0.6,3.2,0.6c1.1,0,2.2-0.2,3.2-0.6
			c1-0.4,1.8-1,2.5-1.8c0.7-0.8,1.3-1.6,1.7-2.6s0.6-2.1,0.6-3.2c0-1.2-0.2-2.2-0.6-3.2s-1-1.9-1.7-2.7c-0.7-0.8-1.6-1.4-2.6-1.8
			c-1-0.4-2-0.6-3.2-0.6c-1.1,0-2.2,0.2-3.2,0.7c-1,0.4-1.8,1-2.6,1.8s-1.3,1.6-1.7,2.7C229.2,9.6,229,10.6,229,11.7z"/>
		<path class="st0" d="M279.5,20.7c-0.3,0.3-0.7,0.5-1.3,0.8s-1.1,0.5-1.8,0.7c-0.7,0.2-1.3,0.4-2,0.5c-0.7,0.1-1.3,0.2-2,0.2
			c-1.7,0-3.3-0.3-4.7-0.8c-1.4-0.5-2.6-1.3-3.6-2.2s-1.7-2.1-2.3-3.4c-0.5-1.3-0.8-2.7-0.8-4.2c0-1.8,0.3-3.5,0.9-4.9
			s1.4-2.6,2.4-3.6c1-1,2.2-1.7,3.6-2.2c1.4-0.5,2.8-0.8,4.2-0.8c1.3,0,2.5,0.1,3.5,0.4s2,0.7,2.8,1.2l-1,2.7
			c-0.4-0.2-0.9-0.4-1.5-0.6s-1.2-0.4-1.8-0.5c-0.6-0.1-1.2-0.2-1.7-0.2c-1.3,0-2.5,0.2-3.5,0.6c-1,0.4-1.9,1-2.7,1.7
			c-0.8,0.7-1.3,1.6-1.7,2.6c-0.4,1-0.6,2.2-0.6,3.5c0,1.2,0.2,2.2,0.6,3.2s1,1.8,1.7,2.5s1.6,1.3,2.7,1.6c1,0.4,2.2,0.6,3.4,0.6
			c0.7,0,1.4-0.1,2.2-0.2s1.3-0.4,1.8-0.7v-4.3h-4.3v-2.8h7.2V20.7z"/>
		<path class="st0" d="M290.8,0.9c1.1,0,2.1,0.1,3,0.4s1.7,0.7,2.4,1.3c0.7,0.6,1.2,1.3,1.6,2.1c0.4,0.8,0.6,1.8,0.6,2.9
			c0,0.9-0.1,1.7-0.4,2.5c-0.2,0.8-0.7,1.6-1.2,2.2c-0.6,0.7-1.3,1.2-2.2,1.6c-0.9,0.4-2.1,0.6-3.5,0.6H288v8h-2.9V0.9H290.8z
			 M291.1,11.8c0.9,0,1.6-0.1,2.1-0.4c0.6-0.3,1-0.6,1.3-1c0.3-0.4,0.5-0.8,0.7-1.3s0.2-0.9,0.2-1.3c0-0.4-0.1-0.9-0.2-1.4
			c-0.2-0.5-0.4-0.9-0.7-1.3c-0.3-0.4-0.8-0.7-1.3-1c-0.5-0.3-1.2-0.4-1.9-0.4H288v8.1H291.1z M294.7,13.4l5.7,9.1H297l-5.8-9
			L294.7,13.4z"/>
		<path class="st0" d="M303.5,11.7c0-1.5,0.3-2.9,0.9-4.3c0.6-1.3,1.4-2.5,2.4-3.6c1-1,2.2-1.8,3.5-2.4s2.8-0.9,4.3-0.9
			c1.5,0,2.9,0.3,4.3,0.9c1.3,0.6,2.5,1.4,3.6,2.4s1.8,2.2,2.4,3.6s0.9,2.8,0.9,4.3s-0.3,3-0.9,4.3s-1.4,2.5-2.4,3.5
			c-1,1-2.2,1.8-3.5,2.4c-1.3,0.6-2.8,0.9-4.3,0.9c-1.5,0-3-0.3-4.3-0.8c-1.3-0.6-2.5-1.3-3.5-2.4c-1-1-1.8-2.2-2.4-3.5
			C303.8,14.8,303.5,13.3,303.5,11.7z M306.5,11.7c0,1.2,0.2,2.2,0.6,3.2c0.4,1,1,1.9,1.7,2.6c0.8,0.8,1.6,1.4,2.6,1.8
			c1,0.4,2,0.6,3.2,0.6s2.2-0.2,3.2-0.6c1-0.4,1.8-1,2.5-1.8s1.3-1.6,1.7-2.6s0.6-2.1,0.6-3.2c0-1.2-0.2-2.2-0.6-3.2s-1-1.9-1.7-2.7
			c-0.7-0.8-1.6-1.4-2.6-1.8c-1-0.4-2-0.6-3.2-0.6c-1.1,0-2.2,0.2-3.2,0.7c-1,0.4-1.9,1-2.6,1.8c-0.7,0.8-1.3,1.6-1.7,2.7
			C306.7,9.6,306.5,10.6,306.5,11.7z"/>
		<path class="st0" d="M333.1,14.9c0,1,0.2,1.9,0.7,2.6c0.5,0.8,1.1,1.4,1.9,1.8c0.8,0.4,1.7,0.7,2.6,0.7c1,0,1.9-0.2,2.7-0.7
			c0.8-0.4,1.4-1,1.9-1.8c0.4-0.8,0.7-1.6,0.7-2.6v-14h2.9V15c0,1.6-0.4,3-1.1,4.1c-0.7,1.2-1.7,2.1-2.9,2.7s-2.6,1-4.1,1
			c-1.5,0-2.9-0.3-4.1-1s-2.2-1.5-2.9-2.7c-0.7-1.2-1.1-2.6-1.1-4.1V0.9h2.9V14.9z"/>
		<path class="st0" d="M358.3,0.9c1.6,0,2.9,0.3,4,0.8c1.1,0.5,2,1.3,2.6,2.3c0.6,1,0.9,2.2,0.9,3.6c0,0.9-0.1,1.7-0.4,2.5
			s-0.7,1.6-1.2,2.2c-0.6,0.7-1.3,1.2-2.2,1.6c-0.9,0.4-2,0.6-3.4,0.6h-3.2v8h-2.9V0.9H358.3z M358.6,11.8c0.9,0,1.6-0.1,2.1-0.4
			c0.6-0.3,1-0.6,1.3-1.1c0.3-0.4,0.5-0.9,0.7-1.4c0.1-0.5,0.2-0.9,0.2-1.3c0-0.4-0.1-0.9-0.2-1.4c-0.1-0.5-0.4-0.9-0.7-1.3
			c-0.3-0.4-0.8-0.7-1.3-1c-0.5-0.2-1.2-0.4-2-0.4h-3.4v8.1H358.6z"/>
	</g>
</g>
</svg>
