<?xml version="1.0" encoding="utf-8"?>
<!-- Generator: Adobe Illustrator 25.4.1, SVG Export Plug-In . SVG Version: 6.00 Build 0)  -->
<svg version="1.1" id="レイヤー_1" xmlns="http://www.w3.org/2000/svg" xmlns:xlink="http://www.w3.org/1999/xlink" x="0px"
	 y="0px" viewBox="0 0 248 37" style="enable-background:new 0 0 248 37;" xml:space="preserve">
<style type="text/css">
	.st0{fill:#3C4A89;}
</style>
<g>
	<g>
		<path class="st0" d="M92.1,26.1l-0.5-0.5c-0.1-0.1-0.2-0.2-0.4-0.2c-0.1,0-0.3,0.1-0.4,0.2c-2.2,2.6-5,3.9-8.3,3.9
			c-1.8,0-3.4-0.5-4.8-1.5c-1.5-1-2.6-2.4-3.5-4.1c-0.8-1.7-1.3-3.5-1.3-5.3c0-1.8,0.4-3.6,1.2-5.2c0.8-1.7,2-3.1,3.5-4.1
			c1.4-1,3.1-1.6,4.8-1.6c3,0,5.7,1.2,7.9,3.5c0.1,0.1,0.2,0.2,0.4,0.2c0,0,0,0,0,0c0.1,0,0.3-0.1,0.4-0.1l0.5-0.5
			c0.2-0.2,0.2-0.5,0-0.7c-1.2-1.3-2.6-2.3-4.2-3c-1.6-0.7-3.3-1-5-1c-2.3,0-4.4,0.6-6.3,1.7c-1.9,1.1-3.5,2.7-4.6,4.6
			c-1.1,1.9-1.7,4.1-1.7,6.3c0,2.3,0.6,4.4,1.7,6.3c1.1,1.9,2.7,3.5,4.6,4.6c1.9,1.1,4,1.7,6.3,1.7c1.9,0,3.7-0.4,5.3-1.2
			c1.6-0.8,3.1-1.9,4.3-3.3C92.3,26.6,92.3,26.3,92.1,26.1z"/>
		<path class="st0" d="M148.6,7.9c0.3,0,0.5-0.2,0.5-0.5V6.6c0-0.3-0.2-0.5-0.5-0.5h-15c-0.3,0-0.5,0.2-0.5,0.5v23.8
			c0,0.3,0.2,0.5,0.5,0.5h15c0.3,0,0.5-0.2,0.5-0.5v-0.7c0-0.3-0.2-0.5-0.5-0.5h-12.8v-9.8h10.1c0.3,0,0.5-0.2,0.5-0.5v-0.7
			c0-0.3-0.2-0.5-0.5-0.5h-10.1V7.9H148.6z"/>
		<path class="st0" d="M179,30.2l-10.5-24c-0.1-0.2-0.3-0.3-0.5-0.3c0,0,0,0,0,0c-0.2,0-0.4,0.1-0.5,0.3l-11,24
			c-0.1,0.2-0.1,0.3,0,0.5c0.1,0.1,0.3,0.2,0.4,0.2h0.8c0.2,0,0.4-0.1,0.5-0.3l3-6.6h11.9l2.9,6.6c0.1,0.2,0.3,0.3,0.5,0.3h2
			c0.2,0,0.3-0.1,0.4-0.2C179,30.6,179,30.4,179,30.2z M162.1,22.3l5.3-11.5l5.1,11.5H162.1z"/>
		<path class="st0" d="M201.8,6.1h-18.3c-0.3,0-0.5,0.2-0.5,0.5v0.7c0,0.3,0.2,0.5,0.5,0.5h7.7v22.6c0,0.3,0.2,0.5,0.5,0.5h1.8
			c0.3,0,0.5-0.2,0.5-0.5V7.9h7.8c0.3,0,0.5-0.2,0.5-0.5V6.6C202.3,6.4,202,6.1,201.8,6.1z"/>
		<path class="st0" d="M225.8,7.9c0.3,0,0.5-0.2,0.5-0.5V6.6c0-0.3-0.2-0.5-0.5-0.5h-15c-0.3,0-0.5,0.2-0.5,0.5v23.8
			c0,0.3,0.2,0.5,0.5,0.5h15c0.3,0,0.5-0.2,0.5-0.5v-0.7c0-0.3-0.2-0.5-0.5-0.5H213v-9.8h10.1c0.3,0,0.5-0.2,0.5-0.5v-0.7
			c0-0.3-0.2-0.5-0.5-0.5H213V7.9H225.8z"/>
		<path class="st0" d="M122.2,30.2l-4.5-7.8c-0.6-1.1-1.2-1.9-1.9-2.5c0.8-0.2,1.4-0.4,2-0.8c1.2-0.7,2.2-1.6,2.8-2.7
			c0.6-1.1,0.9-2.2,0.9-3.3c0-1.1-0.3-2.2-0.9-3.3c-0.6-1.1-1.6-2-2.8-2.7c0,0,0,0,0,0c-1.3-0.7-2.8-1-4.6-1h-10.4
			c-0.3,0-0.5,0.2-0.5,0.5v23.8c0,0.3,0.2,0.5,0.5,0.5h1.8c0.3,0,0.5-0.2,0.5-0.5V20.1h6c0.7,0,1.2,0.2,1.7,0.5
			c0.4,0.3,1.5,1.5,2.7,3.6l3.7,6.4c0.1,0.2,0.3,0.3,0.4,0.3h2.1c0.2,0,0.4-0.1,0.4-0.3C122.3,30.5,122.3,30.3,122.2,30.2z
			 M118.6,13.1c-0.1,1.8-0.6,3.2-1.5,4c-1,0.9-2.3,1.3-4,1.3h-7.9V7.9h7.9c1.8,0,3.2,0.4,4.2,1.3C118.2,10,118.7,11.3,118.6,13.1z"
			/>
		<path class="st0" d="M248,25.4c-0.4-3.3-3.5-4.5-6-5.4c-3-1.1-4-2-4-3.5c0,0,0-0.2,0-0.3c0-0.5,0.2-0.9,0.5-1.3
			c0.3-0.4,0.8-0.7,1.3-0.9c0.6-0.2,1.3-0.3,2-0.3c0.9,0,1.7,0.3,2.5,0.8c0.6,0.4,1.1,0.8,1.5,1.4c0.1,0.2,0.3,0.3,0.5,0.3
			c0.2,0,0.4-0.1,0.5-0.2l0.3-0.4c0.2-0.2,0.2-0.5,0-0.7c-0.5-0.8-1.1-1.4-2-1.9c-1-0.6-2.2-0.9-3.3-1c-1,0-2,0.1-2.9,0.4
			c-0.9,0.3-1.7,0.9-2.3,1.5c-0.6,0.7-1,1.6-1,2.5l0,0.2c0,3.5,3.1,4.6,5.6,5.5c1.9,0.7,3.6,1.3,4.2,2.7c0,0,0.1,0.2,0.1,0.2
			c0.1,0.4,0.1,0.5,0.2,1c0,0.5,0,0.7-0.1,0.9c-0.1,0.4-0.2,0.7-0.4,1c-0.4,0.5-0.9,0.9-1.5,1.2c-0.7,0.3-1.4,0.4-2.3,0.4
			c-1,0-2-0.3-3-0.9c-0.8-0.4-1.4-1-1.8-1.8c-0.1-0.2-0.3-0.3-0.5-0.3c-0.2,0-0.4,0.1-0.5,0.2l-0.4,0.4c-0.1,0.2-0.2,0.4-0.1,0.6
			c0.5,1,1.3,1.8,2.4,2.4c1.2,0.7,2.4,1,3.7,1.1c0.1,0,0.2,0,0.4,0c1.2,0,2.3-0.2,3.2-0.7c1-0.5,1.8-1.2,2.4-2.1
			c0.6-0.9,0.8-1.8,0.8-2.8C248,25.7,248,25.4,248,25.4z"/>
	</g>
	<path class="st0" d="M56.8,17.9l-22.4,0l-22.1-0.1c-0.7,0-1.7,0-2.2-0.3c-0.1,0-0.1-0.1-0.1-0.1c-0.4-0.3-0.4-0.7-0.3-1.3
		c0.1-0.3,0.1-0.6,0.2-0.8c0.2-0.5,0.4-0.9,0.8-1.2c0,0,0.1-0.1,0.1-0.1c0.5-0.3,1.2-0.3,2-0.3l21.5-0.1l21.1,0
		c0.3,0,0.6-0.2,0.6-0.6v-0.1c0-0.3-0.2-0.6-0.6-0.6l-21.1,0l-21.2-0.1c-0.5,0-0.9-0.1-1.1-0.2c-0.1,0-0.1-0.1-0.2-0.1
		c-0.2-0.2-0.2-0.5,0-0.9c0.5-0.7,1.1-1.3,1.8-2c0.2-0.1,0.3-0.3,0.5-0.4c0.6-0.3,1.1-0.4,1.7-0.4L33.1,8l17.3,0
		C50.7,8,51,7.7,51,7.4V7.3c0-0.3-0.2-0.6-0.6-0.6L34,6.7L17.4,6.6l0,0c-0.1,0-0.2,0-0.2,0c0,0,0,0,0-0.1c0-0.1,0-0.1,0.1-0.2
		C18,5.9,18.9,5.4,19.8,5c3.9-1.6,8.8-2.5,14.3-2.5l0.6,0c1.7,0,3.6,0,5.3,0.3c0.3,0.1,0.7-0.1,0.7-0.5c0.1-0.3-0.1-0.6-0.4-0.7
		c-3.6-1-7.6-1.5-11.6-1.5C12.4,0.2,0,8,0,18.5s12.4,18.3,28.7,18.3c4.1,0,8-0.5,11.6-1.5c0.3-0.1,0.5-0.4,0.4-0.7
		c-0.1-0.3-0.4-0.5-0.7-0.5l0,0c-1.7,0.3-3.5,0.3-5.3,0.3l-0.6,0c-5.5,0-10.4-0.9-14.3-2.5c-0.9-0.4-1.8-0.8-2.7-1.3
		c0-0.1-0.1-0.1-0.1-0.2c0,0,0,0,0-0.1c0.1,0,0.1,0,0.2,0l17.2-0.1l15.8,0c0.3,0,0.6-0.2,0.6-0.6v-0.1c0-0.3-0.2-0.6-0.6-0.6
		l-17.3,0l-17.4-0.1c-0.6,0-1.1-0.1-1.6-0.4c-0.2-0.1-0.3-0.2-0.5-0.3c-0.7-0.6-1.3-1.3-1.8-2c-0.2-0.4-0.2-0.6,0-0.8
		c0-0.1,0.1-0.1,0.2-0.1c0.2-0.1,0.6-0.2,1.1-0.2l21.1-0.1l21.1,0c0.3,0,0.6-0.2,0.6-0.6v-0.1c0-0.3-0.2-0.6-0.6-0.6l-21.3,0
		l-21.4-0.1c-0.8,0-1.3-0.1-1.7-0.2c-0.1,0-0.2-0.1-0.3-0.2c-0.4-0.3-0.7-0.7-0.8-1.2c-0.1-0.3-0.1-0.6-0.2-0.9
		c-0.1-0.6-0.1-0.9,0.3-1.3c0,0,0.1-0.1,0.1-0.1c0.5-0.3,1.5-0.3,2.2-0.3c0,0,0.1,0,0.1,0l21.9-0.1l22.6,0c0.3,0,0.6-0.2,0.6-0.6
		v-0.1C57.3,18.1,57.1,17.9,56.8,17.9z"/>
</g>
</svg>
