<?xml version="1.0" encoding="utf-8"?>
<!-- Generator: Adobe Illustrator 25.4.1, SVG Export Plug-In . SVG Version: 6.00 Build 0)  -->
<svg version="1.1" id="レイヤー_1" xmlns="http://www.w3.org/2000/svg" xmlns:xlink="http://www.w3.org/1999/xlink" x="0px"
	 y="0px" viewBox="0 0 135 85" style="enable-background:new 0 0 135 85;" xml:space="preserve">
<style type="text/css">
	.st0{fill:#FFFFFF;}
</style>
<g>
	<g>
		<path class="st0" d="M16.8,72l-0.4-0.4c-0.1-0.1-0.2-0.1-0.3-0.1c-0.1,0-0.2,0.1-0.3,0.1c-1.7,1.9-3.8,2.9-6.3,2.9
			c-1.3,0-2.6-0.4-3.7-1.2c-1.1-0.8-2-1.8-2.6-3.1c-0.6-1.3-1-2.6-1-4c0-1.4,0.3-2.7,0.9-4C3.9,61,4.7,60,5.9,59.2
			C7,58.4,8.2,58,9.5,58c2.3,0,4.3,0.9,6,2.6c0.1,0.1,0.2,0.1,0.3,0.1c0,0,0,0,0,0c0.1,0,0.2,0,0.3-0.1l0.4-0.4
			c0.1-0.1,0.2-0.4,0-0.5c-0.9-1-2-1.7-3.2-2.2c-1.2-0.5-2.5-0.8-3.8-0.8c-1.7,0-3.3,0.4-4.8,1.3c-1.5,0.9-2.6,2-3.5,3.5
			C0.4,62.9,0,64.5,0,66.3c0,1.7,0.4,3.3,1.3,4.8c0.9,1.5,2,2.6,3.5,3.5c1.5,0.9,3.1,1.3,4.8,1.3c1.4,0,2.8-0.3,4-0.9
			c1.2-0.6,2.3-1.4,3.2-2.5C16.9,72.3,16.9,72.1,16.8,72z"/>
		<path class="st0" d="M59.6,58.2c0.2,0,0.4-0.2,0.4-0.4v-0.5c0-0.2-0.2-0.4-0.4-0.4H48.2c-0.2,0-0.4,0.2-0.4,0.4v18
			c0,0.2,0.2,0.4,0.4,0.4h11.4c0.2,0,0.4-0.2,0.4-0.4v-0.5c0-0.2-0.2-0.4-0.4-0.4H50v-7.4h7.6c0.2,0,0.4-0.2,0.4-0.4V66
			c0-0.2-0.2-0.4-0.4-0.4H50v-7.4H59.6z"/>
		<path class="st0" d="M82.7,75.1l-8-18.2c-0.1-0.1-0.2-0.2-0.4-0.2c0,0,0,0,0,0c-0.2,0-0.3,0.1-0.4,0.2l-8.4,18.2
			c-0.1,0.1,0,0.3,0,0.4c0.1,0.1,0.2,0.2,0.3,0.2h0.6c0.2,0,0.3-0.1,0.4-0.2l2.3-5h9l2.2,5c0.1,0.1,0.2,0.2,0.4,0.2h1.5
			c0.1,0,0.3-0.1,0.3-0.2C82.7,75.4,82.7,75.3,82.7,75.1z M69.8,69.1l4-8.8l3.8,8.8H69.8z"/>
		<path class="st0" d="M99.9,56.8H86c-0.2,0-0.4,0.2-0.4,0.4v0.5c0,0.2,0.2,0.4,0.4,0.4h5.9v17.1c0,0.2,0.2,0.4,0.4,0.4h1.4
			c0.2,0,0.4-0.2,0.4-0.4V58.2h5.9c0.2,0,0.4-0.2,0.4-0.4v-0.5C100.3,57,100.1,56.8,99.9,56.8z"/>
		<path class="st0" d="M118.1,58.2c0.2,0,0.4-0.2,0.4-0.4v-0.5c0-0.2-0.2-0.4-0.4-0.4h-11.4c-0.2,0-0.4,0.2-0.4,0.4v18
			c0,0.2,0.2,0.4,0.4,0.4h11.4c0.2,0,0.4-0.2,0.4-0.4v-0.5c0-0.2-0.2-0.4-0.4-0.4h-9.7v-7.4h7.6c0.2,0,0.4-0.2,0.4-0.4V66
			c0-0.2-0.2-0.4-0.4-0.4h-7.6v-7.4H118.1z"/>
		<path class="st0" d="M39.6,75.1l-3.4-5.9c-0.5-0.8-0.9-1.4-1.4-1.9c0.6-0.1,1.1-0.3,1.5-0.6c0.9-0.5,1.7-1.2,2.1-2
			c0.5-0.8,0.7-1.7,0.7-2.5c0-0.8-0.2-1.7-0.7-2.5c-0.5-0.8-1.2-1.5-2.1-2c0,0,0,0,0,0c-1-0.5-2.1-0.8-3.5-0.8H25
			c-0.2,0-0.4,0.2-0.4,0.4v18c0,0.2,0.2,0.4,0.4,0.4h1.3c0.2,0,0.4-0.2,0.4-0.4v-7.8h4.5c0.5,0,0.9,0.1,1.3,0.4
			c0.3,0.3,1.1,1.1,2,2.7l2.8,4.9c0.1,0.1,0.2,0.2,0.3,0.2h1.6c0.1,0,0.3-0.1,0.3-0.2C39.7,75.4,39.7,75.2,39.6,75.1z M36.9,62.1
			c-0.1,1.4-0.4,2.4-1.2,3.1c-0.7,0.7-1.8,1-3.1,1h-6v-8h6c1.3,0,2.4,0.3,3.2,1C36.6,59.8,36.9,60.8,36.9,62.1z"/>
		<path class="st0" d="M135,71.5c-0.3-2.5-2.7-3.4-4.5-4.1c-2.3-0.8-3.1-1.5-3.1-2.6c0,0,0-0.1,0-0.2c0-0.4,0.1-0.7,0.4-1
			c0.2-0.3,0.6-0.5,1-0.7c0.4-0.2,0.9-0.2,1.5-0.2c0.7,0,1.3,0.2,1.9,0.6c0.5,0.3,0.9,0.6,1.1,1.1c0.1,0.1,0.2,0.2,0.4,0.2
			c0.2,0,0.3-0.1,0.4-0.2l0.2-0.3c0.1-0.1,0.1-0.4,0-0.5c-0.4-0.6-0.9-1.1-1.5-1.4c-0.8-0.5-1.6-0.7-2.5-0.7c-0.8,0-1.5,0.1-2.2,0.3
			c-0.7,0.3-1.3,0.6-1.8,1.2c-0.5,0.5-0.7,1.2-0.8,1.9l0,0.1c0,2.6,2.4,3.5,4.3,4.2c1.4,0.5,2.8,1,3.2,2.1c0,0,0.1,0.1,0.1,0.1
			c0.1,0.3,0.1,0.4,0.1,0.8c0,0.4,0,0.5-0.1,0.7c-0.1,0.3-0.2,0.5-0.3,0.8c-0.3,0.4-0.7,0.7-1.1,0.9c-0.5,0.2-1.1,0.3-1.7,0.3
			c-0.8,0-1.5-0.3-2.3-0.7c-0.6-0.3-1-0.8-1.3-1.4c-0.1-0.1-0.2-0.2-0.4-0.2c-0.1,0-0.3,0-0.4,0.2l-0.3,0.3
			c-0.1,0.1-0.1,0.3-0.1,0.5c0.4,0.8,1,1.4,1.8,1.8c0.9,0.5,1.8,0.8,2.8,0.8c0.1,0,0.2,0,0.3,0c0.9,0,1.7-0.2,2.4-0.5
			c0.8-0.4,1.4-0.9,1.8-1.6c0.4-0.7,0.6-1.4,0.6-2.1C135,71.7,135,71.5,135,71.5z"/>
	</g>
	<g>
		<path class="st0" d="M93,25l-20.4,0l-20.1-0.1c-0.6,0-1.5,0-2-0.2c0,0-0.1-0.1-0.1-0.1c-0.3-0.3-0.3-0.6-0.3-1.2
			c0-0.3,0.1-0.5,0.2-0.8c0.1-0.5,0.3-0.8,0.7-1.1c0,0,0.1-0.1,0.1-0.1c0.4-0.2,1.1-0.3,1.8-0.3L72.5,21l19.2,0
			c0.3,0,0.5-0.2,0.5-0.5v-0.1c0-0.3-0.2-0.5-0.5-0.5l-19.1,0l-19.2-0.1c-0.4,0-0.8-0.1-1-0.2c-0.1,0-0.1-0.1-0.1-0.1
			c-0.1-0.2-0.2-0.4,0-0.8c0.5-0.6,1-1.2,1.6-1.8c0.2-0.1,0.3-0.2,0.5-0.3c0.5-0.3,1-0.4,1.5-0.4L71.6,16l15.7,0
			c0.3,0,0.5-0.2,0.5-0.5v-0.1c0-0.3-0.2-0.5-0.5-0.5l-14.9,0l-15-0.1l0,0c-0.1,0-0.2,0-0.2,0c0,0,0,0,0-0.1c0-0.1,0-0.1,0.1-0.1
			c0.8-0.4,1.6-0.8,2.4-1.2c3.6-1.5,8-2.3,13-2.3l0.6,0c1.6,0,3.2,0,4.8,0.2c0.3,0,0.6-0.1,0.7-0.4c0.1-0.3-0.1-0.6-0.4-0.6
			c-3.3-0.9-6.9-1.3-10.5-1.3c-14.9,0-26.1,7.2-26.1,16.7s11.2,16.7,26.1,16.7c3.7,0,7.2-0.5,10.5-1.3c0.3-0.1,0.5-0.4,0.4-0.6
			c-0.1-0.3-0.4-0.5-0.7-0.4l0,0C76.3,40,74.7,40,73.1,40l-0.6,0c-5,0-9.5-0.8-13-2.3c-0.8-0.4-1.6-0.7-2.4-1.2c0,0-0.1-0.1,0-0.1
			c0,0,0,0,0-0.1c0.1,0,0.1,0,0.2,0l15.6-0.1l14.3,0c0.3,0,0.5-0.2,0.5-0.5v-0.1c0-0.3-0.2-0.5-0.5-0.5l-15.7,0l-15.8-0.1
			c-0.5,0-1-0.1-1.5-0.4c-0.1-0.1-0.3-0.2-0.5-0.3c-0.6-0.6-1.1-1.2-1.6-1.8c-0.2-0.3-0.1-0.6,0-0.8c0-0.1,0.1-0.1,0.1-0.1
			c0.2-0.1,0.6-0.2,1-0.2l19.2-0.1l19.1,0c0.3,0,0.5-0.2,0.5-0.5v-0.1c0-0.3-0.2-0.5-0.5-0.5l-19.4,0L52.9,30
			c-0.7,0-1.2-0.1-1.6-0.2c-0.1,0-0.2-0.1-0.3-0.1c-0.4-0.3-0.6-0.7-0.7-1.1c-0.1-0.3-0.1-0.5-0.2-0.8c-0.1-0.5-0.1-0.8,0.3-1.1
			c0,0,0.1-0.1,0.1-0.1c0.5-0.2,1.4-0.2,2-0.2c0,0,0,0,0.1,0l19.9-0.1l20.5,0c0.3,0,0.5-0.2,0.5-0.5v-0.1C93.5,25.2,93.3,25,93,25z"
			/>
	</g>
</g>
</svg>
