<?xml version="1.0" encoding="utf-8"?>
<!-- Generator: Adobe Illustrator 25.4.1, SVG Export Plug-In . SVG Version: 6.00 Build 0)  -->
<svg version="1.1" id="レイヤー_1" xmlns="http://www.w3.org/2000/svg" xmlns:xlink="http://www.w3.org/1999/xlink" x="0px"
	 y="0px" viewBox="0 0 138 138" style="enable-background:new 0 0 138 138;" xml:space="preserve">
<style type="text/css">
	.st0{fill:#EDBCB9;}
	.st1{fill:#FFFFFF;}
</style>
<path class="st0" d="M69,137.9L69,137.9C31,137.9,0.1,107,0.1,69l0,0C0.1,31,31,0.1,69,0.1l0,0c38,0,68.9,30.8,68.9,68.9l0,0
	C137.9,107,107,137.9,69,137.9z"/>
<g>
	<path class="st1" d="M44.7,58.1c7.1,0.9,12.6,2.3,19.5,4.6l-1.3,3.7c-3.1-1.3-5.7-2.2-10.4-3.3c-3.6-0.9-6-1.3-9.2-1.7L44.7,58.1z
		 M47.1,49.8c4.7,0.6,9.4,1.6,15.3,3.4l-1.1,3.6c-2.3-0.9-4.4-1.5-8.1-2.3c-2.5-0.6-4.4-0.9-7.4-1.3L47.1,49.8z M47.5,41.7
		c5.7,0.7,9.3,1.4,15.9,3.2l-1.2,3.6c-4.8-1.6-10.9-2.9-16-3.4L47.5,41.7z"/>
	<path class="st1" d="M93.6,44.3c-0.4,0.1-0.4,0.1-2.5,0.8c-1.7,0.5-2.6,0.8-4.9,1.2c0,4,0,4-0.1,5h6.2c2,0,2.5,0,3.6-0.2v3.5
		c-1.1-0.1-1.6-0.1-3.5-0.1H86c-0.3,2.7-0.9,4.7-2,6.4s-2.7,3.3-4.8,4.7c-0.8,0.5-1.4,0.9-2.7,1.5c-0.9-1.5-1.3-2.1-2.6-3.1
		c2.1-0.8,3.2-1.4,4.5-2.5c1.8-1.4,2.9-3.1,3.4-5c0.1-0.5,0.2-1,0.3-2H75c-1.9,0-2.4,0-3.5,0.1v-3.5c1.1,0.2,1.6,0.2,3.6,0.2h7.5
		c0.1-1.2,0.1-2.4,0.1-4.4c-2.4,0.4-3.3,0.4-8.1,0.7c-0.3-1.3-0.4-1.8-1.1-3.2c0.9,0.1,1.4,0.1,1.8,0.1c3.9,0,8.9-0.7,12.6-1.7
		c1.7-0.5,2.6-0.8,3.5-1.4L93.6,44.3z"/>
	<path class="st1" d="M19.7,90.3c-1.2,0-1.7,0-2.2,0.1v-2.3c0.7,0.1,1,0.1,2.3,0.1H28v-7.9h-7.9c-1.3,0-1.7,0-2.3,0.1v-2.3
		c0.7,0.1,1,0.1,2.3,0.1h8.7c0.9,0,0.9,0,1.6,0c-0.1,0.5-0.1,0.7-0.1,1.5v9.9c0,0.9,0,1.4,0.1,1.9H28v-1.1L19.7,90.3L19.7,90.3z"/>
	<path class="st1" d="M49.1,82.5c-0.2,0.3-0.3,0.6-0.5,1.1c-0.9,2.6-2.3,4.6-4.2,6.1c-1.3,1-2.4,1.6-4.7,2.4
		c-0.4-0.9-0.6-1.2-1.4-2.1c2.2-0.6,3.6-1.2,5-2.4c1.3-1.1,2.1-2.2,2.9-4.2h-8.8c-1.2,0-1.7,0-2.3,0.1v-2.2c0.7,0.1,1.1,0.1,2.3,0.1
		H46c1.1,0,1.5,0,2-0.2L49.1,82.5z M36.6,77c0.6,0.1,1,0.1,2.1,0.1H45c1.1,0,1.5,0,2.1-0.1v2.2c-0.6-0.1-0.9-0.1-2.1-0.1h-6.4
		c-1.2,0-1.5,0-2.1,0.1L36.6,77L36.6,77z"/>
	<path class="st1" d="M57,83.3c0,0.1-0.1,0.2-0.1,0.3c0,0,0,0.1-0.1,0.3c-0.6,2.6-1.7,5.2-3,7c-0.8-0.6-1.2-0.8-2.1-1.2
		c1.4-1.5,2.8-4.7,3-7L57,83.3z M65.1,79.5c-0.5-1.2-0.9-1.9-1.6-2.8l1.3-0.5c0.7,0.9,1.1,1.7,1.6,2.8l-1.2,0.5c1.3,0,1.6,0,2.3-0.1
		v2.2c-0.6-0.1-0.9-0.1-2.3-0.1H61v8.7c0,1,0,1.5,0.1,2h-2.4c0.1-0.5,0.1-1,0.1-2v-8.7h-4c-1.4,0-1.7,0-2.3,0.1v-2.2
		c0.6,0.1,1,0.1,2.3,0.1h4v-1c0-1,0-1.4-0.1-1.9h2.4C61,77.1,61,77.4,61,78.5v1H65.1z M65,82.7c0.6,2.3,2,5.5,3.2,6.9
		c-0.9,0.5-1.3,0.7-2.1,1.3c-1.3-2-2.1-3.9-3-6.7c-0.1-0.5-0.2-0.6-0.3-0.8L65,82.7z M67.5,78.7c-0.4-1.1-1-2-1.5-2.8l1.3-0.5
		c0.7,1,1.2,1.7,1.6,2.7L67.5,78.7z"/>
	<path class="st1" d="M72.7,84.7c-1.2,0-1.6,0-2.3,0.1v-2.2c0.7,0.1,1.1,0.1,2.3,0.1H76v-3.1h-2.2c-1.3,0-1.7,0-2.3,0.1v-2.2
		c0.7,0.1,1,0.1,2.3,0.1H82c1.3,0,1.7,0,2.3-0.1v2.2c-0.6-0.1-1-0.1-2.3-0.1h-3.9v3.1h5c1.2,0,1.6,0,2.3-0.1v2.2
		c-0.6-0.1-1.1-0.1-2.3-0.1h-5v2.9c0,1.1,0.1,1.3,0.5,1.5c0.3,0.2,0.9,0.2,1.9,0.2c0.6,0,1.7-0.1,2.7-0.1c0.7-0.1,1-0.1,1.7-0.3
		l0.1,2.3c-0.1,0-0.2,0-0.3,0c-0.2,0-0.2,0-1.5,0.1c-0.8,0.1-2,0.1-2.9,0.1c-3.5,0-4.3-0.6-4.3-3.1v-3.5L72.7,84.7L72.7,84.7z"/>
	<path class="st1" d="M97.3,83.9c-0.2,4.4-1.9,6.8-6,8.4c-0.4-0.9-0.7-1.3-1.5-2c3.5-1.1,4.9-2.9,5.1-6.4h-4.4c-1.4,0-1.7,0-2.3,0.1
		v-2.1c0.6,0.1,1,0.1,2.3,0.1H101c1.3,0,1.7,0,2.3-0.1V84c-0.6-0.1-0.9-0.1-2.3-0.1H97.3z M100,79.5c-0.6-0.1-0.8-0.1-2.3-0.1h-5.4
		c-1.5,0-1.7,0-2.3,0.1v-2.2c0.6,0.1,1,0.1,2.3,0.1h5.3c1.4,0,1.7,0,2.3-0.1L100,79.5L100,79.5z M101,76.1c0.7,0.9,1.1,1.7,1.6,2.8
		l-1.4,0.5c-0.5-1.2-0.9-1.9-1.6-2.9L101,76.1z M103.6,78.7c-0.4-1-0.9-1.9-1.5-2.8l1.3-0.5c0.7,1,1.2,1.7,1.6,2.7L103.6,78.7z"/>
	<path class="st1" d="M111.6,77.2c-0.1,0.5-0.1,0.5-0.2,4s-0.5,5.5-1.5,7.4c-0.6,1.2-1.3,2.2-2.5,3.3c-0.7-0.9-1-1.2-1.8-1.7
		c0.9-0.7,1.3-1.2,1.9-2.1c1.3-2.1,1.7-4.4,1.7-9.4c0-1,0-1.2-0.1-1.6L111.6,77.2z M116.4,77c-0.1,0.5-0.1,0.8-0.1,1.7L116.2,89
		c1.3-0.6,2-1.1,2.8-2.1s1.4-2,1.8-3.3c0.6,0.8,0.9,1,1.7,1.7c-0.7,1.8-1.7,3.1-2.9,4.2c-1,0.9-2,1.4-3.8,2.2
		c-0.4,0.1-0.5,0.2-0.8,0.3l-1.2-1.2c0.1-0.5,0.1-0.9,0.2-1.9l0.1-10.2v-0.5c0-0.5,0-0.8-0.1-1.2H116.4z"/>
</g>
</svg>
