<?xml version="1.0" encoding="utf-8"?>
<!-- Generator: Adobe Illustrator 25.4.1, SVG Export Plug-In . SVG Version: 6.00 Build 0)  -->
<svg version="1.1" id="レイヤー_1" xmlns="http://www.w3.org/2000/svg" xmlns:xlink="http://www.w3.org/1999/xlink" x="0px"
	 y="0px" viewBox="0 0 138 138" style="enable-background:new 0 0 138 138;" xml:space="preserve">
<style type="text/css">
	.st0{fill:#FFFFFF;}
	.st1{fill:#888888;}
	.st2{fill:#888888;stroke:#888888;stroke-width:0.75;stroke-miterlimit:10;}
</style>
<g>
	<ellipse class="st0" cx="69" cy="69" rx="67.9" ry="67.9"/>
	<path class="st1" d="M69,2.1c36.9,0,66.9,30,66.9,66.9s-30,66.9-66.9,66.9S2.1,105.9,2.1,69S32.1,2.1,69,2.1 M69,0.1
		C31,0.1,0.1,31,0.1,69S31,137.9,69,137.9S137.9,107,137.9,69C137.9,30.9,107,0.1,69,0.1L69,0.1z"/>
</g>
<g>
	<path class="st1" d="M34.5,103.1c0-0.5,0-0.6,0.1-1.6c-0.3,0.6-0.6,0.9-1.1,1.5c-0.2-0.7-0.4-1.1-0.6-1.7c1.4-1.5,2.4-3.9,2.8-5.8
		l1.7,0.4c-0.6,1.8-0.6,2.1-1.2,3.2v8.3c0,0.6,0,1.1,0.1,1.7h-1.7c0.1-0.6,0.1-1,0.1-1.7L34.5,103.1L34.5,103.1z M42.1,103.9
		c-0.2,0.9-0.4,1.5-0.8,2.3c1.5,0.8,3,1.2,5.5,1.3c-0.2,0.5-0.5,1.1-0.6,1.6c-2.4-0.2-4.1-0.8-5.8-1.8c-0.8,0.8-1.8,1.4-3.2,1.9
		c-0.2-0.5-0.6-1-0.9-1.4c1.4-0.4,2.2-0.8,3-1.4c-0.4-0.3-0.6-0.6-0.9-1c-0.2-0.2-0.3-0.4-0.5-0.6l1.3-0.6c0.2,0.3,0.5,0.7,1,1.1
		c0.2-0.5,0.4-0.8,0.5-1.4h-2.1c-0.5,0-0.8,0-1.2,0.1c0.1-0.4,0.1-0.7,0.1-1.2v-2c0-0.6,0-0.9-0.1-1.2c0.4,0,0.6,0.1,1.4,0.1h2.3
		v-1.1h-2.4c-0.6,0-1,0-1.4,0.1V97c0.4,0.1,1,0.1,1.5,0.1h2.3c0-0.7,0-1.1-0.1-1.5h1.7c-0.1,0.4-0.1,0.4-0.1,1.5H45
		c0.6,0,1.1,0,1.6-0.1v1.5c-0.4-0.1-0.9-0.1-1.5-0.1h-2.8c0,0.2,0,0.3,0,0.4v0.6h2.1c0.6,0,1,0,1.4-0.1c0,0.4-0.1,0.7-0.1,1.3v1.9
		c0,0.7,0,1,0.1,1.3c-0.4-0.1-0.7-0.1-1.4-0.1h-2.3V103.9z M38.8,101v1.6h1.9c0.1-0.6,0.1-0.8,0.1-1.6H38.8z M42.3,101
		c0,0.7-0.1,1.1-0.1,1.6h2.1V101H42.3z"/>
	<path class="st1" d="M50.5,104.5c-0.2,1.9-0.6,3.3-1.5,4.6c-0.6-0.6-0.8-0.7-1.4-1.1c0.5-0.7,0.9-1.5,1.1-2.4
		c0.2-0.6,0.2-1.5,0.3-2.3c0.1-1.2,0.2-3.3,0.2-5c0-1.1,0-1.5-0.1-2.1c0.5,0.1,0.9,0.1,1.7,0.1h8c0.8,0,1.2,0,1.7-0.1
		c-0.1,0.5-0.1,0.9-0.1,1.6v9.6c0,1.2-0.4,1.5-2.1,1.5c-0.5,0-1.2,0-1.6-0.1c-0.1-0.6-0.2-0.9-0.4-1.5c0.7,0.1,1.4,0.1,1.9,0.1
		c0.6,0,0.7-0.1,0.7-0.4v-2.6h-3.5v2.4c0,0.8,0,1.3,0.1,1.7h-1.7c0.1-0.4,0.1-0.9,0.1-1.7v-2.4h-3.4V104.5z M53.8,101.1h-3.2
		c0,0.4,0,0.7,0,0.9c0,0.6,0,0.8,0,1.1h3.2V101.1z M53.8,97.8h-3.2v1.5v0.4h3.2V97.8z M58.9,99.7v-1.9h-3.5v1.9H58.9L58.9,99.7z
		 M58.9,103.1v-2h-3.5v2H58.9z"/>
	<path class="st1" d="M64.7,102.7c-1,0-1.3,0-1.9,0.1V101c0.6,0.1,0.9,0.1,1.9,0.1h2.7v-2.5h-1.8c-1.1,0-1.4,0-1.9,0.1v-1.8
		c0.6,0.1,0.8,0.1,1.9,0.1h6.6c1.1,0,1.4,0,1.9-0.1v1.8c-0.5-0.1-0.7-0.1-1.9-0.1H69v2.5h4.1c1,0,1.3,0,1.9-0.1v1.8
		c-0.5-0.1-0.9-0.1-1.9-0.1H69v2.3c0,0.9,0.1,1.1,0.4,1.2c0.2,0.2,0.7,0.2,1.5,0.2c0.5,0,1.4-0.1,2.2-0.1c0.6-0.1,0.8-0.1,1.4-0.2
		l0.1,1.9c-0.1,0-0.2,0-0.2,0c-0.2,0-0.2,0-1.2,0.1c-0.6,0.1-1.6,0.1-2.3,0.1c-2.8,0-3.5-0.5-3.5-2.5v-2.8L64.7,102.7L64.7,102.7z"
		/>
	<path class="st1" d="M84.7,102c-0.2,3.6-1.5,5.5-4.9,6.8c-0.3-0.7-0.6-1.1-1.2-1.6c2.8-0.9,4-2.3,4.1-5.2h-3.6
		c-1.1,0-1.4,0-1.9,0.1v-1.7c0.5,0.1,0.8,0.1,1.9,0.1h8.5c1.1,0,1.4,0,1.9-0.1v1.7c-0.5-0.1-0.7-0.1-1.9-0.1
		C87.6,102,84.7,102,84.7,102z M86.9,98.4c-0.5-0.1-0.6-0.1-1.9-0.1h-4.4c-1.2,0-1.4,0-1.9,0.1v-1.8c0.5,0.1,0.8,0.1,1.9,0.1h4.3
		c1.1,0,1.4,0,1.9-0.1L86.9,98.4L86.9,98.4z M87.7,95.8c0.6,0.7,0.9,1.4,1.3,2.3l-1.1,0.4c-0.4-1-0.7-1.5-1.3-2.3L87.7,95.8z
		 M89.8,97.8c-0.3-0.8-0.7-1.5-1.2-2.3l1.1-0.4c0.6,0.8,1,1.4,1.3,2.2L89.8,97.8z"/>
	<path class="st1" d="M96.3,96.7c-0.1,0.4-0.1,0.4-0.2,3.2s-0.4,4.5-1.2,6c-0.5,1-1.1,1.8-2,2.7c-0.6-0.7-0.8-1-1.5-1.4
		c0.7-0.6,1.1-1,1.5-1.7c1.1-1.7,1.4-3.6,1.4-7.6c0-0.8,0-1-0.1-1.3L96.3,96.7z M100.1,96.4c-0.1,0.4-0.1,0.6-0.1,1.4l-0.1,8.3
		c1.1-0.5,1.6-0.9,2.3-1.7c0.6-0.8,1.1-1.6,1.5-2.7c0.5,0.6,0.7,0.8,1.4,1.4c-0.6,1.5-1.4,2.5-2.3,3.4c-0.8,0.7-1.6,1.1-3.1,1.8
		c-0.3,0.1-0.4,0.2-0.6,0.2l-1-1c0.1-0.4,0.1-0.7,0.2-1.5l0.1-8.3v-0.4c0-0.4,0-0.6-0.1-1L100.1,96.4z"/>
</g>
<g>
	<g>
		<path class="st2" d="M22.8,57.6c0,1.1,0,1.8,0.2,2.6h-3c0.1-0.8,0.2-1.5,0.2-2.6V46.7h-2.6c-1.1,0-2,0-2.6,0.1v-2.7
			c0.7,0.1,1.5,0.1,2.6,0.1h7.6c1.4,0,2.1,0,2.8-0.1v2.7c-0.7-0.1-1.4-0.1-2.8-0.1h-2.4C22.8,46.7,22.8,57.6,22.8,57.6z"/>
		<path class="st2" d="M42.4,56.1c0,1.2,0,1.7,0.1,2.6c-1.4,0.8-2.1,1.1-3.1,1.4c-0.9,0.2-1.9,0.4-2.8,0.4c-2.4,0-4.2-0.8-5.5-2.3
			c-1.2-1.4-1.8-3.6-1.8-6.1c0-3.2,1.1-5.6,3.1-7c1.2-0.8,2.5-1.2,4.3-1.2c1.7,0,3.3,0.6,4.4,1.7c0.7,0.7,1,1.3,1.4,2.4l-2.6,0.7
			c-0.6-1.8-1.6-2.5-3.5-2.5c-1.1,0-2.2,0.4-2.9,1.2c-1,1-1.4,2.5-1.4,4.6s0.4,3.6,1.3,4.7c0.8,1,1.8,1.4,3.3,1.4
			c1.3,0,2.3-0.3,3.3-0.9v-3.3h-1c-1,0-1.4,0-2,0.1v-2.6c0.7,0.1,1.1,0.1,2.3,0.1h1c0.9,0,1.4,0,2.3-0.1c-0.1,0.7-0.1,1.4-0.1,2.5
			L42.4,56.1L42.4,56.1z"/>
		<path class="st2" d="M58.3,55.3c-0.4,1.4-0.7,2.2-1.3,3c-1.1,1.4-2.9,2.2-5.2,2.2c-2.1,0-3.8-0.7-4.9-1.9
			c-1.3-1.5-2.1-3.7-2.1-6.3s0.8-5,2.2-6.5c1.2-1.2,2.9-1.9,4.8-1.9c1.5,0,2.6,0.3,3.7,1c0.9,0.6,1.6,1.3,2,2.2
			c0.2,0.4,0.4,0.8,0.6,1.5l-2.7,0.6c-0.3-0.9-0.4-1.3-0.8-1.7c-0.7-0.8-1.6-1.2-2.8-1.2c-2.7,0-4.4,2.2-4.4,5.9s1.7,5.9,4.4,5.9
			c1.3,0,2.5-0.5,3.1-1.5c0.3-0.5,0.5-0.9,0.6-1.8L58.3,55.3z"/>
		<path class="st2" d="M68.9,49.9c-0.8,0-1.3,0-1.8,0.1v-2.3c0.5,0.1,0.9,0.1,1.8,0.1h2.9v-2.2c0-1.1,0-1.6-0.1-2.3H74
			c-0.1,0.6-0.1,1.2-0.1,2.3v13.5c0,1.2,0,1.8,0.1,2.4h-2.4c0.1-0.7,0.1-1.3,0.1-2.4V57c-1.2,0.7-2.2,1.2-3.6,1.8
			c-0.3,0.1-0.7,0.3-0.8,0.4l-0.7-2.4c0.6-0.1,1-0.2,1.6-0.5c1.5-0.6,2.2-1,3.5-1.7v-4.7C71.7,49.9,68.9,49.9,68.9,49.9z M78.4,58.4
			c0,0.5,0.2,0.6,1.6,0.6c1.3,0,1.8-0.1,2-0.6c0.2-0.4,0.3-1.9,0.3-3.7c0.7,0.4,1.4,0.7,2,0.9c-0.1,2.7-0.5,4.2-1.1,4.8
			c-0.3,0.3-0.8,0.5-1.4,0.6c-0.4,0.1-1,0.1-2,0.1c-1.7,0-2.3-0.1-2.8-0.3c-0.6-0.3-0.8-0.8-0.8-1.7V45.7c0-1.1,0-1.7-0.1-2.3h2.4
			c-0.1,0.7-0.1,1.2-0.1,2.3v4c1.8-1,3.6-2.5,4.3-3.4l1.5,1.9c-0.2,0.1-0.3,0.2-0.6,0.5c-0.6,0.5-2.2,1.6-3.1,2.2
			c-0.8,0.5-0.8,0.5-2.2,1.3L78.4,58.4L78.4,58.4z"/>
		<path class="st2" d="M93.6,49.7c-0.2,1.6-0.3,2.4-0.5,3.5c-0.7,2.7-1.6,4.6-3.2,6.2c-0.9,1-1.6,1.5-2.7,2.2
			c-0.4-0.8-0.9-1.4-1.6-1.9c2.1-1.2,3.5-2.6,4.4-4.5c0.8-1.6,1.2-3,1.5-5.5H89c-1.1,0-1.8,0-2.4,0.1v-2.4c0.6,0.1,1.3,0.1,2.4,0.1
			h2.6c0-1,0.1-1.5,0.1-2.4c0-0.6,0-1.3-0.1-1.8H94c-0.1,0.6-0.1,1-0.1,1.8c0,1.1,0,1.5-0.1,2.4H97c1,0,1.7,0,2.4-0.1
			c-0.1,0.8-0.1,1.2-0.1,2.3v8.9c0,0.5,0.1,0.5,0.8,0.5c0.9,0,1.2-0.1,1.3-0.6c0.2-0.7,0.3-2,0.4-3.8c0.6,0.4,1.2,0.6,2,0.8
			c-0.2,3-0.4,4.2-0.9,4.8c-0.4,0.6-1.2,0.8-3.1,0.8c-2.1,0-2.6-0.4-2.6-1.7l0.1-9.8h-3.7V49.7z"/>
		<path class="st2" d="M107.7,48.3c-0.3,2.8-0.4,3.7-1.1,5.8l-1.9-0.7c0.7-1.8,1-3.1,1.2-5.5L107.7,48.3z M110.5,50.4
			c0,3.5-0.4,5.7-1.5,7.8c-0.7,1.3-1.5,2.4-2.4,3.3c-0.4-0.7-0.9-1.3-1.6-1.7c1.1-1.1,1.7-2,2.3-3.3c0.5-1.1,0.7-1.8,0.8-3
			c0.2-1.2,0.3-2.4,0.3-3.5v-4.5c0-0.9-0.1-1.7-0.1-2.3h2.2c-0.1,0.5-0.1,1.1-0.1,2.3L110.5,50.4L110.5,50.4z M112.2,48
			c0.7,1.9,1,2.7,1.5,5l-1.8,0.9c-0.4-2.2-0.7-3.5-1.3-5.2L112.2,48z M116,43.9c-0.1,0.7-0.1,1.1-0.1,2.3v11.6c0,1.2,0,1.9,0.1,2.6
			h-2.3c0.1-0.7,0.1-1.4,0.1-2.6V46.2c0-1.2,0-1.7-0.1-2.3H116z M117.5,47.8c0.8,1.7,1.2,2.6,1.9,4.8l-1.7,1.1
			c-0.6-2.2-1-3.4-1.8-5.1L117.5,47.8z M121.7,43.3c-0.1,0.7-0.1,1.4-0.1,2.5v13c0,1.3,0,2,0.1,2.7h-2.2c0.1-0.7,0.1-1.4,0.1-2.7
			v-13c0-1.2,0-1.8-0.1-2.5H121.7z"/>
		<path class="st2" d="M43.9,84.2c-1.6,0-1.9,0-2.6,0.1c0.1-1.1,0.3-1.8,0.5-2.6c0.5-1.5,1.4-2.7,2.7-3.9c0.7-0.6,1.3-1.1,3.3-2.4
			c1.8-1.3,2.4-1.9,2.4-2.9c0-1.4-1.1-2.2-2.8-2.2c-1.2,0-2,0.4-2.5,1.2c-0.3,0.5-0.5,0.9-0.6,1.8L41.4,73c0.3-1.5,0.6-2.3,1.4-3.2
			c1-1.2,2.6-1.8,4.6-1.8c3.5,0,5.7,1.7,5.7,4.4c0,1.3-0.4,2.3-1.4,3.2c-0.6,0.5-0.8,0.7-3.4,2.5c-0.9,0.6-1.9,1.5-2.4,2
			c-0.6,0.6-0.8,1-1.1,1.8h5.6c1.3,0,2.3-0.1,2.9-0.2v2.6c-0.9-0.1-1.7-0.1-3-0.1H43.9z"/>
		<path class="st2" d="M57.6,82.9c-0.6-0.6-1.1-1.3-1.3-2c-0.5-1.4-0.8-3-0.8-4.6c0-2.1,0.5-4.3,1.2-5.5c1.1-1.8,2.9-2.8,5.1-2.8
			c1.7,0,3.2,0.6,4.2,1.6c0.6,0.6,1.1,1.3,1.3,2c0.5,1.4,0.8,3,0.8,4.6c0,2.5-0.5,4.6-1.5,5.9c-1.1,1.6-2.8,2.4-4.9,2.4
			C60.1,84.5,58.6,84,57.6,82.9z M63.9,81.4c0.9-0.9,1.4-2.8,1.4-5.1c0-2.3-0.5-4.1-1.4-5.1c-0.5-0.5-1.3-0.8-2.2-0.8
			c-1,0-1.7,0.3-2.2,1c-0.9,1-1.3,2.7-1.3,4.9c0,2.1,0.4,3.8,1,4.8c0.6,0.9,1.5,1.3,2.6,1.3C62.7,82.2,63.4,81.9,63.9,81.4z"/>
		<path class="st2" d="M72.8,84.2c-1.6,0-1.9,0-2.6,0.1c0.1-1.1,0.3-1.8,0.5-2.6c0.5-1.5,1.4-2.7,2.7-3.9c0.7-0.6,1.3-1.1,3.3-2.4
			c1.8-1.3,2.4-1.9,2.4-2.9c0-1.4-1.1-2.2-2.8-2.2c-1.2,0-2,0.4-2.5,1.2c-0.3,0.5-0.5,0.9-0.6,1.8L70.3,73c0.3-1.5,0.6-2.3,1.4-3.2
			c1-1.2,2.6-1.8,4.6-1.8c3.5,0,5.7,1.7,5.7,4.4c0,1.3-0.4,2.3-1.4,3.2c-0.6,0.5-0.8,0.7-3.4,2.5c-0.9,0.6-1.9,1.5-2.4,2
			c-0.6,0.6-0.8,1-1.1,1.8h5.6c1.3,0,2.3-0.1,2.9-0.2v2.6c-0.9-0.1-1.7-0.1-3-0.1H72.8z"/>
		<path class="st2" d="M87.2,79.9c0.3,0.9,0.4,1.2,0.9,1.6c0.7,0.5,1.5,0.8,2.4,0.8c2,0,3.2-1,3.2-2.6c0-0.9-0.4-1.7-1.1-2.1
			c-0.5-0.3-1.4-0.5-2.3-0.5s-1.5,0-2.1,0.1v-2.5c0.6,0.1,1.1,0.1,1.9,0.1c2,0,3.2-0.9,3.2-2.5c0-1.4-0.9-2.2-2.6-2.2
			c-1,0-1.7,0.2-2.2,0.6c-0.4,0.4-0.6,0.7-0.8,1.5l-2.9-0.5c0.5-1.5,1-2.2,1.9-2.9c1-0.7,2.3-1.1,3.9-1.1c3.3,0,5.5,1.7,5.5,4.3
			c0,1.2-0.5,2.3-1.4,2.9c-0.4,0.3-0.9,0.5-1.9,0.8c1.4,0.2,2.2,0.6,2.9,1.3c0.7,0.7,1,1.6,1,2.8c0,1.1-0.5,2.2-1.2,2.9
			c-1.1,1.1-2.8,1.6-4.9,1.6c-2.3,0-3.9-0.6-5.1-1.9c-0.5-0.6-0.8-1.1-1.1-2.2L87.2,79.9z"/>
	</g>
</g>
</svg>
