<?xml version="1.0" encoding="utf-8"?>
<!-- Generator: Adobe Illustrator 25.4.1, SVG Export Plug-In . SVG Version: 6.00 Build 0)  -->
<svg version="1.1" id="レイヤー_1" xmlns="http://www.w3.org/2000/svg" xmlns:xlink="http://www.w3.org/1999/xlink" x="0px"
	 y="0px" viewBox="0 0 138 138" style="enable-background:new 0 0 138 138;" xml:space="preserve">
<style type="text/css">
	.st0{fill:#FF95A8;}
	.st1{fill:#FFFFFF;}
</style>
<g>
	<path class="st0" d="M69,137.9L69,137.9C31,137.9,0.1,107,0.1,69v0C0.1,31,31,0.1,69,0.1h0c38,0,68.9,30.8,68.9,68.9v0
		C137.9,107,107,137.9,69,137.9z"/>
	<g>
		<path class="st1" d="M47.3,63c0,1.6,0.1,2.6,0.2,3.8h-4.4c0.2-1.2,0.2-2.2,0.2-3.8V47h-4c-1.7,0-3,0.1-4,0.2v-3.9
			c1.1,0.1,2.3,0.2,4,0.2H51c2.1,0,3.2-0.1,4.3-0.2v3.9C54.2,47.1,53.1,47,51,47h-3.7V63z"/>
		<path class="st1" d="M77,60.8c0,1.7,0,2.5,0.2,3.8c-2.1,1.1-3.1,1.6-4.7,2c-1.3,0.4-2.9,0.6-4.3,0.6c-3.7,0-6.5-1.1-8.3-3.4
			c-1.8-2.1-2.8-5.3-2.8-8.9c0-4.7,1.6-8.2,4.7-10.3c1.8-1.2,3.8-1.7,6.5-1.7c2.7,0,5.1,0.9,6.7,2.5c1,1,1.6,1.8,2.2,3.5l-4,1.1
			c-1-2.7-2.4-3.6-5.4-3.6c-1.7,0-3.3,0.6-4.5,1.8c-1.5,1.5-2.2,3.7-2.2,6.7c0,3,0.7,5.3,2,6.9c1.2,1.4,2.8,2,5.1,2
			c2,0,3.5-0.4,5-1.3v-4.8h-1.6c-1.5,0-2.1,0-3,0.2V54c1.1,0.1,1.7,0.2,3.5,0.2h1.5c1.3,0,2.2,0,3.5-0.1c-0.1,1.1-0.2,2-0.2,3.6
			V60.8z"/>
		<path class="st1" d="M101,59.7c-0.6,2.1-1.1,3.3-2,4.4c-1.7,2.1-4.5,3.2-8,3.2c-3.2,0-5.7-1-7.5-2.8c-2.1-2.1-3.2-5.5-3.2-9.2
			c0-3.9,1.2-7.3,3.4-9.5C85.4,44,88.1,43,91,43c2.3,0,4,0.4,5.6,1.4c1.3,0.8,2.4,1.9,3.1,3.2c0.4,0.6,0.6,1.1,0.9,2.3l-4.1,0.9
			c-0.4-1.3-0.7-1.8-1.3-2.5c-1-1.2-2.5-1.8-4.3-1.8c-4.2,0-6.7,3.3-6.7,8.7c0,5.4,2.6,8.7,6.7,8.7c2.1,0,3.8-0.8,4.8-2.2
			c0.5-0.7,0.7-1.3,1-2.7L101,59.7z"/>
		<path class="st1" d="M26,86.6c0-0.6,0-0.8,0.1-2c-0.4,0.7-0.7,1.1-1.3,1.9c-0.3-0.9-0.5-1.4-0.8-2.1c1.7-1.8,3-4.8,3.4-7.2
			l2.1,0.5c-0.7,2.2-0.8,2.6-1.5,4v10.2c0,0.8,0,1.4,0.1,2.1h-2.1c0.1-0.7,0.1-1.2,0.1-2.1V86.6z M35.3,87.5c-0.2,1.1-0.5,1.9-1,2.8
			c1.9,1,3.7,1.5,6.8,1.6c-0.3,0.6-0.6,1.3-0.8,2c-3-0.3-5.1-1-7.1-2.2c-1,1-2.2,1.7-4,2.3c-0.3-0.6-0.7-1.2-1.1-1.7
			c1.7-0.5,2.7-1,3.7-1.7c-0.5-0.4-0.7-0.7-1.1-1.2c-0.2-0.3-0.4-0.5-0.6-0.7l1.6-0.8c0.2,0.4,0.6,0.9,1.2,1.4
			c0.3-0.6,0.5-1,0.6-1.7h-2.6c-0.6,0-1,0-1.5,0.1c0.1-0.5,0.1-0.9,0.1-1.5v-2.5c0-0.8,0-1.1-0.1-1.5c0.5,0,0.8,0.1,1.7,0.1h2.8
			l0-1.3h-3c-0.7,0-1.2,0-1.7,0.1V79c0.5,0.1,1.2,0.1,1.9,0.1h2.8c0-0.9,0-1.3-0.1-1.8h2.1c-0.1,0.5-0.1,0.5-0.1,1.8h3.1
			c0.8,0,1.4,0,2-0.1v1.9c-0.5-0.1-1.1-0.1-1.8-0.1h-3.4c0,0.3,0,0.4,0,0.5v0.8h2.6c0.8,0,1.2,0,1.7-0.1c0,0.5-0.1,0.9-0.1,1.6V86
			c0,0.9,0,1.2,0.1,1.6c-0.5-0.1-0.9-0.1-1.7-0.1H35.3z M31.3,83.9v2h2.4c0.1-0.8,0.1-1,0.1-2H31.3z M35.6,83.9c0,0.9-0.1,1.3-0.1,2
			h2.6v-2H35.6z"/>
		<path class="st1" d="M45.7,88.3c-0.3,2.4-0.8,4.1-1.8,5.7c-0.8-0.7-1-0.9-1.7-1.4c0.6-0.9,1.1-1.9,1.3-3c0.2-0.8,0.3-1.8,0.4-2.8
			c0.1-1.5,0.2-4.1,0.2-6.2c0-1.3,0-1.9-0.1-2.6c0.6,0.1,1.1,0.1,2.1,0.1H56c1,0,1.5,0,2.1-0.1C58,78.6,58,79.1,58,80v11.8
			c0,1.5-0.5,1.9-2.6,1.9c-0.6,0-1.5,0-2-0.1c-0.1-0.7-0.2-1.1-0.5-1.9c0.9,0.1,1.7,0.1,2.3,0.1c0.7,0,0.9-0.1,0.9-0.5v-3.2h-4.3v3
			c0,1,0,1.6,0.1,2.1h-2.1c0.1-0.5,0.1-1.1,0.1-2.1v-3H45.7z M49.8,84.1h-4c0,0.5,0,0.9,0,1.1c0,0.8,0,1,0,1.3h4V84.1z M49.8,80
			h-3.9v1.9l0,0.5h3.9V80z M56.1,82.3V80h-4.3v2.4H56.1z M56.1,86.5v-2.5h-4.3v2.5H56.1z"/>
		<path class="st1" d="M63.3,86.1c-1.2,0-1.6,0-2.3,0.1V84c0.7,0.1,1.1,0.1,2.3,0.1h3.3V81h-2.2c-1.3,0-1.7,0-2.3,0.1v-2.2
			c0.7,0.1,1,0.1,2.3,0.1h8.2c1.3,0,1.7,0,2.3-0.1v2.2C74.3,81,74,81,72.6,81h-3.9v3.1h5c1.2,0,1.6,0,2.3-0.1v2.2
			c-0.6-0.1-1.1-0.1-2.3-0.1h-5v2.9c0,1.1,0.1,1.4,0.5,1.5c0.3,0.2,0.9,0.2,1.9,0.2c0.6,0,1.7-0.1,2.7-0.1c0.7-0.1,1-0.1,1.7-0.3
			l0.1,2.3c-0.1,0-0.2,0-0.3,0c-0.2,0-0.2,0-1.5,0.1c-0.8,0.1-2,0.1-2.9,0.1c-3.5,0-4.3-0.6-4.3-3.1v-3.5H63.3z"/>
		<path class="st1" d="M87.9,85.2c-0.2,4.4-1.9,6.8-6,8.4c-0.4-0.9-0.7-1.3-1.5-2c3.5-1.1,4.9-2.9,5.1-6.4h-4.4
			c-1.4,0-1.7,0-2.3,0.1v-2.1c0.6,0.1,1,0.1,2.3,0.1h10.5c1.3,0,1.7,0,2.3-0.1v2.1c-0.6-0.1-0.9-0.1-2.3-0.1H87.9z M90.6,80.8
			c-0.6-0.1-0.8-0.1-2.3-0.1h-5.4c-1.5,0-1.7,0-2.3,0.1v-2.2c0.6,0.1,1,0.1,2.3,0.1h5.3c1.4,0,1.7,0,2.3-0.1V80.8z M91.6,77.5
			c0.7,0.9,1.1,1.7,1.6,2.8l-1.4,0.5c-0.5-1.2-0.9-1.9-1.6-2.9L91.6,77.5z M94.2,80c-0.4-1-0.9-1.9-1.5-2.8l1.3-0.5
			c0.7,1,1.2,1.7,1.6,2.7L94.2,80z"/>
		<path class="st1" d="M102.2,78.6c-0.1,0.5-0.1,0.5-0.2,4c-0.1,3.5-0.5,5.5-1.5,7.4c-0.6,1.2-1.3,2.2-2.5,3.3
			c-0.7-0.9-1-1.2-1.8-1.7c0.9-0.7,1.3-1.2,1.9-2.1c1.3-2.1,1.7-4.4,1.7-9.4c0-1,0-1.2-0.1-1.6L102.2,78.6z M107,78.3
			c-0.1,0.5-0.1,0.8-0.1,1.7l-0.1,10.2c1.3-0.6,2-1.1,2.8-2.1c0.8-1,1.4-2,1.8-3.3c0.6,0.8,0.9,1,1.7,1.7c-0.7,1.8-1.7,3.1-2.9,4.2
			c-1,0.9-2,1.4-3.8,2.2c-0.4,0.1-0.5,0.2-0.8,0.3l-1.2-1.2c0.1-0.5,0.1-0.9,0.2-1.9l0.1-10.2v-0.5c0-0.5,0-0.8-0.1-1.2L107,78.3z"
			/>
	</g>
</g>
</svg>
