<?xml version="1.0" encoding="utf-8"?>
<!-- Generator: Adobe Illustrator 25.4.1, SVG Export Plug-In . SVG Version: 6.00 Build 0)  -->
<svg version="1.1" id="レイヤー_1" xmlns="http://www.w3.org/2000/svg" xmlns:xlink="http://www.w3.org/1999/xlink" x="0px"
	 y="0px" viewBox="0 0 32 32" style="enable-background:new 0 0 32 32;" xml:space="preserve">
<style type="text/css">
	.st0{fill:#005EE3;}
	.st1{fill:#FFFFFF;}
</style>
<polygon class="st0" points="34.8,88.9 33.3,87.6 43.1,76.3 33.3,65.4 34.8,64.1 45.8,76.3 "/>
<g>
	<g id="Cart">
		<g>
			<path class="st1" d="M32,0.8c-0.1-0.5-0.7-0.9-1.2-0.7l-4,1c-0.4,0.1-0.7,0.4-0.7,0.8l-0.5,3.2L0.9,8c0,0,0,0-0.1,0
				c0,0,0,0-0.1,0c-0.1,0-0.1,0-0.1,0.1c-0.1,0-0.1,0-0.2,0.1c-0.1,0-0.1,0.1-0.2,0.2c0,0-0.1,0-0.1,0.1c0,0,0,0,0,0
				C0.1,8.6,0.1,8.6,0,8.7c0,0,0,0.1,0,0.1C0,9,0,9.1,0,9.3l3,12l1,4c0,0,0,0.1,0,0.1c0,0,0,0.1,0.1,0.1c0,0.1,0.1,0.1,0.1,0.2
				c0,0,0.1,0.1,0.1,0.1c0.1,0.1,0.1,0.1,0.2,0.1c0,0,0.1,0,0.1,0.1C4.8,26,4.9,26,5,26h21c0.6,0,1-0.4,1-1c0-0.6-0.4-1-1-1H5.8
				l-0.5-2H24c0.1,0,0.2,0,0.4-0.1c0,0,0.1,0,0.1-0.1c0.1,0,0.1-0.1,0.2-0.1c0,0,0.1-0.1,0.1-0.1c0-0.1,0.1-0.1,0.1-0.1
				c0-0.1,0-0.1,0.1-0.2c0-0.1,0-0.1,0.1-0.2l0,0v0l2.9-18.3L31.2,2C31.8,1.8,32.1,1.3,32,0.8z M4.8,20L2.2,9.9l3.1-0.4L6.8,20H4.8z
				 M8.9,20L7.3,9.3l3.1-0.4L10.9,20H8.9z M15,20H13L12.4,8.6l3.1-0.4L15,20z M19.1,20H17l0.5-12l3.1-0.4L19.1,20z M23.1,20h-2
				l1.6-12.6l2.1-0.3L23.1,20z M9,28c-1.1,0-2,0.9-2,2s0.9,2,2,2c1.1,0,2-0.9,2-2C11,28.9,10.1,28,9,28z M22,28c-1.1,0-2,0.9-2,2
				s0.9,2,2,2c1.1,0,2-0.9,2-2C24,28.9,23.1,28,22,28z"/>
		</g>
	</g>
</g>
</svg>
