<?xml version="1.0" encoding="utf-8"?>
<!-- Generator: Adobe Illustrator 25.4.1, SVG Export Plug-In . SVG Version: 6.00 Build 0)  -->
<svg version="1.1" id="レイヤー_1" xmlns="http://www.w3.org/2000/svg" xmlns:xlink="http://www.w3.org/1999/xlink" x="0px"
	 y="0px" viewBox="0 0 42 42" style="enable-background:new 0 0 42 42;" xml:space="preserve">
<style type="text/css">
	.st0{fill:#EDBCB9;}
</style>
<g transform="translate(1.4065934065934016 1.4065934065934016) scale(2.81 2.81)">
	<g>
		<path class="st0" d="M13.5,3.3c-0.8,0-1.6-0.3-2.3-0.8S10,1.2,9.8,0.3c0-0.2-0.1-0.5-0.1-0.7H7.3v6.6v3.6c0,1-0.6,1.8-1.5,2.1
			C5.5,12,5.3,12,5,12c-0.4,0-0.7-0.1-1-0.3c-0.6-0.4-1.1-1.1-1.1-1.8c0-1.2,1-2.2,2.2-2.2c0.2,0,0.5,0,0.7,0.1V5.9V5.3
			c-0.2,0-0.5-0.1-0.7-0.1c-1.3,0-2.6,0.6-3.5,1.6C0.9,7.5,0.5,8.5,0.5,9.5c-0.1,1.3,0.4,2.6,1.3,3.5c0.1,0.1,0.3,0.3,0.4,0.4
			C3,14,4,14.4,5,14.4c0.2,0,0.5,0,0.7-0.1c1-0.1,1.9-0.6,2.6-1.3c0.9-0.9,1.4-2,1.4-3.2V4.4c0.4,0.3,0.9,0.6,1.4,0.8
			c0.8,0.3,1.6,0.5,2.4,0.5V3.9L13.5,3.3L13.5,3.3L13.5,3.3z"/>
	</g>
</g>
</svg>
