<?xml version="1.0" encoding="utf-8"?>
<!-- Generator: Adobe Illustrator 25.4.1, SVG Export Plug-In . SVG Version: 6.00 Build 0)  -->
<svg version="1.1" id="レイヤー_1" xmlns="http://www.w3.org/2000/svg" xmlns:xlink="http://www.w3.org/1999/xlink" x="0px"
	 y="0px" viewBox="0 0 42 42" style="enable-background:new 0 0 42 42;" xml:space="preserve">
<style type="text/css">
	.st0{fill:#EDBCB9;}
</style>
<g>
	<g>
		<path class="st0" d="M21,5.5c5,0,5.6,0,7.6,0.1c1.8,0.1,2.8,0.4,3.5,0.7C33,6.6,33.7,7,34.3,7.7C35,8.3,35.4,9,35.7,9.9
			c0.3,0.7,0.6,1.7,0.7,3.5c0.1,2,0.1,2.6,0.1,7.6s0,5.6-0.1,7.6c-0.1,1.8-0.4,2.8-0.7,3.5c-0.3,0.9-0.8,1.5-1.4,2.2
			c-0.7,0.7-1.3,1.1-2.2,1.4c-0.7,0.3-1.7,0.6-3.5,0.7c-2,0.1-2.6,0.1-7.6,0.1s-5.6,0-7.6-0.1c-1.8-0.1-2.8-0.4-3.5-0.7
			C9,35.4,8.3,35,7.7,34.3C7,33.7,6.6,33,6.3,32.1c-0.3-0.7-0.6-1.7-0.7-3.5c-0.1-2-0.1-2.6-0.1-7.6s0-5.6,0.1-7.6
			c0.1-1.8,0.4-2.8,0.7-3.5C6.6,9,7,8.3,7.7,7.7C8.3,7,9,6.6,9.9,6.3c0.7-0.3,1.7-0.6,3.5-0.7C15.4,5.5,16,5.5,21,5.5 M21,2.1
			c-5.1,0-5.8,0-7.8,0.1S9.8,2.6,8.6,3.1S6.3,4.2,5.3,5.3c-1.1,1-1.7,2.1-2.2,3.3s-0.8,2.6-0.9,4.6S2.1,15.9,2.1,21s0,5.8,0.1,7.8
			s0.4,3.4,0.9,4.6c0.5,1.2,1.1,2.3,2.2,3.3c1.1,1.1,2.1,1.7,3.3,2.2s2.6,0.8,4.6,0.9c2,0.1,2.7,0.1,7.8,0.1s5.8,0,7.8-0.1
			s3.4-0.4,4.6-0.9c1.2-0.5,2.3-1.1,3.3-2.2c1.1-1.1,1.7-2.1,2.2-3.3s0.8-2.6,0.9-4.6c0.1-2,0.1-2.7,0.1-7.8s0-5.8-0.1-7.8
			s-0.4-3.4-0.9-4.6s-1.1-2.3-2.2-3.3c-1.1-1.1-2.1-1.7-3.3-2.2s-2.6-0.8-4.6-0.9C26.8,2.1,26.1,2.1,21,2.1L21,2.1z"/>
		<path class="st0" d="M21,11.3c-5.4,0-9.7,4.3-9.7,9.7s4.3,9.7,9.7,9.7s9.7-4.3,9.7-9.7S26.4,11.3,21,11.3z M21,27.3
			c-3.5,0-6.3-2.8-6.3-6.3s2.8-6.3,6.3-6.3s6.3,2.8,6.3,6.3S24.5,27.3,21,27.3z"/>
		<circle class="st0" cx="31.1" cy="10.9" r="2.3"/>
	</g>
</g>
</svg>
