<?xml version="1.0" encoding="utf-8"?>
<!-- Generator: Adobe Illustrator 25.4.1, SVG Export Plug-In . SVG Version: 6.00 Build 0)  -->
<svg version="1.1" id="レイヤー_1" xmlns="http://www.w3.org/2000/svg" xmlns:xlink="http://www.w3.org/1999/xlink" x="0px"
	 y="0px" viewBox="0 0 42 42" style="enable-background:new 0 0 42 42;" xml:space="preserve">
<style type="text/css">
	.st0{fill:#EDBCB9;}
</style>
<path id="Logo_00000124857400979889147050000010734112387263708802_" class="st0" d="M37.8,12.8c0,0.4,0,0.7,0,1.1
	c0,10.9-8.3,23.4-23.4,23.4l0,0c-4.5,0-8.9-1.3-12.6-3.7c0.7,0.1,1.3,0.1,2,0.1c3.7,0,7.3-1.2,10.2-3.5c-3.5-0.1-6.6-2.4-7.7-5.7
	c1.2,0.2,2.5,0.2,3.7-0.1c-3.8-0.8-6.6-4.2-6.6-8.1v-0.1c1.1,0.6,2.4,1,3.7,1c-3.6-2.4-4.7-7.2-2.5-11c4.2,5.1,10.4,8.3,17,8.6
	c-0.7-2.9,0.2-5.9,2.4-7.9c3.3-3.1,8.5-3,11.7,0.4c1.8-0.4,3.6-1,5.2-2c-0.6,1.9-1.9,3.5-3.6,4.6c1.6-0.2,3.2-0.6,4.7-1.3
	C40.8,10.2,39.4,11.6,37.8,12.8z"/>
</svg>
