<?xml version="1.0" encoding="utf-8"?>
<!-- Generator: Adobe Illustrator 25.4.1, SVG Export Plug-In . SVG Version: 6.00 Build 0)  -->
<svg version="1.1" id="レイヤー_1" xmlns="http://www.w3.org/2000/svg" xmlns:xlink="http://www.w3.org/1999/xlink" x="0px"
	 y="0px" viewBox="0 0 42 42" style="enable-background:new 0 0 42 42;" xml:space="preserve">
<style type="text/css">
	.st0{fill:#FFFFFF;}
</style>
<g>
	<g>
		<path class="st0" d="M-30.1,5.5c5,0,5.6,0,7.6,0.1c1.8,0.1,2.8,0.4,3.5,0.7c0.9,0.3,1.5,0.8,2.2,1.4c0.7,0.7,1.1,1.3,1.4,2.2
			c0.3,0.7,0.6,1.7,0.7,3.5c0.1,2,0.1,2.6,0.1,7.6s0,5.6-0.1,7.6c-0.1,1.8-0.4,2.8-0.7,3.5c-0.3,0.9-0.8,1.5-1.4,2.2
			c-0.7,0.7-1.3,1.1-2.2,1.4c-0.7,0.3-1.7,0.6-3.5,0.7c-2,0.1-2.6,0.1-7.6,0.1s-5.6,0-7.6-0.1c-1.8-0.1-2.8-0.4-3.5-0.7
			c-0.9-0.3-1.5-0.8-2.2-1.4c-0.7-0.7-1.1-1.3-1.4-2.2c-0.3-0.7-0.6-1.7-0.7-3.5c-0.1-2-0.1-2.6-0.1-7.6s0-5.6,0.1-7.6
			c0.1-1.8,0.4-2.8,0.7-3.5c0.3-0.9,0.8-1.5,1.4-2.2c0.7-0.7,1.3-1.1,2.2-1.4c0.7-0.3,1.7-0.6,3.5-0.7C-35.7,5.5-35.2,5.5-30.1,5.5
			 M-30.1,2.1c-5.1,0-5.8,0-7.8,0.1c-2,0.1-3.4,0.4-4.6,0.9c-1.2,0.5-2.3,1.1-3.3,2.2c-1.1,1.1-1.7,2.1-2.2,3.3
			c-0.5,1.2-0.8,2.6-0.9,4.6c-0.1,2-0.1,2.7-0.1,7.8c0,5.1,0,5.8,0.1,7.8c0.1,2,0.4,3.4,0.9,4.6c0.5,1.2,1.1,2.3,2.2,3.3
			c1.1,1.1,2.1,1.7,3.3,2.2c1.2,0.5,2.6,0.8,4.6,0.9c2,0.1,2.7,0.1,7.8,0.1s5.8,0,7.8-0.1c2-0.1,3.4-0.4,4.6-0.9
			c1.2-0.5,2.3-1.1,3.3-2.2c1.1-1.1,1.7-2.1,2.2-3.3c0.5-1.2,0.8-2.6,0.9-4.6c0.1-2,0.1-2.7,0.1-7.8s0-5.8-0.1-7.8
			c-0.1-2-0.4-3.4-0.9-4.6c-0.5-1.2-1.1-2.3-2.2-3.3c-1.1-1.1-2.1-1.7-3.3-2.2c-1.2-0.5-2.6-0.8-4.6-0.9C-24.3,2.1-25,2.1-30.1,2.1
			L-30.1,2.1z"/>
		<path class="st0" d="M-30.1,11.3c-5.4,0-9.7,4.3-9.7,9.7s4.3,9.7,9.7,9.7s9.7-4.3,9.7-9.7S-24.7,11.3-30.1,11.3z M-30.1,27.3
			c-3.5,0-6.3-2.8-6.3-6.3c0-3.5,2.8-6.3,6.3-6.3c3.5,0,6.3,2.8,6.3,6.3C-23.8,24.5-26.6,27.3-30.1,27.3z"/>
		<circle class="st0" cx="-20" cy="10.9" r="2.3"/>
	</g>
</g>
<path id="Logo_00000124857400979889147050000010734112387263708802_" class="st0" d="M37,12.8c0,0.4,0,0.7,0,1.1
	c0,10.9-8.3,23.4-23.4,23.4v0c-4.5,0-8.9-1.3-12.6-3.7c0.7,0.1,1.3,0.1,2,0.1c3.7,0,7.3-1.2,10.2-3.5c-3.5-0.1-6.6-2.4-7.7-5.7
	c1.2,0.2,2.5,0.2,3.7-0.1c-3.8-0.8-6.6-4.2-6.6-8.1c0,0,0-0.1,0-0.1c1.1,0.6,2.4,1,3.7,1c-3.6-2.4-4.7-7.2-2.5-11
	c4.2,5.1,10.4,8.3,17,8.6c-0.7-2.9,0.2-5.9,2.4-7.9c3.3-3.1,8.5-3,11.7,0.4c1.8-0.4,3.6-1,5.2-2c-0.6,1.9-1.9,3.5-3.6,4.6
	c1.6-0.2,3.2-0.6,4.7-1.3C40,10.2,38.6,11.6,37,12.8z"/>
</svg>
