<?xml version="1.0" encoding="utf-8"?>
<!-- Generator: Adobe Illustrator 25.4.1, SVG Export Plug-In . SVG Version: 6.00 Build 0)  -->
<svg version="1.1" id="レイヤー_1" xmlns="http://www.w3.org/2000/svg" xmlns:xlink="http://www.w3.org/1999/xlink" x="0px"
	 y="0px" viewBox="0 0 550 628" style="enable-background:new 0 0 550 628;" xml:space="preserve">
<style type="text/css">
	.st0{fill:#FFFFFF;}
	.st1{fill:#FFF23F;}
	.st2{fill:none;stroke:#FFF23F;stroke-width:0.7178;stroke-linecap:round;stroke-linejoin:round;stroke-miterlimit:10;}
</style>
<path class="st0" d="M523.4,597.1H26.6C11.9,597.1,0,585.2,0,570.5V27.1C0,12.5,11.9,0.5,26.6,0.5h496.8c14.7,0,26.6,11.9,26.6,26.6
	v543.4C550,585.2,538.1,597.1,523.4,597.1z M26.6,1.5C12.5,1.5,1,13,1,27.1v543.4c0,14.1,11.5,25.6,25.6,25.6h496.8
	c14.1,0,25.6-11.5,25.6-25.6V27.1c0-14.1-11.5-25.6-25.6-25.6H26.6z"/>
<g>
	<g>
		<path class="st1" d="M204.7,83h0.9v22.1c0,0.5-0.4,0.9-0.8,0.9h-45.7v-0.6c7.7,0,7.7,1.3,7.7-10.1h0l0.3-40.5
			c0-11.1-0.6-10.1-8.5-10.1v-0.6h44.6c0.5,0,0.8,0.4,0.8,0.9v22.1h-0.9c0,0-0.7-22.3-10.6-22.3l-9.7-0.1c-7.1,0.1-7.1-1-7.1,10.1
			l-0.1,18.5l7.1,0.2c8.2-0.1,12.3-5.9,12.3-13.9h0.5v27.2h-0.5c0-8.4-3.8-12.7-14.3-12.7v0l-5.2,0l-0.2,23.3c0.1,8.9,1.1,8,8.5,8
			l10.3-0.1C204.2,105.4,204.7,83,204.7,83z"/>
		<path class="st1" d="M269.1,105.5v0.6h-24.7v-0.6c7.2,0,7.5,1.1,7.5-8.1V80.7c0.1-1.3,0.1-2.6,0-3.8c0-0.1,0-0.1,0-0.2
			c-0.1-2.6-0.5-4.9-1.1-6.6c-2.3-8.1-16.9-13.9-26.9,6.9l0,18.3c0,11.1,0.6,10.1,8.5,10.1v0.6h-24.7v-0.6c7.7,0,7.7,1.3,7.7-10.1
			l0-27.4c0-4.1-6.7-0.7-6.7-0.7l-0.2-0.3l14.4-6.3h1l0,14.5c0.2-0.3,0.3-0.6,0.5-0.9c9.3-16.7,27.8-16.9,33-9.7
			c2.5,3.4,3.5,7.7,3.4,12.3l0,0v18.7C260.8,106.6,261.1,105.5,269.1,105.5z"/>
		<path class="st1" d="M285.8,85.4L285.8,85.4l0,9.6c0,6.9,1,9.2,5.2,9.3c2.8,0.1,5.1-1.5,8-5.6l0.6,0.6c-2.7,4.3-8.5,7.8-13.6,7.8
			c-4.2,0-9.9-1.9-9.8-11.6V64.8v-3.6H267v-0.6h9.2V58c0-3.9-6.7-0.7-6.7-0.7l-0.2-0.3l15.4-6.3h1v10h13.9v0.6h-13.9V85.4z"/>
		<path class="st1" d="M337.5,65.7l-4.7,6.5c-2.8-8.1-8.4-13.8-16.6-4.5v27.7c0,11.1,0.6,10.1,8.5,10.1v0.6H300v-0.6
			c7.7,0,7.7,1.3,7.7-10.1V68c0-4.1-6.7-0.7-6.7-0.7l-0.2-0.3l14.4-6.3h1v6.3c8.1-9.8,16.3-8.2,20.7-2.1
			C337.1,65.1,337.3,65.4,337.5,65.7z"/>
		<path class="st1" d="M368.3,61.3h23.2v0.8c-7.3,0-9.8,1.3-13.7,11.3l-14.1,34.4c-4.3,10.5-9.3,15.8-17.3,15.8
			c-1,0-1.8-0.1-2.6-0.2v-6.5c1.7,1.4,4.3,3.2,7.5,3.2c4,0,7.8-3,11.6-12.4l0.9-2.2l-13.1-31.5c-5.3-12.3-5.4-11.6-13.6-11.7v-0.8
			h26.5v0.8c-3.3,0.2-8-0.7-8.1,2.3c-0.1,1.6,0.4,3,1.9,6.7l10.3,25l9.5-23.3c3.8-10.7,0.9-10.7-8.7-10.7V61.3z"/>
	</g>
</g>
<polyline class="st2" points="47,346.6 503,346.6 460.1,297.3 "/>
<g>
	<g>
		<path class="st1" d="M60.2,327.7h5.3c1.3,0,1.7,0,2.5-0.1v1.9c-0.7-0.1-1.3-0.1-2.4-0.1H53.4c-1.2,0-1.7,0-2.4,0.1v-1.9
			c0.7,0.1,1.2,0.1,2.5,0.1h4.9v-8.8h-3.4c-1.2,0-1.7,0-2.4,0.1v-1.9c0.7,0.1,1.2,0.1,2.4,0.1h9c1.3,0,1.7,0,2.5-0.1v1.9
			c-0.7-0.1-1.3-0.1-2.4-0.1h-3.8V327.7z"/>
		<path class="st1" d="M72.6,329.1c1.6-0.1,4.1-0.7,6-1.5c3.9-1.7,6.6-4.7,8.3-9.1c0.6,0.7,0.8,0.9,1.5,1.4c-1.7,3.6-3.6,6-6.3,7.9
			c-2.1,1.4-4.4,2.3-7.7,3.1c-0.7,0.1-0.8,0.2-1.3,0.3L72.6,329.1z M74.1,316.4c2.3,1.4,3.5,2.4,5,3.9l-1.2,1.5c-1.5-1.6-3.2-3-5-4
			L74.1,316.4z"/>
		<path class="st1" d="M96.4,331.8c0.1-0.7,0.1-1.2,0.1-2.4V317c0-1.2,0-1.7-0.1-2.2h2.1c-0.1,0.6-0.1,1.2-0.1,2.3v3.6
			c2.9,1,5.7,2.3,9.1,4.3l-1,1.8c-1.8-1.3-4.6-2.8-7.5-4c-0.3-0.1-0.4-0.2-0.7-0.3c0.1,0.5,0.1,0.9,0.1,1.7v5.3c0,1.1,0,1.7,0.1,2.4
			H96.4z"/>
		<path class="st1" d="M117.8,315.2c-0.1,0.5-0.1,1.1-0.1,1.9v5c0,1,0,1.5,0.1,2.1h-2c0.1-0.6,0.1-1.1,0.1-2.1v-5c0-1,0-1.4-0.1-1.9
			H117.8z M126.9,315.3c-0.1,0.5-0.1,0.9-0.1,2v2.3c0,3.2-0.2,5-0.5,6.2c-0.6,1.9-1.9,3.5-3.9,4.6c-1,0.6-2,0.9-3.8,1.5
			c-0.3-0.7-0.4-1-1-1.7c2.1-0.4,3.2-0.9,4.4-1.7c2-1.3,2.7-2.7,3-5.4c0.1-0.9,0.1-1.3,0.1-3.6v-2.2c0-1.2,0-1.5-0.1-2H126.9z"/>
		<path class="st1" d="M133.5,322.2c0.7,0.1,1.4,0.1,2.8,0.1h11.5c1.6,0,2,0,2.8-0.1v2c-0.8-0.1-1.4-0.1-2.8-0.1h-11.4
			c-1.6,0-2.1,0-2.8,0.1V322.2z"/>
		<path class="st1" d="M154.6,326.8c1.7,1.4,2.8,2.5,4.2,4.4l-1.4,1.3c-1.4-2-2.5-3.2-4.1-4.5L154.6,326.8z"/>
		<path class="st1" d="M175,319.1c-0.4,0.1-0.5,0.1-1.2,0.2c-1.3,0.2-2.1,0.4-3,0.5v3.3c1.7-0.5,2.9-0.7,4.3-0.7
			c1.4,0,2.7,0.3,3.7,0.9c1.3,0.9,2.1,2.2,2.1,3.7c0,2.5-1.9,4.3-4.3,4.3c-1.6,0-2.8-0.8-3.2-2.3c-0.2-0.7-0.3-1.3-0.3-2.4
			c0.8-0.2,1-0.3,1.6-0.7c0,0.4,0,0.6,0,0.8c0,0.8,0.1,1.5,0.2,1.9c0.3,0.7,0.9,1,1.7,1c1.5,0,2.6-1.1,2.6-2.7
			c0-1.9-1.6-3.2-4.1-3.2c-1.3,0-2.6,0.2-4.2,0.8v4.3c0,0.9,0,1.1-0.1,1.5c-0.2,0.6-0.8,1-1.6,1c-1.2,0-2.6-0.5-3.5-1.3
			c-0.7-0.6-1-1.3-1-2c0-0.9,0.6-1.9,1.7-2.8c0.8-0.6,1.6-1.1,2.9-1.7v-3.7c-0.2,0-0.2,0-0.8,0c-0.3,0-0.7,0-1.1,0
			c-0.3,0-0.9,0-1.2,0c-0.2,0-0.4,0-0.5,0s-0.2,0-0.4,0v-1.6c0.6,0.1,1.2,0.2,2.2,0.2c0.5,0,0.5,0,1.8-0.1v-1.8c0-0.9,0-1.4-0.1-2.1
			h1.8c-0.1,0.6-0.1,1-0.1,2v1.8c1.5-0.1,3-0.5,4.1-0.8L175,319.1z M169.3,325.2c-1.9,1-3,2-3,2.9c0,0.4,0.3,0.8,0.8,1.2
			c0.5,0.3,1.2,0.5,1.7,0.5c0.4,0,0.4-0.2,0.4-1V325.2z M180.5,321.3c-1.1-1.5-2.5-3-4.1-4.1l1.3-0.9c1.8,1.3,2.9,2.4,4.1,4
			L180.5,321.3z"/>
		<path class="st1" d="M186.9,330.2c0,1.2,0,1.8,0.1,2.3h-1.8c0.1-0.6,0.1-1.2,0.1-2.4v-13.3c0-1,0-1.6-0.1-2.3
			c0.6,0.1,1.1,0.1,2.1,0.1h3.1c1,0,1.5,0,2.1-0.1c0,0.6-0.1,1.1-0.1,1.9v2.9c0,0.9,0,1.5,0.1,1.9c-0.6,0-1.2-0.1-2-0.1h-3.7V330.2z
			 M186.9,317.4h4.2v-1.5h-4.2V317.4z M186.9,320.1h4.2v-1.5h-4.2V320.1z M197.4,327.7c0,0.5,0,0.9,0.1,1.3c-0.4,0-0.8-0.1-1.3-0.1
			h-4.8v1.6h-1.6c0.1-0.6,0.1-1.1,0.1-1.9v-4.1c0-0.5,0-0.9-0.1-1.3c0.4,0,0.9,0.1,1.4,0.1h4.7c0.6,0,1.1,0,1.5-0.1
			c0,0.4-0.1,0.8-0.1,1.3V327.7z M191.3,327.6h4.6v-3.2h-4.6V327.6z M202,330.4c0,1.5-0.4,1.8-2.1,1.8c-0.9,0-1.2,0-2.3-0.1
			c-0.1-0.7-0.2-1-0.4-1.6c1,0.1,1.9,0.2,2.6,0.2c0.6,0,0.7-0.1,0.7-0.6v-9h-4c-0.8,0-1.5,0-2,0.1c0-0.7,0.1-1.1,0.1-1.9v-2.9
			c0-0.8,0-1.4-0.1-1.9c0.6,0.1,1.1,0.1,2.1,0.1h3.4c1,0,1.5,0,2.1-0.1c-0.1,0.7-0.1,1.4-0.1,2.3V330.4z M195.9,317.4h4.6v-1.5h-4.6
			V317.4z M195.9,320.1h4.6v-1.5h-4.6V320.1z"/>
		<path class="st1" d="M208.8,316.5c-0.1,0.7-0.1,1.4-0.1,2.6c0,2.1,0.2,4.8,0.5,6.1c0.4,2.1,1.2,3.5,1.9,3.5c0.3,0,0.7-0.3,1-1
			c0.5-1.1,0.8-2.2,1.1-3.6c0.5,0.6,0.7,0.8,1.4,1.4c-1,3.7-2,5.1-3.6,5.1c-1.2,0-2.4-1.2-3.1-3.3c-0.7-2-1-4.6-1.1-9.7
			c0-0.8,0-0.8-0.1-1.2L208.8,316.5z M218.6,317.5c2.6,3,3.8,6,4.5,10.4l-1.8,0.7c-0.3-3.8-1.8-7.5-4.2-10.3L218.6,317.5z"/>
		<path class="st1" d="M230.1,320.2c-1.5,1-2.3,1.5-3.8,2.2c-0.2-0.6-0.4-0.9-0.9-1.4c2-0.8,3.8-1.9,5.5-3.3
			c1.5-1.2,2.2-2.1,3.1-3.5h1.8c0.9,1.4,1.8,2.3,3.4,3.6c1.7,1.4,3.5,2.4,5.5,3.2c-0.4,0.5-0.6,0.9-0.9,1.5
			c-1.5-0.7-2.5-1.3-3.9-2.3v1.6c-0.4-0.1-1-0.1-1.8-0.1h-6.4c-0.6,0-1.2,0-1.6,0.1V320.2z M228.4,332.4c0.1-0.7,0.1-1.2,0.1-2v-4.6
			c0-0.8,0-1.3-0.1-1.9c0.4,0.1,0.9,0.1,1.6,0.1h9.8c0.8,0,1.2,0,1.6-0.1c-0.1,0.6-0.1,1.1-0.1,1.9v4.6c0,0.8,0,1.4,0.1,2h-1.7v-1.1
			h-9.6v1.1H228.4z M238.1,320.3c0.8,0,1.3,0,1.7-0.1c-2.2-1.6-3.6-2.9-4.9-4.7c-1.5,2-2.7,3.2-4.8,4.7c0.4,0.1,0.9,0.1,1.6,0.1
			H238.1z M230.2,329.9h9.6v-4.5h-9.6V329.9z"/>
		<path class="st1" d="M246.7,326.5c0.4-0.3,0.5-0.4,3.7-3.3c0-1.6,0-1.7,0.1-3.4c-0.3,0-0.3,0-1,0.1c-1.3,0.1-1.7,0.1-2.2,0.2
			l-0.1-1.7c0.3,0,0.4,0,0.6,0c0.3,0,1.6-0.1,2.8-0.2c0-1.2,0.1-1.8,0.1-2.7c0-0.4,0-0.5,0-0.9h1.9c-0.1,0.5-0.1,0.8-0.2,1.9
			l-0.1,1.5c0.2,0,0.3,0,0.4-0.1l0.6,0.7c-0.3,0.2-0.4,0.3-1.1,1.3c0,0.3,0,0.3,0,1.4c0,0.1,0,0.3-0.1,0.5h0
			c0.2-0.2,0.3-0.3,0.8-0.7c2-1.7,3.7-2.3,5.6-2.3c1.7,0,3.1,0.6,4.2,1.7c1,1,1.4,2.3,1.4,3.9c0,1.7-0.7,3.4-1.8,4.5
			c-1.1,1.1-2.7,1.7-4.6,1.7c-1.1,0-2.2-0.2-3.4-0.6c0-0.2,0-0.4,0-0.5c0-0.3-0.1-0.7-0.2-1.4c1.1,0.5,2.4,0.8,3.6,0.8
			c1.7,0,3.2-0.9,4-2.2c0.4-0.7,0.6-1.5,0.6-2.4c0-2.3-1.5-3.9-3.8-3.9c-1.8,0-3.8,1.1-6.3,3.3c0,1.1,0,1.3,0,2.3c0,3.2,0,5,0.1,5.8
			h-1.9c0.1-0.7,0.1-0.7,0.1-5.5c0-0.8,0-1,0-1.3h0c-0.2,0.3-0.3,0.4-1,1.1c-0.8,0.7-1.5,1.5-1.8,1.9L246.7,326.5z"/>
		<path class="st1" d="M273.1,315.4c-0.1,0.7-0.1,0.7-0.2,4.2c3.2-0.2,3.2-0.2,6.5-0.3c0-0.1,0-0.2,0-0.3c0-0.1,0-0.2,0-0.3
			c0-0.2,0-0.4,0-0.6c0-1.9,0-2.4-0.1-3.1h1.8c-0.1,0.5-0.1,0.9-0.1,1.4v1.2c0,0.1,0,0.5,0,1v0.6c2.3-0.1,3.5-0.1,4.2-0.2l0,1.7
			c-0.5,0-0.7-0.1-1.2-0.1c-0.4,0-0.9,0-3,0.1c0,1.8-0.2,3.3-0.4,4.1c-0.4,1.2-1.1,1.7-2.2,1.7c-0.8,0-1.7-0.3-2.8-0.9
			c0-0.4,0.1-0.5,0.1-0.8c0-0.3,0-0.5-0.1-0.9c1.1,0.7,2,1.1,2.7,1.1c0.6,0,0.8-0.3,1-1.2c0.1-0.8,0.2-1.5,0.2-3
			c-3.2,0.1-3.2,0.1-6.5,0.3c0,0.1,0,0.2,0,0.3c0,0,0,0.1,0,0.2c0,0.4,0,1.1,0,1.4c0,3.1,0.1,4.4,0.2,5c0.2,0.6,0.6,1,1.4,1.2
			c0.6,0.2,1.8,0.3,3.1,0.3c2.3,0,4.3-0.3,5.7-0.8l0.2,1.9c-0.3,0-0.4,0-0.9,0.1c-2.1,0.3-3.6,0.4-5.2,0.4c-3.1,0-4.8-0.6-5.5-1.8
			c-0.5-0.9-0.6-1.9-0.6-5.3c0-1.2,0-1.6,0-2.9c-2.4,0.2-3.1,0.2-4,0.4l-0.1-1.7c0.2,0,0.4,0,0.5,0c0.4,0,1.2-0.1,3.7-0.2
			c0-0.4,0-0.7,0-1c0-2.1,0-2.7-0.1-3.3H273.1z"/>
		<path class="st1" d="M291,328.4c0.4-1.5,0.5-1.9,1.1-3.3c0.1-0.2,0.1-0.3,0.2-0.5l1.3,0.6c-1,1.9-1.8,4.7-1.8,5.9
			c0,0.1,0,0.2,0,0.4l-1.8,0.1c0-0.1,0-0.2-0.1-0.8c-0.4-2.2-0.6-4.1-0.6-6.2c0-2.8,0.2-4.8,1-8.4c0.2-0.8,0.2-1.1,0.2-1.4l1.9,0.3
			c-0.9,2-1.6,6.4-1.6,9.8c0,0.5,0,1.5,0,2.4c0,0.2,0,0.2,0,0.5C290.9,328.1,290.9,328.1,291,328.4L291,328.4z M294.3,319
			c1,0.2,1.9,0.3,3.8,0.3c0.8,0,1.3,0,1.9,0c0-2,0-2,0-3.4c0-0.4,0-0.7,0-0.9h1.8c-0.1,0.5-0.1,1.5-0.1,3c0,0.3,0,0.6,0,1.1
			c1.5-0.2,2.9-0.5,3.5-0.7l0.1,1.6c-0.1,0-0.2,0-0.3,0.1c-1.1,0.2-2,0.4-3.2,0.5c0,1.9,0,2.1,0.2,5.6c1.4,0.7,2.1,1,3.3,2
			c0.2,0.2,0.3,0.2,0.5,0.3l-0.7,1.7c-0.2-0.2-0.3-0.4-0.6-0.6c-0.6-0.5-0.7-0.5-2.1-1.5c0,0-0.1,0-0.2-0.1c-0.1,0-0.1-0.1-0.2-0.1
			c0,0.2,0,0.3,0,0.4c0,0.6-0.1,1-0.2,1.4c-0.5,1.1-1.8,1.7-3.6,1.7c-2.4,0-3.9-1.2-3.9-3c0-1.8,1.7-3,4-3c0.8,0,1.6,0.1,2.1,0.4
			c-0.1-0.4-0.1-1.7-0.2-5c-1,0-1.5,0.1-2.2,0.1c-0.8,0-1.6,0-2.3-0.1c-0.3,0-0.6,0-0.6,0c-0.2,0-0.3,0-0.4,0c-0.1,0-0.2,0-0.2,0
			c0,0,0,0-0.1,0L294.3,319z M298.3,326.8c-1.5,0-2.4,0.6-2.4,1.6c0,0.9,0.9,1.5,2.2,1.5c0.8,0,1.6-0.3,1.9-0.7
			c0.2-0.3,0.3-0.7,0.3-1.4c0-0.1,0-0.6,0-0.6C299.5,327,299,326.8,298.3,326.8z"/>
		<path class="st1" d="M321,332.4c-0.4-0.5-0.6-0.8-1.8-2c-1.2,0.7-2.2,1-3.6,1c-4.4,0-7.2-3.2-7.2-8.1c0-5,2.8-8.2,7.2-8.2
			c4.4,0,7.2,3.2,7.2,8.1c0,1.5-0.2,2.7-0.7,3.9c-0.4,0.9-0.7,1.4-1.6,2.4c1,1,1.2,1.2,1.8,1.6L321,332.4z M317.5,326.4
			c0.3,0.4,0.8,0.8,1.6,1.7c0.6-0.6,0.8-1,1-1.6c0.4-1,0.6-2.1,0.6-3.4c0-2.2-0.6-4-1.7-5.1c-0.9-0.9-2.1-1.4-3.4-1.4
			c-3.2,0-5.3,2.5-5.3,6.5c0,3.9,2.1,6.5,5.3,6.5c0.9,0,1.6-0.2,2.3-0.6c-0.7-0.7-1-1-1.7-1.5L317.5,326.4z"/>
		<path class="st1" d="M335.9,331.1c-0.1-0.7-0.3-1.4-1.2-3.4c-1.2-2.8-2-3.6-3.6-3.6h-3.5v4.6c0,1.1,0,1.7,0.2,2.4h-2.2
			c0.1-0.8,0.2-1.3,0.2-2.4v-11c0-0.9,0-1.6-0.2-2.4c0.7,0,1.3,0.1,2.3,0.1h4.6c3,0,4.7,1.4,4.7,4c0,1.3-0.4,2.3-1.1,3
			c-0.6,0.5-1.1,0.8-2.2,1.1c0.8,0.3,1.3,0.8,2.1,2.2c0.5,0.9,0.9,1.9,1.6,3.4c0.3,0.7,0.7,1.5,0.9,1.9H335.9z M332.2,322.4
			c0.9,0,1.7-0.3,2.2-0.8c0.5-0.5,0.7-1.1,0.7-2c0-1.7-1-2.6-2.8-2.6h-4.7v5.4H332.2z"/>
		<path class="st1" d="M344.9,329.7c-1.4,0-1.8,0-2.4,0.1v-1.9c0.7,0.1,1.1,0.1,2.4,0.1h9.5v-9.6h-9.1c-1.3,0-1.8,0-2.5,0.1v-1.9
			c0.8,0.1,1.1,0.1,2.5,0.1h9.9c0.2,0,0.6,0,1.1,0c0,0.5,0,0.8,0,1.6v10.6c0,0.9,0,1.5,0.1,2h-2v-1.2H344.9z"/>
		<path class="st1" d="M361.6,322.2c0.7,0.1,1.4,0.1,2.8,0.1h11.5c1.6,0,2,0,2.8-0.1v2c-0.8-0.1-1.4-0.1-2.8-0.1h-11.4
			c-1.6,0-2.1,0-2.8,0.1V322.2z"/>
		<path class="st1" d="M386.3,331.8c0.1-0.7,0.1-1.2,0.1-2.4V317c0-1.2,0-1.7-0.1-2.2h2.1c-0.1,0.6-0.1,1.2-0.1,2.3v3.6
			c2.9,1,5.7,2.3,9.1,4.3l-1,1.8c-1.8-1.3-4.6-2.8-7.5-4c-0.3-0.1-0.4-0.2-0.7-0.3c0.1,0.5,0.1,0.9,0.1,1.7v5.3c0,1.1,0,1.7,0.1,2.4
			H386.3z M394.2,316c0.9,1.1,1.3,1.6,2,3l-1.2,0.6c-0.6-1.2-1.1-2-2-3L394.2,316z M396.3,315.1c0.9,1,1.3,1.6,2,2.9l-1.2,0.6
			c-0.6-1.1-1.1-2-2-3L396.3,315.1z"/>
		<path class="st1" d="M402.9,319.7c0.7,0,2.8-0.2,4.5-0.5c0.3-1.7,0.6-3.4,0.6-4.3c0,0,0-0.1,0-0.3l1.9,0.2
			c-0.1,0.4-0.2,0.8-0.4,1.9c-0.1,0.6-0.3,1.8-0.4,2.3c0.5,0,0.8-0.1,1.2-0.1c1.4,0,2.3,0.3,2.9,0.9c0.7,0.7,1,1.7,1,3.4
			c0,3.2-0.6,6-1.4,7.1c-0.5,0.7-1.1,0.9-2.1,0.9c-0.9,0-1.8-0.2-3.1-0.8c0-0.3,0-0.4,0-0.7c0-0.4,0-0.7-0.1-1.1
			c1.1,0.6,2.3,0.9,3,0.9c0.5,0,0.9-0.3,1.1-0.9c0.5-1.2,0.8-3.3,0.8-5.6c0-2.1-0.6-2.7-2.4-2.7c-0.4,0-0.8,0-1.4,0.1
			c-0.8,3.3-1.7,5.8-3,8.5c-0.3,0.6-0.7,1.4-1.3,2.6l-1.7-1c0.6-0.8,1.4-2.2,2.1-3.7c0.9-2,1.5-3.7,2.2-6.3c-2.2,0.3-3.1,0.5-4,0.7
			L402.9,319.7z M416.5,317.7c2,2.3,3.3,4.5,4.2,7.4l-1.6,0.9c-0.8-2.9-2.2-5.5-4.1-7.6L416.5,317.7z"/>
		<path class="st1" d="M428.3,318.5c-0.3,0.9-0.7,3-1,5.7c0,0.2-0.1,0.3-0.1,0.5l0,0c0.3-0.3,0.4-0.4,0.7-0.6c1.4-1,3.6-1.6,5.9-1.6
			c3.2,0,5.4,1.6,5.4,4c0,1.4-0.7,2.8-1.9,3.6c-1.3,0.9-3,1.3-5.1,1.3c-1.8,0-2.8-0.1-5.2-0.8c0-0.1,0-0.2,0-0.3v-0.2
			c0-0.4,0-0.7-0.2-1.4c1.7,0.7,3.6,1,5.3,1c3.2,0,5.3-1.3,5.3-3.3c0-1.6-1.4-2.5-3.8-2.5c-2,0-4,0.6-5.5,1.7
			c-0.3,0.3-0.5,0.4-0.8,0.9l-1.9-0.1c0.1-0.4,0.1-0.5,0.2-1.2c0.2-1.6,0.5-3.4,0.9-5.7c0.1-0.6,0.1-0.7,0.1-1.1L428.3,318.5z
			 M429,314.8c1.5,0.8,4.9,1.9,7.1,2.3l-0.7,1.7c-2.1-0.5-2.9-0.8-4.1-1.2c-1.4-0.5-1.4-0.5-3.2-1.3L429,314.8z"/>
	</g>
</g>
<g>
	<g>
		<g>
			<path class="st0" d="M55.1,162.4c-0.3-0.9-0.5-1.3-1-1.8c-0.8-0.9-2-1.4-3.4-1.4c-3.3,0-5.3,2.5-5.3,6.5c0,4,2.1,6.6,5.3,6.6
				c1.6,0,2.9-0.6,3.7-1.7c0.4-0.6,0.6-1.1,0.8-2l2.1,0.4c-0.4,1.3-0.7,2-1.2,2.7c-1.2,1.5-3.1,2.4-5.5,2.4c-2.1,0-3.8-0.6-5-1.9
				c-1.5-1.5-2.3-3.8-2.3-6.4c0-2.7,0.9-5,2.4-6.6c1.2-1.2,2.8-1.8,4.8-1.8c2,0,3.6,0.6,4.7,1.7c0.8,0.8,1.2,1.4,1.7,2.8L55.1,162.4
				z"/>
			<path class="st0" d="M70.6,173.7c-0.1-0.7-0.4-1.4-1.2-3.5c-1.2-2.8-2-3.6-3.6-3.6h-3.6v4.7c0,1.1,0,1.7,0.2,2.4h-2.3
				c0.1-0.8,0.2-1.3,0.2-2.4v-11.1c0-1,0-1.6-0.2-2.5c0.7,0,1.4,0.1,2.4,0.1h4.7c3.1,0,4.8,1.5,4.8,4.1c0,1.3-0.4,2.3-1.2,3
				c-0.6,0.6-1.1,0.8-2.2,1.1c0.8,0.3,1.3,0.8,2.1,2.3c0.5,0.9,1,2,1.6,3.5c0.3,0.7,0.7,1.5,1,2H70.6z M66.9,164.8
				c0.9,0,1.7-0.3,2.2-0.8c0.5-0.5,0.7-1.2,0.7-2c0-1.7-1-2.6-2.9-2.6h-4.8v5.5H66.9z"/>
			<path class="st0" d="M86.6,173.8c-0.7-0.1-1.3-0.1-2.4-0.1H78c-1.1,0-1.6,0-2.4,0c0.1-0.8,0.2-1.4,0.2-2.5v-11.1
				c0-1,0-1.5-0.2-2.5c0.7,0,1.3,0.1,2.4,0.1h6c1,0,1.7,0,2.4-0.1v2c-0.7-0.1-1.3-0.1-2.4-0.1h-6.3v5h5.3c1,0,1.6,0,2.4-0.1v2
				c-0.7-0.1-1.3-0.1-2.4-0.1h-5.3v5.8h6.5c1,0,1.6,0,2.4-0.1V173.8z"/>
			<path class="st0" d="M101,173.7c-0.1-0.7-0.4-1.5-0.6-2.1l-1-2.6h-7.1l-1,2.6c-0.3,0.9-0.5,1.4-0.6,2.1h-2.5
				c0.4-0.7,0.6-1.2,1.1-2.4l4.6-11.6c0.4-1,0.6-1.5,0.7-2h2.5c0.1,0.4,0.2,0.7,0.7,2l4.6,11.6c0.5,1.3,0.8,1.9,1.1,2.4H101z
				 M96.3,160.6c-0.1-0.2-0.1-0.2-0.4-1.3c-0.1,0.3-0.2,0.5-0.2,0.7c-0.1,0.3-0.2,0.5-0.2,0.6l-2.5,6.6h5.9L96.3,160.6z"/>
			<path class="st0" d="M111.9,171.2c0,1,0,1.7,0.2,2.4h-2.3c0.1-0.6,0.2-1.4,0.2-2.4v-11.8h-3.1c-1.1,0-1.8,0-2.5,0.1v-2
				c0.8,0.1,1.3,0.1,2.5,0.1h8.1c1.3,0,2,0,2.6-0.1v2c-0.7-0.1-1.4-0.1-2.6-0.1h-3V171.2z"/>
			<path class="st0" d="M130.6,173.8c-0.7-0.1-1.3-0.1-2.4-0.1H122c-1.1,0-1.6,0-2.4,0c0.1-0.8,0.2-1.4,0.2-2.5v-11.1
				c0-1,0-1.5-0.2-2.5c0.7,0,1.3,0.1,2.4,0.1h6c1,0,1.7,0,2.4-0.1v2c-0.7-0.1-1.3-0.1-2.4-0.1h-6.3v5h5.3c1,0,1.6,0,2.4-0.1v2
				c-0.7-0.1-1.3-0.1-2.4-0.1h-5.3v5.8h6.5c1,0,1.6,0,2.4-0.1V173.8z"/>
			<path class="st0" d="M134.8,170.2c0.1,0.8,0.3,1.1,0.7,1.5c0.5,0.5,1.3,0.7,2.3,0.7c1.7,0,2.8-0.7,2.8-1.9c0-0.5-0.2-1-0.6-1.2
				c-0.5-0.3-0.8-0.4-2.4-0.7c-1.6-0.3-2.3-0.6-3-1c-0.8-0.5-1.3-1.4-1.3-2.4c0-0.8,0.3-1.5,0.9-2.1c0.8-0.8,2-1.1,3.4-1.1
				c1.5,0,2.7,0.4,3.4,1.1c0.6,0.5,0.8,1,1.1,1.9l-1.9,0.3c-0.1-0.5-0.2-0.8-0.5-1.1c-0.5-0.5-1.2-0.8-2.1-0.8
				c-1.5,0-2.5,0.7-2.5,1.7c0,0.5,0.2,0.9,0.7,1.1c0.5,0.2,1,0.4,2.2,0.7c1.9,0.4,2.7,0.7,3.3,1.1c0.7,0.5,1.2,1.4,1.2,2.3
				c0,2.2-1.8,3.5-4.8,3.5c-2,0-3.4-0.6-4.2-1.7c-0.3-0.5-0.5-0.8-0.7-1.7L134.8,170.2z"/>
			<path class="st0" d="M152.2,177.9c0.1-0.8,0.1-1.5,0.1-2.4v-10.7c0-1.1,0-1.7-0.1-2.5h2v1.1c0,0.2,0,0.4,0,0.8
				c1-1.4,2.4-2.1,4.2-2.1c3.3,0,5.3,2.2,5.3,5.9c0,3.6-2.1,5.9-5.2,5.9c-1.8,0-3.2-0.7-4.3-2c0,0.6,0.1,0.9,0.1,1.4v2.2
				c0,1.1,0,1.7,0.1,2.5H152.2z M161.7,167.9c0-2.7-1.3-4.3-3.5-4.3c-2.3,0-3.9,1.8-3.9,4.3c0,1.3,0.4,2.5,1.2,3.2
				c0.7,0.7,1.7,1.1,2.8,1.1C160.4,172.3,161.7,170.6,161.7,167.9z"/>
			<path class="st0" d="M173.3,164.2c-0.8-0.2-1.2-0.3-1.7-0.3c-1.1,0-1.9,0.4-2.5,1.2c-0.5,0.6-0.7,1.1-0.8,2.1v4.1
				c0,1,0,1.6,0.1,2.4h-2.2c0.1-1,0.1-1.5,0.1-2.4v-6.5c0-1.1,0-1.7-0.1-2.4h2v1.1c0,0,0,0.1,0,0.2c0,0,0,0.1,0,0.1
				c0,0.1,0,0.2,0,0.4c0.4-0.5,0.6-0.9,1-1.1c0.7-0.6,1.7-0.9,2.7-0.9c0.6,0,1.1,0,1.9,0.2L173.3,164.2z"/>
			<path class="st0" d="M177.1,168.3c0.1,1.4,0.3,2,0.8,2.8c0.6,0.9,1.6,1.3,2.8,1.3c1.1,0,2-0.4,2.7-1.1c0.3-0.3,0.5-0.6,0.7-1.2
				l1.7,0.6c-0.4,0.9-0.7,1.3-1.2,1.8c-1,1-2.3,1.5-3.9,1.5c-3.4,0-5.5-2.3-5.5-6c0-3.6,2.1-6,5.3-6c2.8,0,4.8,1.8,5.2,4.7
				c0,0.2,0.1,0.6,0.1,1.7H177.1z M184,166.8c-0.1-1.1-0.4-1.8-1-2.4c-0.6-0.6-1.4-0.9-2.4-0.9c-1.2,0-2.2,0.6-2.9,1.7
				c-0.3,0.5-0.4,0.8-0.5,1.6H184z"/>
			<path class="st0" d="M190,170.2c0.1,0.8,0.3,1.1,0.7,1.5c0.5,0.5,1.3,0.7,2.3,0.7c1.7,0,2.8-0.7,2.8-1.9c0-0.5-0.2-1-0.6-1.2
				c-0.5-0.3-0.8-0.4-2.4-0.7c-1.6-0.3-2.3-0.6-3-1c-0.9-0.5-1.3-1.4-1.3-2.4c0-0.8,0.3-1.5,0.9-2.1c0.8-0.8,1.9-1.1,3.4-1.1
				c1.5,0,2.7,0.4,3.4,1.1c0.6,0.5,0.8,1,1.1,1.9l-2,0.3c-0.1-0.5-0.2-0.8-0.5-1.1c-0.5-0.5-1.2-0.8-2.1-0.8c-1.5,0-2.5,0.7-2.5,1.7
				c0,0.5,0.2,0.9,0.7,1.1c0.5,0.2,1,0.4,2.2,0.7c1.9,0.4,2.7,0.7,3.3,1.1c0.7,0.5,1.2,1.4,1.2,2.3c0,2.2-1.8,3.5-4.8,3.5
				c-1.9,0-3.4-0.6-4.2-1.7c-0.3-0.5-0.5-0.8-0.7-1.7L190,170.2z"/>
			<path class="st0" d="M201.6,168.3c0.1,1.4,0.3,2,0.8,2.8c0.6,0.9,1.6,1.3,2.8,1.3c1.1,0,2-0.4,2.7-1.1c0.3-0.3,0.5-0.6,0.7-1.2
				l1.7,0.6c-0.4,0.9-0.7,1.3-1.2,1.8c-1,1-2.3,1.5-3.9,1.5c-3.4,0-5.5-2.3-5.5-6c0-3.6,2.1-6,5.4-6c2.8,0,4.8,1.8,5.2,4.7
				c0,0.2,0.1,0.6,0.1,1.7H201.6z M208.4,166.8c-0.1-1.1-0.4-1.8-1-2.4c-0.6-0.6-1.4-0.9-2.4-0.9c-1.2,0-2.2,0.6-2.9,1.7
				c-0.3,0.5-0.4,0.8-0.5,1.6H208.4z"/>
			<path class="st0" d="M213,173.7c0.1-0.8,0.2-1.4,0.2-2.4v-6.5c0-1,0-1.6-0.2-2.4h2v1.2c0,0.3,0,0.4,0,0.9c1-1.6,2.3-2.3,4.2-2.3
				c1.5,0,2.7,0.5,3.4,1.5c0.4,0.6,0.6,1.5,0.6,2.5v5.1c0,1.1,0,1.7,0.1,2.4h-2.2c0.1-0.9,0.1-1.5,0.1-2.4v-4.8
				c0-1.8-0.8-2.8-2.4-2.8c-1.1,0-2,0.5-2.8,1.5c-0.6,0.7-0.8,1.2-1.1,2v4.1c0,0.9,0,1.6,0.1,2.4H213z"/>
			<path class="st0" d="M229.9,159.2c-0.1,0.7-0.1,1.5-0.1,2.4v0.7h1c1,0,1.4,0,2.1-0.1v1.8c-0.7-0.1-1.1-0.1-2.1-0.1h-1v7
				c0,0.6,0.1,0.9,0.3,1.1c0.2,0.2,0.6,0.3,1,0.3c0.6,0,1-0.1,1.6-0.5l0.5,1.7c-0.9,0.4-1.5,0.5-2.4,0.5c-1,0-1.7-0.2-2.2-0.6
				c-0.5-0.4-0.6-1.1-0.6-2.1v-7.3H227c-0.7,0-1.2,0-1.8,0.1v-1.8c0.6,0.1,1,0.1,1.9,0.1h0.8v-0.7c0-0.8-0.1-1.7-0.1-2.4H229.9z"/>
			<path class="st0" d="M236.5,170.2c0.1,0.8,0.3,1.1,0.7,1.5c0.5,0.5,1.3,0.7,2.3,0.7c1.7,0,2.8-0.7,2.8-1.9c0-0.5-0.2-1-0.6-1.2
				c-0.5-0.3-0.8-0.4-2.4-0.7c-1.6-0.3-2.3-0.6-3-1c-0.8-0.5-1.3-1.4-1.3-2.4c0-0.8,0.3-1.5,0.9-2.1c0.8-0.8,2-1.1,3.4-1.1
				c1.5,0,2.7,0.4,3.4,1.1c0.6,0.5,0.8,1,1.1,1.9l-1.9,0.3c-0.1-0.5-0.2-0.8-0.5-1.1c-0.5-0.5-1.2-0.8-2.1-0.8
				c-1.5,0-2.5,0.7-2.5,1.7c0,0.5,0.2,0.9,0.7,1.1c0.5,0.2,1,0.4,2.2,0.7c1.9,0.4,2.7,0.7,3.3,1.1c0.7,0.5,1.2,1.4,1.2,2.3
				c0,2.2-1.8,3.5-4.8,3.5c-2,0-3.4-0.6-4.2-1.7c-0.3-0.5-0.5-0.8-0.7-1.7L236.5,170.2z"/>
			<path class="st0" d="M253.1,171.2c0,1,0,1.7,0.2,2.4H251c0.1-0.6,0.2-1.4,0.2-2.4v-11.8h-3.1c-1.1,0-1.8,0-2.5,0.1v-2
				c0.8,0.1,1.3,0.1,2.5,0.1h8.1c1.3,0,1.9,0,2.6-0.1v2c-0.7-0.1-1.4-0.1-2.6-0.1h-3V171.2z"/>
			<path class="st0" d="M270.6,167.2c-1.1,0-1.6,0-2.1,0.1v-2c0.6,0.1,1.1,0.1,2.3,0.1h0.7c1.1,0,1.7,0,2.3-0.1
				c-0.1,0.9-0.1,1.4-0.1,2.4v2c0,1,0,1.5,0.1,2.4c-2.2,1.3-3.7,1.7-6,1.7c-2.2,0-3.9-0.6-5.2-1.8c-1.5-1.5-2.3-3.8-2.3-6.5
				c0-5,2.9-8.3,7.4-8.3c1.9,0,3.5,0.5,4.6,1.6c0.7,0.7,1.1,1.3,1.5,2.4l-2,0.6c-0.7-2-2-2.8-4.3-2.8c-3.2,0-5.2,2.5-5.2,6.5
				c0,2.2,0.6,4,1.7,5.1c0.9,1,2.2,1.5,3.8,1.5c1.6,0,2.8-0.4,4-1.1v-3.9H270.6z"/>
			<path class="st0" d="M288.1,162.4c-0.3-0.9-0.5-1.3-1-1.8c-0.8-0.9-2-1.4-3.4-1.4c-3.3,0-5.3,2.5-5.3,6.5c0,4,2.1,6.6,5.3,6.6
				c1.6,0,2.9-0.6,3.7-1.7c0.4-0.6,0.6-1.1,0.8-2l2.1,0.4c-0.4,1.3-0.7,2-1.2,2.7c-1.2,1.5-3.1,2.4-5.5,2.4c-2.1,0-3.8-0.6-5-1.9
				c-1.5-1.5-2.3-3.8-2.3-6.4c0-2.7,0.9-5,2.4-6.6c1.2-1.2,2.8-1.8,4.8-1.8c2,0,3.6,0.6,4.7,1.7c0.8,0.8,1.2,1.4,1.7,2.8
				L288.1,162.4z"/>
			<path class="st0" d="M311.5,171.3c1.2,1.6,1.4,1.8,2,2.4h-2.8c-0.3-0.6-0.7-1.2-1.2-1.9l-4.7-6.2l-2.4,2.3v3.3
				c0,1.1,0,1.6,0.2,2.4h-2.3c0.1-0.8,0.2-1.4,0.2-2.4v-11.1c0-1,0-1.6-0.2-2.4h2.3c-0.1,0.7-0.2,1.4-0.2,2.4v5.5l6-6.1
				c0.8-0.8,1.1-1.2,1.5-1.8h2.9c-0.7,0.7-1,1-2.2,2.2l-4.5,4.5L311.5,171.3z"/>
			<path class="st0" d="M317.9,157.7c-0.1,0.7-0.2,1.5-0.2,2.4v11.1c0,1,0,1.7,0.2,2.4h-2.3c0.1-0.8,0.2-1.3,0.2-2.4v-11.1
				c0-1.1,0-1.7-0.2-2.4H317.9z"/>
			<path class="st0" d="M327.6,171.2c0,1,0,1.7,0.2,2.4h-2.3c0.1-0.6,0.2-1.4,0.2-2.4v-11.8h-3.1c-1.1,0-1.8,0-2.5,0.1v-2
				c0.8,0.1,1.3,0.1,2.5,0.1h8.1c1.3,0,1.9,0,2.6-0.1v2c-0.7-0.1-1.4-0.1-2.6-0.1h-3V171.2z"/>
			<path class="st0" d="M346.9,173.7c-0.1-0.7-0.4-1.5-0.6-2.1l-1-2.6h-7.1l-1,2.6c-0.3,0.9-0.5,1.4-0.6,2.1H334
				c0.4-0.7,0.6-1.2,1.1-2.4l4.6-11.6c0.4-1,0.6-1.5,0.7-2h2.5c0.1,0.4,0.2,0.7,0.7,2l4.6,11.6c0.5,1.3,0.8,1.9,1.1,2.4H346.9z
				 M342.1,160.6c-0.1-0.2-0.1-0.2-0.4-1.3c-0.1,0.3-0.2,0.5-0.2,0.7c-0.1,0.3-0.2,0.5-0.2,0.6l-2.5,6.6h5.9L342.1,160.6z"/>
			<path class="st0" d="M362.7,171.3c1.2,1.6,1.4,1.8,2,2.4h-2.8c-0.3-0.6-0.7-1.2-1.2-1.9l-4.7-6.2l-2.4,2.3v3.3
				c0,1.1,0,1.6,0.2,2.4h-2.3c0.1-0.8,0.2-1.4,0.2-2.4v-11.1c0-1,0-1.6-0.2-2.4h2.3c-0.1,0.7-0.2,1.4-0.2,2.4v5.5l6-6.1
				c0.8-0.8,1.1-1.2,1.5-1.8h2.9c-0.7,0.7-1,1-2.2,2.2l-4.5,4.5L362.7,171.3z"/>
			<path class="st0" d="M371.4,173.7c0.1-0.8,0.2-1.4,0.2-2.4V167l-4.8-7.4c-0.4-0.6-0.8-1.3-1.3-1.9h2.7c0.2,0.5,0.4,1,1,2l3.4,5.6
				l3.4-5.6c0.6-0.9,0.8-1.4,1-2h2.7c-0.3,0.4-0.8,1.1-1.3,1.9l-4.8,7.5v4.2c0,1,0,1.7,0.2,2.4H371.4z"/>
			<path class="st0" d="M395,157.7c-0.1,0.7-0.2,1.4-0.2,2.5v7.6c0,1.9-0.6,3.4-1.6,4.5c-1.1,1.1-2.8,1.7-4.9,1.7
				c-4.1,0-6.4-2.2-6.4-6.2v-7.6c0-1.1,0-1.8-0.2-2.5h2.3c-0.1,0.7-0.2,1.3-0.2,2.5v7.5c0,2.9,1.6,4.6,4.5,4.6s4.5-1.6,4.5-4.6v-7.5
				c0-1.1,0-1.8-0.2-2.5H395z"/>
			<path class="st0" d="M400,168.9c0.1,1,0.2,1.4,0.6,2c0.7,0.9,1.9,1.4,3.4,1.4c2.3,0,3.8-1.1,3.8-2.9c0-1-0.4-1.7-1.2-2.1
				c-0.7-0.4-0.8-0.4-3.5-1c-1.3-0.3-2.2-0.6-2.9-1.1c-1.2-0.7-1.8-1.8-1.8-3.3c0-2.7,2.2-4.4,5.5-4.4c2.1,0,3.8,0.7,4.8,2
				c0.5,0.6,0.7,1.2,0.9,2.2l-2.1,0.3c-0.1-0.8-0.3-1.2-0.7-1.6c-0.6-0.7-1.7-1.1-2.9-1.1c-2.1,0-3.5,1.1-3.5,2.7
				c0,1,0.6,1.8,1.7,2.2c0.5,0.2,0.6,0.2,3,0.7c1.6,0.3,2.6,0.7,3.3,1.3c1,0.8,1.5,1.8,1.5,3.2c0,3-2.1,4.7-5.8,4.7
				c-2.3,0-4.1-0.7-5.1-1.9c-0.6-0.8-0.8-1.5-1.1-2.9L400,168.9z"/>
			<path class="st0" d="M426,157.7c-0.1,0.8-0.2,1.3-0.2,2.4v11.2c0,1.1,0,1.6,0.2,2.4h-2.3c0.1-0.8,0.2-1.4,0.2-2.4v-5.1h-9.1v5.1
				c0,1.1,0,1.7,0.2,2.4h-2.3c0.1-0.7,0.2-1.3,0.2-2.4v-11.1c0-1.1,0-1.7-0.2-2.4h2.3c-0.1,0.8-0.2,1.4-0.2,2.4v4.3h9.1v-4.3
				c0-1,0-1.7-0.2-2.4H426z"/>
			<path class="st0" d="M442.7,157.7c-0.1,0.7-0.2,1.4-0.2,2.5v7.6c0,1.9-0.6,3.4-1.6,4.5c-1.1,1.1-2.8,1.7-4.9,1.7
				c-4.1,0-6.4-2.2-6.4-6.2v-7.6c0-1.1,0-1.8-0.2-2.5h2.3c-0.1,0.7-0.2,1.3-0.2,2.5v7.5c0,2.9,1.6,4.6,4.5,4.6
				c2.9,0,4.5-1.6,4.5-4.6v-7.5c0-1.1,0-1.8-0.2-2.5H442.7z"/>
			<path class="st0" d="M455.2,173.7c-1.4,0-1.7,0-2.4,0.1c0.2-1.6,0.3-1.9,0.6-2.7c0.5-1.4,1.4-2.6,2.7-3.7c0.7-0.6,1.2-1,3.2-2.3
				c2-1.3,2.7-2.2,2.7-3.5c0-1.5-1.3-2.5-3.2-2.5c-1.3,0-2.3,0.4-2.9,1.3c-0.4,0.5-0.5,1-0.7,2.1l-2.1-0.3c0.3-1.5,0.6-2.3,1.3-3.1
				c1-1.1,2.4-1.7,4.4-1.7c3.2,0,5.3,1.6,5.3,4.2c0,1-0.4,1.9-1,2.7c-0.7,0.8-1.2,1.2-3.5,2.8c-2.7,1.8-3.8,3-4.3,4.9h6.4
				c1.1,0,2,0,2.7-0.1v2c-0.9-0.1-1.6-0.1-2.7-0.1H455.2z"/>
			<path class="st0" d="M468.8,172.4c-0.6-0.6-1-1.2-1.3-2c-0.5-1.5-0.8-3.1-0.8-4.8c0-2.2,0.5-4.5,1.2-5.7c1-1.7,2.7-2.7,4.8-2.7
				c1.6,0,3,0.5,4,1.5c0.6,0.6,1,1.3,1.3,2c0.5,1.5,0.8,3.1,0.8,4.8c0,2.5-0.6,4.7-1.5,6c-1.1,1.5-2.6,2.2-4.6,2.2
				C471.2,174,469.9,173.5,468.8,172.4z M470.3,160.2c-0.4,0.5-0.7,1-0.9,1.5c-0.4,1.2-0.6,2.6-0.6,4c0,1.9,0.4,3.9,1,4.8
				c0.7,1.2,1.7,1.7,3.1,1.7c1,0,1.9-0.3,2.5-1c0.4-0.5,0.8-1,1-1.6c0.4-1.2,0.6-2.6,0.6-4c0-1.8-0.4-3.8-0.9-4.7
				c-0.7-1.2-1.7-1.9-3.2-1.9C471.7,159.1,470.9,159.4,470.3,160.2z"/>
			<path class="st0" d="M483.6,173.7c-1.4,0-1.7,0-2.4,0.1c0.2-1.6,0.3-1.9,0.6-2.7c0.5-1.4,1.4-2.6,2.7-3.7c0.7-0.6,1.2-1,3.2-2.3
				c2-1.3,2.7-2.2,2.7-3.5c0-1.5-1.3-2.5-3.2-2.5c-1.3,0-2.3,0.4-2.9,1.3c-0.4,0.5-0.5,1-0.7,2.1l-2.1-0.3c0.3-1.5,0.6-2.3,1.3-3.1
				c1-1.1,2.4-1.7,4.4-1.7c3.2,0,5.3,1.6,5.3,4.2c0,1-0.4,1.9-1,2.7c-0.7,0.8-1.2,1.2-3.5,2.8c-2.7,1.8-3.8,3-4.3,4.9h6.4
				c1.1,0,2,0,2.7-0.1v2c-0.9-0.1-1.6-0.1-2.7-0.1H483.6z"/>
			<path class="st0" d="M497.3,169.6c0.3,1,0.6,1.5,1.2,1.9c0.7,0.5,1.6,0.8,2.6,0.8c2.3,0,3.8-1.2,3.8-3.1c0-2-1.4-3-4.1-3
				c-0.6,0-1.1,0-1.8,0.1v-1.9c0.5,0.1,1,0.1,1.6,0.1c1.3,0,2.3-0.3,2.9-0.9c0.5-0.5,0.8-1.2,0.8-2c0-1.6-1.2-2.6-3.2-2.6
				c-1.2,0-2.1,0.4-2.7,1.1c-0.3,0.4-0.4,0.7-0.6,1.4l-2.1-0.4c0.4-1.1,0.6-1.6,1.2-2.2c1-1,2.4-1.5,4.3-1.5c3.1,0,5.1,1.6,5.1,4.2
				c0,1.3-0.5,2.4-1.5,3c-0.5,0.4-1,0.5-1.9,0.7c1.4,0.2,2.2,0.5,2.9,1.3c0.7,0.7,1,1.6,1,2.8c0,1.1-0.4,2.2-1.2,3
				c-1,1-2.6,1.6-4.6,1.6c-2.2,0-3.8-0.6-4.8-1.8c-0.5-0.6-0.7-1-1.1-2.1L497.3,169.6z"/>
			<path class="st0" d="M59.8,242.8c-1.6-2-4.1-4.4-6.5-6.3c-1.4,1.6-2.4,2.5-3.9,3.6c-1.4,1-2.5,1.7-4,2.5c-0.4-0.7-0.6-1-1.2-1.6
				c2.7-1.1,4.8-2.5,6.9-4.6c1.9-2,3.6-4.4,4.6-6.8c0.1-0.1,0.1-0.2,0.1-0.3c0-0.1,0-0.1,0.1-0.2c-0.2,0-0.2,0-7.1,0.1
				c-1.1,0-1.6,0.1-2.4,0.2l-0.1-2c0.6,0.1,1.1,0.1,2,0.1c0.1,0,0.3,0,0.5,0l7.2-0.1c0.8,0,1.1,0,1.5-0.2l1,1
				c-0.2,0.3-0.4,0.5-0.6,1c-1.1,2.4-2,4-3.3,5.8c2.6,1.9,4.5,3.6,6.9,6.1L59.8,242.8z"/>
			<path class="st0" d="M74.8,233.7c0,0.7-0.1,1.5-0.3,2.4c-0.4,2.3-1.3,4-2.8,5.2c-0.9,0.8-1.9,1.4-3.6,2.1c-0.4-0.7-0.6-1-1.2-1.6
				c2.7-0.8,4.3-2.1,5.2-3.9c0.5-1,0.8-2.5,0.9-4.1h-5.4c-1.2,0-1.8,0-2.5,0.1v-1.9c0.8,0.1,1.4,0.1,2.6,0.1h11.9
				c1.2,0,1.8,0,2.6-0.1v1.9c-0.7-0.1-1.5-0.1-2.6-0.1H74.8z M67.1,226.8c0.7,0.1,1.2,0.1,2.6,0.1h7.8c1.4,0,1.9,0,2.6-0.1v1.9
				c-0.6-0.1-1.5-0.1-2.6-0.1h-7.9c-1.2,0-1.9,0-2.5,0.1V226.8z"/>
			<path class="st0" d="M85.6,233.5c0.7,0.1,1.4,0.1,2.9,0.1h11.7c1.7,0,2.1,0,2.8-0.1v2.1c-0.8-0.1-1.4-0.1-2.8-0.1H88.5
				c-1.6,0-2.2,0-2.9,0.1V233.5z"/>
			<path class="st0" d="M108.2,231.5c2,0.8,3.6,1.6,5.3,2.7l-0.9,1.7c-1.6-1.1-3.4-2.1-5.4-2.9L108.2,231.5z M107.5,240.9
				c1.4,0,3.6-0.5,5.7-1.3c2.5-1,4.5-2.4,6.1-4.6c1.2-1.5,1.8-2.8,2.5-4.6c0.6,0.6,0.8,0.8,1.6,1.3c-1.8,4.3-4.4,7.2-8,9
				c-1.5,0.7-3.7,1.5-5.4,1.8c-0.4,0.1-0.7,0.1-1.1,0.2c-0.4,0.1-0.5,0.1-0.8,0.2L107.5,240.9z M109.8,226.5c2,0.8,3.5,1.5,5.2,2.6
				l-1,1.6c-1.6-1.1-3.6-2.2-5.2-2.8L109.8,226.5z M120.9,226.1c0.9,1,1.3,1.6,2,2.8l-1.2,0.6c-0.6-1.2-1.2-1.9-2-2.9L120.9,226.1z
				 M123,225.1c0.8,0.9,1.4,1.6,2,2.8l-1.2,0.7c-0.6-1.2-1.1-1.9-2-2.8L123,225.1z"/>
			<path class="st0" d="M129.9,239.7c0.2-1.2,0.5-2.2,1.2-3.8l1.2,0.6c-1,2.2-1.7,4.6-1.7,5.8c0,0.1,0,0.2,0,0.4l-1.8,0.1
				c0-0.3-0.1-0.5-0.1-0.9c-0.4-2.3-0.5-3.8-0.5-5.9c0-2.9,0.2-5.1,0.9-8.2c0.2-1,0.2-1.2,0.3-1.8l2,0.3c-0.4,1-0.7,2.5-1,4.1
				c-0.3,1.8-0.5,4-0.5,6.3c0,0.4,0,1.4,0,2C129.9,239.3,129.9,239.4,129.9,239.7L129.9,239.7z M136.7,234.8c-1.1,1.2-1.6,2.1-1.6,3
				c0,1.4,1.3,2.1,3.8,2.1c1.9,0,3.6-0.3,4.8-0.7l0.2,1.9c-0.3,0-0.3,0-0.7,0.1c-1.5,0.3-2.9,0.4-4.3,0.4c-2.4,0-4-0.5-4.9-1.6
				c-0.4-0.5-0.6-1.2-0.6-2c0-1.2,0.6-2.4,1.8-3.9L136.7,234.8z M133.8,228.5c1,0.2,1.9,0.3,3.5,0.3c2.4,0,4.4-0.2,5.7-0.6l0.1,1.8
				c-0.1,0-0.5,0.1-1.4,0.2c-1.3,0.2-2.9,0.3-4.4,0.3c-1.1,0-1.7,0-2.8-0.1c-0.1,0-0.1,0-0.4,0c-0.1,0-0.2,0-0.3,0L133.8,228.5z"/>
			<path class="st0" d="M150.6,234.6c-1.3,0-1.8,0-2.6,0.1v-1.8c0.8,0.1,1.3,0.1,2.6,0.1h4v-4.1h-2.8c-1.3,0-1.8,0-2.6,0.1v-1.8
				c0.7,0.1,1.2,0.1,2.6,0.1h9.3c1.3,0,1.8,0,2.6-0.1v1.8c-0.7-0.1-1.3-0.1-2.6-0.1h-4.7v4.1h6c1.3,0,1.8,0,2.6-0.1v1.8
				c-0.7-0.1-1.4-0.1-2.5-0.1h-6.1v3.9c0,1.4,0.1,1.7,0.7,2c0.5,0.2,1.3,0.3,2.5,0.3c0.6,0,1.8-0.1,3-0.2c0.8-0.1,1.1-0.1,1.8-0.3
				l0,1.9c-0.1,0-0.2,0-0.3,0c-0.2,0-0.4,0-0.8,0c-1.6,0.1-2.7,0.2-4.1,0.2c-3.8,0-4.7-0.6-4.7-3.3v-4.4H150.6z"/>
			<path class="st0" d="M178.5,233.7c0,0.7-0.1,1.5-0.3,2.4c-0.4,2.3-1.3,4-2.8,5.2c-0.9,0.8-1.9,1.4-3.6,2.1
				c-0.4-0.7-0.6-1-1.2-1.6c2.7-0.8,4.3-2.1,5.2-3.9c0.5-1,0.8-2.5,0.8-4.1h-5.4c-1.2,0-1.8,0-2.5,0.1v-1.9c0.8,0.1,1.4,0.1,2.6,0.1
				h11.9c1.2,0,1.8,0,2.6-0.1v1.9c-0.7-0.1-1.5-0.1-2.6-0.1H178.5z M170.8,226.8c0.7,0.1,1.2,0.1,2.6,0.1h6.3c1.4,0,1.9,0,2.6-0.1
				v1.9c-0.6-0.1-1.5-0.1-2.6-0.1h-6.3c-1.2,0-1.9,0-2.5,0.1V226.8z M184,230.9c-0.4-1.2-0.8-2-1.6-3l1.2-0.5c0.7,1,1.1,1.7,1.6,3
				L184,230.9z M186.1,230c-0.4-1.2-0.8-1.9-1.5-2.9l1.2-0.5c0.7,1,1.1,1.7,1.6,2.9L186.1,230z"/>
			<path class="st0" d="M195.1,226.6c-0.1,0.5-0.1,0.5-0.1,1.8c-0.2,5.7-0.3,7.3-1.1,9.4c-0.7,2-1.7,3.4-3.6,5.2
				c-0.5-0.7-0.8-0.9-1.5-1.4c1.7-1.3,2.7-2.8,3.4-4.8c0.6-1.8,0.9-4.5,0.9-8.7c0-1,0-1.1-0.1-1.6L195.1,226.6z M200.3,226.4
				c-0.1,0.6-0.1,0.9-0.1,2.2l-0.1,12c1.6-0.7,2.6-1.3,3.6-2.4c1.1-1.2,1.8-2.5,2.3-4c0.5,0.7,0.7,0.9,1.4,1.4
				c-1.1,2.4-2.4,4.2-4.3,5.4c-0.9,0.6-1.7,1-2.9,1.5c-0.2,0.1-0.5,0.2-0.7,0.2c-0.2,0.1-0.3,0.1-0.5,0.2l-1-1.1
				c0.1-0.4,0.1-0.7,0.1-1.6l0.1-11.7c0-0.2,0-0.3,0-0.5c0-0.8,0-1.3-0.1-1.7L200.3,226.4z"/>
			<path class="st0" d="M216.7,225.7c0.1,1.4,0.8,4.7,1.5,6.8c1.3-0.5,1.3-0.5,4.9-1.8c0.9-0.3,1-0.4,1.4-0.6l0.7,1.9
				c-1.6,0.3-4.1,1.1-6.4,2c-1.6,0.6-2.9,1.4-3.8,2.1c-0.7,0.6-1.1,1.4-1.1,2.2c0,1.1,0.7,1.8,2,2.1c0.7,0.2,2.1,0.3,3.5,0.3
				c2.4,0,4.8-0.3,6.1-0.7l0.2,2.1c-0.4,0-0.4,0-1.6,0.1c-2.2,0.2-3.2,0.3-4.7,0.3c-2.7,0-4.3-0.3-5.6-1c-1.1-0.6-1.7-1.8-1.7-3.2
				c0-1.3,0.7-2.5,1.8-3.5c0.8-0.7,1.5-1.1,2.7-1.7c-0.6-1.7-1-3.3-1.5-5.7c-0.2-0.9-0.2-1-0.3-1.3L216.7,225.7z"/>
			<path class="st0" d="M236,226.2c-0.1,0.5-0.2,1.1-0.2,2.6c-0.1,1.5-0.2,6.5-0.2,7.9c0,1.9,0.1,2.7,0.6,3.4c0.5,0.8,1.6,1.2,3,1.2
				c2.3,0,4.2-1.3,5.3-3.6c0.5-1,0.7-1.9,1-3.3c0.7,0.6,1,0.8,1.8,1.2c-0.8,2.5-1.4,3.8-2.3,4.9c-1.5,1.7-3.5,2.6-5.9,2.6
				c-1.4,0-2.7-0.3-3.5-0.9c-0.7-0.5-1.3-1.3-1.5-2.2c-0.2-0.6-0.3-1.6-0.3-2.7c0-1.3,0-1.9,0.2-8.4c0-0.6,0-1.1,0-1.4
				c0-0.5,0-0.7-0.1-1.2L236,226.2z"/>
			<path class="st0" d="M251.8,228.5c0.4,0,0.6,0,0.7,0c0.3,0,0.6,0,1.2-0.1c2.9-0.2,8.6-0.5,12-0.7c1.3,0,2.1-0.1,2.4-0.2l0.1,1.8
				c-0.1,0-0.2,0-0.2,0c-1.7,0-3.6,0.7-5.3,1.8c-2.1,1.4-3.3,3.3-3.3,5.3c0,1.8,1,3.1,3.1,3.8c1,0.3,2.1,0.5,3.1,0.5l-0.3,2
				c-0.2-0.1-0.3-0.1-0.7-0.1c-2.1-0.4-3.4-0.7-4.6-1.5c-1.6-1-2.5-2.6-2.5-4.5c0-3,2.1-5.7,5.6-7.3c-1.3,0.2-2.3,0.3-4.6,0.5
				c-4,0.3-5.7,0.4-6.8,0.7L251.8,228.5z"/>
			<path class="st0" d="M280.1,227.2c0-1,0-1.4-0.1-1.9h1.9c-0.1,0.6-0.1,1-0.1,1.9v5.1h5.2v-3.8c0-0.6,0-1-0.1-1.5h1.8
				c-0.1,0.6-0.1,1-0.1,1.6v4.1c0,0.5,0,0.8,0,1.1c-0.5,0-0.9,0-1.3,0h-5.5v7.4h5.9v-3.8c0-0.7,0-1.3-0.1-1.8h1.8
				c-0.1,0.5-0.1,1.1-0.1,1.9v4.6c0,0.8,0,1.3,0.1,1.8h-1.8v-1.2h-13.1v1.2h-1.8c0.1-0.5,0.1-1.1,0.1-1.8v-4.5c0-0.8,0-1.3-0.1-1.9
				h1.8c-0.1,0.5-0.1,1-0.1,1.8v3.7h5.6v-7.4H275c-0.5,0-0.8,0-1.3,0c0-0.4,0-0.8,0-1.1v-4.1c0-0.6,0-1.1-0.1-1.7h1.8
				c-0.1,0.4-0.1,0.9-0.1,1.6v3.8h4.8V227.2z"/>
			<path class="st0" d="M293,230.5c1.4,0.8,2.2,1.5,3.5,2.5l-1,1.4c-1.1-1.1-1.9-1.8-3.4-2.7L293,230.5z M296.8,237.3
				c-0.8,2.3-1.7,4.3-2.7,6c-0.2,0.3-0.2,0.3-0.2,0.5l-1.4-1.2c1.1-1.3,2.1-3.2,3.1-6.2L296.8,237.3z M294.3,225.3
				c1.3,0.9,2.1,1.6,3.2,2.8l-1,1.3c-1-1.2-1.8-1.9-3.2-2.9L294.3,225.3z M302.9,241.4c-1.7,1.4-2.8,1.9-5.2,2.6
				c-0.2-0.5-0.5-0.9-1-1.3c2.4-0.5,3.7-1.1,5.1-2.2L302.9,241.4z M303.4,226.6c0-0.6,0-1.1-0.1-1.5h1.7c-0.1,0.4-0.1,0.8-0.1,1.5
				v0.4h3.6c1.1,0,1.8,0,2.3-0.1c0,0.5-0.1,0.7-0.1,1.4v0.6c0,0.6,0,1,0.1,1.4h-1.4v0.9c-0.5-0.1-1.1-0.1-1.9-0.1h-2.7v1.6h3.4
				c0.9,0,1.3,0,1.8-0.1c-0.1,0.5-0.1,1-0.1,1.9v3.8c0,0.8,0,1.4,0.1,1.9c-0.5-0.1-1.2-0.1-2-0.1h-7.7c-0.8,0-1.3,0-1.9,0.1
				c0-0.6,0.1-1,0.1-1.8v-3.9c0-0.8,0-1.4-0.1-1.8c0.3,0.1,1,0.1,1.8,0.1h3.2V231H301c-0.8,0-1.3,0-1.8,0.1v-0.9h-1.4
				c0-0.4,0.1-0.8,0.1-1.2v-0.8c0-0.6,0-1-0.1-1.3c0.4,0,1.2,0.1,2.1,0.1h3.5V226.6z M309.3,228.3h-10v1.4c0.4,0.1,1,0.1,1.7,0.1
				h6.6c0.7,0,1.2,0,1.7-0.1V228.3z M300,233.9v1.8h3.5v-1.8H300z M300,236.9v1.9h3.5v-1.9H300z M304.9,235.7h3.7v-1.8h-3.7V235.7z
				 M304.9,238.8h3.7v-1.9h-3.7V238.8z M306.4,240.4c0.9,0.7,1.3,1,2.3,1.3c0.9,0.4,1.6,0.6,2.8,0.9c-0.4,0.5-0.6,0.8-0.9,1.4
				c-2.3-0.7-3.6-1.3-5.3-2.6L306.4,240.4z"/>
			<path class="st0" d="M314,228.5c0.4,0,0.6,0,0.7,0c0.3,0,0.6,0,1.2-0.1c2.9-0.2,8.6-0.5,12-0.7c1.3,0,2.1-0.1,2.4-0.2l0.1,1.8
				c-0.1,0-0.2,0-0.2,0c-1.7,0-3.6,0.7-5.3,1.8c-2.1,1.4-3.3,3.3-3.3,5.3c0,1.8,1,3.1,3.1,3.8c1,0.4,2.1,0.5,3.1,0.5l-0.3,2
				c-0.2-0.1-0.3-0.1-0.7-0.1c-2.1-0.4-3.4-0.8-4.6-1.5c-1.6-1-2.5-2.6-2.5-4.5c0-3,2.1-5.7,5.6-7.3c-1.3,0.2-2.3,0.3-4.6,0.5
				c-4,0.3-5.7,0.4-6.8,0.7L314,228.5z M328.5,234.6c-0.6-1.2-1.1-2-1.8-2.9l1.2-0.6c0.8,0.9,1.2,1.6,1.9,2.8L328.5,234.6z
				 M330.6,233.5c-0.6-1.1-1.1-2-1.8-2.8l1.1-0.6c0.8,0.9,1.2,1.6,1.9,2.8L330.6,233.5z"/>
			<path class="st0" d="M336,228.8c0.5,0,0.9,0.1,1.7,0.1c1.7,0,3.2-0.1,4.7-0.3c-0.4-1.1-1-2.4-1.2-2.7l1.8-0.3
				c0.1,0.6,0.5,1.5,1,2.8c2.2-0.3,4.3-0.8,5.6-1.3l0.1,1.6c-1.6,0.4-4.1,1-5.2,1.1c0.4,0.8,0.8,1.6,1.1,2.1
				c2.7-0.6,3.9-0.9,4.8-1.3l0.2,1.7c-0.5,0.1-0.5,0.1-2.7,0.6c-0.3,0.1-0.7,0.1-1.6,0.3c1.2,1.9,1.5,2.4,2.9,4l-1.4,1
				c-1.3-0.7-2.7-0.9-5-0.9c-2.9,0-4.7,0.8-4.7,2.2c0,1.3,1.5,2,4.3,2c2.2,0,5-0.6,6.2-1.4l0.3,1.9c-0.4,0.1-0.4,0.1-1.3,0.4
				c-1.7,0.5-3.5,0.7-5.3,0.7c-2.1,0-3.4-0.3-4.5-0.9c-1-0.6-1.6-1.6-1.6-2.7c0-1.1,0.6-2,1.7-2.7c1.1-0.7,2.7-1,4.7-1
				c1.6,0,2.7,0.2,4,0.6c-0.5-0.6-1.3-1.6-2-2.9c-1.8,0.3-3.7,0.5-7.3,0.6c-1,0-1.1,0-1.5,0.1l0-1.7c0.5,0.1,0.9,0.1,1.8,0.1
				c2.1,0,4.8-0.2,6.3-0.5c-0.5-0.9-0.5-0.9-1.1-2.2c-1.8,0.2-3.3,0.3-5.6,0.4c-0.9,0-0.9,0-1.3,0L336,228.8z"/>
			<path class="st0" d="M358.4,226.8c0.6,0.1,1,0.1,2.1,0.1c1.7,0,4.5-0.1,6.3-0.3c0.6,0,0.8-0.1,1.1-0.2l1,1.3
				c-0.3,0.2-0.4,0.2-1.1,0.9c-2.8,2.7-5.3,4.8-6.7,5.7l0,0.1c1.7-0.8,3.1-1.2,4.9-1.2c3.5,0,5.7,1.7,5.7,4.4c0,3.3-3,5.5-7.6,5.5
				c-2,0-3.4-0.5-4.2-1.3c-0.4-0.4-0.6-1.1-0.6-1.7c0-1.5,1.3-2.6,3.2-2.6c1.4,0,2.6,0.6,3.5,1.7c0.4,0.6,0.6,1,0.9,2
				c0.8-0.2,1.2-0.4,1.7-0.8c0.9-0.6,1.4-1.6,1.4-2.7c0-1.9-1.6-3-4.4-3c-3.1,0-6.3,1.3-8.7,3.5l-1.1-1.6c1.8-1,6.5-4.9,9.6-8
				c0.1-0.1,0.1-0.1,0.2-0.2c0.1-0.1,0.1-0.1,0.2-0.2l0,0c-0.1,0-0.1,0-0.2,0c-0.8,0.1-3.1,0.2-6.1,0.4c-0.4,0-0.6,0-1.1,0.1
				L358.4,226.8z M362.5,238.9c-0.9,0-1.5,0.5-1.5,1.2c0,1,1.1,1.6,2.9,1.6c0.5,0,0.7,0,1.4-0.1
				C364.9,239.8,363.9,238.9,362.5,238.9z"/>
			<path class="st0" d="M383.8,227c0-0.7,0-1.3-0.1-1.8h2c-0.1,0.4-0.1,1-0.1,1.8v1.5h6.2c1.1,0,1.8,0,2.4-0.1v1.8
				c-0.6-0.1-1.2-0.1-2.4-0.1H384c-0.1,1.3-0.1,1.7-0.3,2.8h5.7c1.1,0,1.6,0,2.2-0.1c-0.1,0.5-0.1,0.5-0.1,1.5
				c-0.1,2.7-0.4,5.6-0.8,7.1c-0.5,1.9-1,2.3-2.8,2.3c-0.7,0-1.7-0.1-2.8-0.2c-0.1-0.8-0.1-1.1-0.4-1.7c1.2,0.2,2.2,0.3,3.1,0.3
				c0.9,0,1.1-0.2,1.4-1.7c0.3-1.6,0.5-3.2,0.6-6h-6.3c-0.5,2.3-1,3.7-2,5.2c-0.7,1-1.6,2-2.7,2.9c-0.6,0.5-1.1,0.8-2.1,1.5
				c-0.4-0.6-0.6-0.9-1.2-1.4c1.8-0.9,3-1.8,4.1-3.3c1.7-2.2,2.5-4.9,2.7-9.2h-4.1c-1,0-1.8,0-2.4,0.1v-1.8c0.7,0.1,1.4,0.1,2.4,0.1
				h5.7V227z"/>
			<path class="st0" d="M43.1,269.7c0.6-1.9,0.8-3.3,0.9-5.4l1.3,0.2c-0.1,2.3-0.4,3.9-1,5.7L43.1,269.7z M45.8,279.3
				c0.1-0.7,0.1-1.6,0.1-2.4v-14.5c0-0.8,0-1.5-0.1-2.1h1.8c-0.1,0.7-0.1,1.3-0.1,2.1v14.6c0,0.9,0,1.6,0.1,2.3H45.8z M48.8,267.4
				c-0.2-1.4-0.4-2-0.9-3.2l1.1-0.4c0.4,0.8,0.7,1.9,1,3.1L48.8,267.4z M52,266.2c-0.5,1.5-0.9,2.4-1.8,3.8
				c-0.5-0.4-0.5-0.4-1.4-0.8c1.2-1.6,1.8-3.3,2.3-5.6c0.1-0.8,0.2-1.2,0.2-1.9L53,262c-0.1,0.2-0.1,0.2-0.1,0.5
				c-0.1,0.5-0.3,1.6-0.5,2.2h2.4v-2.4c0-0.8,0-1.5-0.1-2.1h1.8c-0.1,0.6-0.1,1.3-0.1,2.1v2.4h3c1.1,0,1.7,0,2.2-0.1v1.7
				c-0.7-0.1-1.5-0.1-2.2-0.1h-3v4.1H59c1,0,1.6,0,2.1-0.1v1.7c-0.6-0.1-1.2-0.1-2.2-0.1h-2.6v5.1h3.4c1,0,1.7,0,2.3-0.1v1.7
				c-0.7-0.1-1.4-0.1-2.3-0.1h-8.5c-0.9,0-1.6,0-2.3,0.1v-1.7c0.6,0.1,1.3,0.1,2.3,0.1h3.6v-5.1h-2.2c-0.9,0-1.6,0-2.2,0.1v-1.7
				c0.6,0.1,1.1,0.1,2,0.1h2.3v-4.1H52z"/>
			<path class="st0" d="M68.6,271.3c-0.4,3.5-1.5,5.7-3.6,7.8c-0.4-0.6-0.6-0.9-1.2-1.3c1-0.9,1.6-1.5,2.1-2.6
				c0.9-1.7,1.3-4.1,1.4-7.6c-1.2,0-1.8,0-2.4,0.1c0.1-0.7,0.1-1.1,0.1-2v-2.4c0-0.9,0-1.3-0.1-2c0.5,0.1,1.3,0.1,2.4,0.1h4
				c1.3,0,1.9,0,2.4-0.1c-0.1,0.7-0.1,1.1-0.1,2v2.5c0,1,0,1.5,0.1,2c-0.6-0.1-1.3-0.1-2.4-0.1h-2.5c0,1.1,0,1.5-0.1,2.4h3
				c0.9,0,1.4,0,2-0.1c-0.1,0.5-0.1,0.5-0.1,1.3c0,3.9-0.3,6-0.7,6.8c-0.3,0.6-0.9,0.8-2.1,0.8c-0.5,0-1.1,0-2-0.1
				c0-0.7-0.1-1.1-0.3-1.6c1,0.2,1.6,0.2,2.3,0.2c0.6,0,0.8-0.2,0.9-0.7c0.2-1.1,0.3-2.9,0.4-5.2H68.6z M66.5,266.1h5.6v-3.5h-5.6
				V266.1z M77.7,261.4c-0.1,0.6-0.1,1.2-0.1,2.4v7.9c0,1.4,0,1.8,0.1,2.4h-1.8c0.1-0.6,0.1-1,0.1-2.4v-8c0-1.1,0-1.8-0.1-2.4H77.7z
				 M82.3,260.5c-0.1,0.7-0.1,1.5-0.1,2.7v13.5c0,1.1-0.2,1.6-0.9,1.9c-0.4,0.1-0.8,0.2-2.1,0.2c-0.4,0-0.9,0-1.8-0.1
				c-0.1-0.6-0.2-1.1-0.5-1.6c1.1,0.1,2.1,0.2,2.7,0.2c0.8,0,1-0.1,1-0.6v-13.4c0-1.1,0-1.9-0.1-2.7H82.3z"/>
			<path class="st0" d="M87.5,263.2c-0.8,0-1.7,0-2.4,0.1v-1.8c0.7,0.1,1.5,0.1,2.4,0.1H101c1.1,0,1.8,0,2.4-0.1v1.8
				c-0.7-0.1-1.5-0.1-2.4-0.1h-4.9c-0.5,0.9-0.7,1.2-1.4,2.3v11.3c0,0.9,0,1.6,0.1,2.3h-2c0.1-0.7,0.1-1.6,0.1-2.3v-7.1
				c0-0.9,0-1.3,0-2.2c-2,2.5-4,4.2-7.5,6.4c-0.3-0.5-0.5-0.9-1.1-1.5c2.8-1.6,4.6-2.9,6.5-4.8c1.5-1.5,2.2-2.5,3.2-4.4H87.5z
				 M96.8,266.4c1.1,1.4,2,2.2,3.2,3.2c1.3,1.1,2.7,1.9,4.2,2.6c-0.4,0.5-0.7,0.8-1.1,1.6c-3.1-1.7-5.2-3.5-7.4-6.2L96.8,266.4z"/>
			<path class="st0" d="M108.2,276.7c0,1.2,0,1.9,0.1,2.4h-1.8c0.1-0.6,0.1-1.2,0.1-2.4v-13.5c0-1,0-1.6-0.1-2.3
				c0.6,0.1,1.1,0.1,2.2,0.1h3.2c1,0,1.5,0,2.1-0.1c0,0.6-0.1,1.2-0.1,2v3c0,0.9,0,1.5,0.1,1.9c-0.6,0-1.3-0.1-2.1-0.1h-3.8V276.7z
				 M108.2,263.7h4.3v-1.5h-4.3V263.7z M108.2,266.5h4.3v-1.6h-4.3V266.5z M118.8,274.2c0,0.5,0,0.9,0.1,1.3c-0.4,0-0.8-0.1-1.4-0.1
				h-4.9v1.6H111c0.1-0.6,0.1-1.1,0.1-2v-4.2c0-0.5,0-0.9-0.1-1.4c0.4,0,0.9,0.1,1.5,0.1h4.8c0.6,0,1.1,0,1.6-0.1
				c0,0.4-0.1,0.8-0.1,1.3V274.2z M112.6,274h4.7v-3.2h-4.7V274z M123.5,276.9c0,1.5-0.4,1.9-2.1,1.9c-0.9,0-1.2,0-2.3-0.1
				c-0.1-0.7-0.2-1-0.4-1.6c1,0.1,2,0.2,2.6,0.2c0.6,0,0.7-0.1,0.7-0.6v-9.1h-4.1c-0.8,0-1.5,0-2.1,0.1c0-0.7,0.1-1.1,0.1-1.9v-3
				c0-0.8,0-1.4-0.1-2c0.6,0.1,1.1,0.1,2.1,0.1h3.5c1.1,0,1.6,0,2.2-0.1c-0.1,0.7-0.1,1.4-0.1,2.3V276.9z M117.3,263.7h4.7v-1.5
				h-4.7V263.7z M117.3,266.5h4.7v-1.6h-4.7V266.5z"/>
			<path class="st0" d="M142,260.3l-7.5,19.2h-1.8l7.5-19.2H142z"/>
			<path class="st0" d="M154,268.4c0-0.5,0-0.8-0.1-1.2c0.4,0,0.9,0.1,1.5,0.1h4.5v-3.2h-4.7c-1.1,1.8-2,3-3.4,4.2
				c-0.4-0.6-0.6-0.9-1.1-1.2c2.1-1.8,3.2-3.2,4.1-5.5c0.3-0.6,0.4-1.1,0.5-1.5l1.7,0.4c-0.1,0.2-0.1,0.3-0.3,0.6
				c-0.1,0.2-0.1,0.2-0.5,1c-0.2,0.4-0.2,0.4-0.3,0.6h10.1c0.9,0,1.4,0,1.9-0.1v1.6c-0.6-0.1-1-0.1-1.9-0.1h-4.6v3.2h3.6
				c0.9,0,1.4,0,1.9-0.1v1.6c-0.5-0.1-1.1-0.1-1.9-0.1h-3.7v3.9h5.1c0.9,0,1.5,0,2.2-0.1v1.7c-0.6-0.1-1.3-0.1-2.2-0.1h-5.1v3.2
				c0,0.9,0,1.5,0.1,2h-1.9c0.1-0.6,0.1-1,0.1-2V274h-7.3c-0.9,0-1.5,0-2.2,0.1v-1.7c0.6,0.1,1.2,0.1,2.2,0.1h1.4V268.4z
				 M159.9,272.6v-3.9h-4.3v3.9H159.9z"/>
			<path class="st0" d="M179.2,265.1c0.8,0,1.2,0,1.7-0.1v0.9c1.6-1.4,2.9-3.4,3.4-5.4h1.7c0.4,1,1,2,1.7,3c0.8,1.1,1.6,1.9,2.7,2.7
				c-0.4,0.5-0.6,0.8-0.8,1.5c-2.2-1.8-3.2-3.3-4.4-5.8c-0.6,1.5-0.9,2.2-1.7,3.2c-0.7,0.9-1.2,1.5-2.1,2.4c-0.2-0.5-0.4-0.7-0.7-1
				c-0.4,0-1-0.1-1.6-0.1h-5.9c-0.9,0-1.3,0-2,0.1v-1.5c0.5,0.1,0.8,0.1,1.6,0.1v-1.9c0-0.8,0-1.2-0.1-1.8h1.5
				c-0.1,0.6-0.1,0.8-0.1,1.8v1.9h1.8v-2.8c0-0.9,0-1.3-0.1-2h1.6c-0.1,0.5-0.1,0.9-0.1,1.7v0.1h1.4c0.8,0,1.1,0,1.7-0.1v1.3
				c-0.5-0.1-0.9-0.1-1.7-0.1h-1.4v1.8H179.2z M173.1,274.6c0.9-0.8,1.5-1.6,2.1-3h-0.8c-0.3,0-0.6,0-0.9,0.1v-1.2
				c0.3,0,0.5,0.1,0.9,0.1h1.2v-1.9c0-0.7,0-1.3-0.1-1.8h1.3c0,0.5-0.1,1.1-0.1,1.8v1.9h1.2c0.4,0,0.6,0,0.9-0.1v1.2
				c-0.2,0-0.6-0.1-0.9-0.1h-0.8c0.5,1.1,1.2,2,2.1,2.8V269c0-0.8,0-1.4-0.1-1.9h1.5c-0.1,0.6-0.1,1.1-0.1,2v7.7
				c0,1.2,0,1.7,0.1,2.3h-1.5v-0.8h-6.1v1h-1.5c0.1-0.6,0.1-1.2,0.1-2.3v-7.7c0-1,0-1.5-0.1-2.1h1.5c-0.1,0.6-0.1,1.2-0.1,2V274.6z
				 M173.1,277h6.2v-2.4c-0.2,0.2-0.4,0.5-0.6,0.9c-0.9-1-1.4-1.8-2-3c0.1,1.3,0.1,1.5,0.1,2.3v0.7c0,0.5,0,0.7,0.1,1.1h-1.3
				c0-0.4,0.1-0.6,0.1-1.1v-0.6c0-0.5,0-1.2,0.1-2.2c-0.6,1.4-1,2.1-2,3.1c-0.2-0.4-0.4-0.6-0.6-0.9V277z M174.4,267.2
				c0.4,0.8,0.6,1.4,0.9,2.4l-0.9,0.5c-0.3-1-0.5-1.5-1-2.4L174.4,267.2z M179,267.6c-0.4,1.1-0.6,1.6-1,2.4l-0.8-0.5
				c0.4-0.8,0.6-1.3,0.9-2.4L179,267.6z M183.2,270.7c-0.9,0-1.3,0-1.9,0.1v-1.6c0.5,0.1,0.9,0.1,2,0.1h3.9c1,0,1.6,0,2-0.1
				c-0.1,0.5-0.1,1.1-0.1,2v4.3c0,1.2-0.4,1.6-1.9,1.6c-0.2,0-0.3,0-1,0c0-0.6-0.1-1-0.3-1.5c0.5,0.1,1,0.2,1.4,0.2
				c0.4,0,0.5-0.1,0.5-0.5v-4.6H185v6.3c0,1.2,0,1.7,0.1,2.3h-1.7c0.1-0.6,0.1-1.1,0.1-2.3v-6.3H183.2z M182.7,266.2
				c0.5,0.1,0.7,0.1,1.7,0.1h1.7c1,0,1.2,0,1.7-0.1v1.4c-0.5-0.1-0.7-0.1-1.6-0.1h-1.8c-0.9,0-1.2,0-1.7,0.1V266.2z"/>
			<path class="st0" d="M194.1,261.5c0.6,0.1,1,0.1,1.8,0.1h1.5c0.8,0,1.1,0,1.8-0.1c-0.1,1.2-0.2,2.3-0.2,3.4v10.2
				c0,1,0,1.6,0.2,2.4H197c0.1-0.8,0.2-1.5,0.2-2.4v-11.8h-1.1c-0.7,0-1.2,0-1.9,0.1V261.5z"/>
			<path class="st0" d="M206.5,265.4c0-2.6,2.1-4.2,5.3-4.2c3.3,0,5.3,1.6,5.3,4.2c0,1.9-1.1,3.4-3,3.8c0.9,0.1,1.5,0.4,2.2,0.9
				c1,0.8,1.5,1.9,1.5,3.3c0,2.9-2.1,4.5-6,4.5c-3.9,0-6.1-1.6-6.1-4.5c0-1.5,0.6-2.6,1.8-3.4c0.7-0.4,1.1-0.6,1.9-0.7
				C207.7,268.8,206.5,267.4,206.5,265.4z M207.8,273.3c0,1.9,1.5,3,3.9,3c2.5,0,4-1.1,4-3c0-1.9-1.5-3.1-3.9-3.1
				C209.3,270.1,207.8,271.3,207.8,273.3z M208.4,265.6c0,1.7,1.3,2.8,3.4,2.8c2.1,0,3.3-1.1,3.3-2.8c0-1.7-1.3-2.7-3.4-2.7
				C209.8,262.9,208.4,264,208.4,265.6z"/>
			<path class="st0" d="M232.9,265.6c0,1.1,0,1.1,0,1.5h2.1c-0.2-0.4-0.3-0.5-0.6-0.8l1.1-0.5c0.4,0.4,0.6,0.8,1,1.3
				c0.7,0,1,0,1.5-0.1v1.5c-0.6-0.1-1.1-0.1-1.9-0.1h-3c0.2,2,0.4,3.4,0.9,4.8c0.9-1.4,1.5-3,1.7-4.2l1.5,0.6
				c-0.1,0.2-0.2,0.4-0.3,0.8c-0.6,1.7-1.3,2.9-2.3,4.3c0.4,0.8,0.6,1.2,1,1.7c0.4,0.6,0.9,1.1,1.1,1.1c0.3,0,0.6-1.3,0.7-3.1
				c0.4,0.5,0.8,0.7,1.3,1c-0.4,2.8-0.9,3.8-2,3.8c-1,0-2.1-1.1-3.2-3.1c-1.3,1.4-2.4,2.4-4,3.3c-0.3-0.4-0.6-0.8-1-1.2
				c1.9-1,3.2-2,4.4-3.5c-0.7-1.9-1.1-3.8-1.3-6.2h-8.8l0,1.4c0,4.5-0.6,7-2.2,9.3c-0.4-0.5-0.7-0.7-1.2-1.2c1.4-2,1.9-4.3,1.9-8.8
				c0-1,0-1.5-0.1-2.1c0.7,0.1,1.2,0.1,2,0.1h8.3c0-0.4,0-0.4-0.1-1.5h-9.2c-0.9,0-1.4,0-2,0.1v-1.6c0.6,0.1,1.1,0.1,2.1,0.1h1.6
				v-1.4c0-0.7,0-1.2-0.1-1.7h1.7c-0.1,0.5-0.1,1-0.1,1.7v1.4h3.3V262c0-0.7,0-1.2-0.1-1.7h1.7c-0.1,0.5-0.1,0.8-0.1,1.4h4.7
				c0.8,0,1.2,0,1.8-0.1v1.5c-0.5-0.1-1-0.1-1.8-0.1h-4.7v1.3h6c0.9,0,1.4,0,2-0.1v1.6c-0.6-0.1-1.2-0.1-2.1-0.1H232.9z
				 M225.7,272.6c-0.5,2.1-0.9,3.2-1.9,4.8c-0.3-0.2-0.7-0.5-1.2-0.7c1-1.3,1.5-2.5,1.9-4.5L225.7,272.6z M225.1,271.1
				c-0.7,0-1.1,0-1.6,0.1v-1.4c0.4,0.1,0.8,0.1,1.6,0.1h4.5c0.6,0,1,0,1.5-0.1v1.4c-0.4-0.1-0.7-0.1-1.5-0.1h-1.4v5.4
				c0,1.2-0.4,1.6-1.7,1.6c-0.4,0-0.5,0-1.4,0c0-0.6-0.1-1-0.3-1.5c0.5,0.1,1,0.2,1.4,0.2c0.4,0,0.6-0.1,0.6-0.4v-5.3H225.1z
				 M230.1,272.1c0.6,1.2,1,2.1,1.3,3.1l-1.2,0.5c-0.4-1.4-0.7-2-1.2-3.2L230.1,272.1z"/>
			<path class="st0" d="M240.5,269.7c0.8-0.9,1.3-1.2,2.1-1.7c1-0.6,2-0.9,3-0.9c0.9,0,1.8,0.2,2.6,0.6c0.6,0.3,0.7,0.3,1.9,1.2
				c1.7,1.2,2.8,1.6,3.9,1.6c0.6,0,1.1-0.1,1.6-0.4c0.9-0.4,1.5-0.9,2.3-2l1.2,1.1c-1,1.2-1.6,1.7-2.4,2.2c-0.8,0.5-1.8,0.7-2.8,0.7
				c-0.6,0-1.3-0.1-1.9-0.3c-0.8-0.3-1.5-0.6-2.9-1.6c-1.7-1.2-2.4-1.5-3.7-1.5c-1.4,0-2.4,0.5-3.8,2L240.5,269.7z"/>
			<path class="st0" d="M263.9,277.6c-1.4,0-1.7,0-2.4,0.1c0.2-1.6,0.3-1.9,0.6-2.7c0.5-1.4,1.4-2.6,2.7-3.7c0.7-0.6,1.2-1,3.2-2.3
				c2-1.3,2.7-2.2,2.7-3.5c0-1.5-1.3-2.5-3.2-2.5c-1.3,0-2.3,0.4-2.9,1.3c-0.4,0.5-0.5,1-0.7,2.1l-2.1-0.3c0.3-1.5,0.6-2.3,1.3-3.1
				c1-1.1,2.4-1.7,4.4-1.7c3.2,0,5.3,1.6,5.3,4.2c0,1-0.4,1.9-1,2.7c-0.7,0.8-1.2,1.2-3.5,2.8c-2.7,1.8-3.8,3-4.3,4.9h6.4
				c1.1,0,2,0,2.7-0.1v2c-0.9-0.1-1.6-0.1-2.7-0.1H263.9z"/>
			<path class="st0" d="M275.9,265.4c0-2.6,2.1-4.2,5.3-4.2c3.3,0,5.3,1.6,5.3,4.2c0,1.9-1.1,3.4-3,3.8c0.9,0.1,1.5,0.4,2.2,0.9
				c1,0.8,1.5,1.9,1.5,3.3c0,2.9-2.1,4.5-6,4.5c-3.9,0-6.1-1.6-6.1-4.5c0-1.5,0.6-2.6,1.8-3.4c0.7-0.4,1.1-0.6,1.9-0.7
				C277.1,268.8,275.9,267.4,275.9,265.4z M277.3,273.3c0,1.9,1.5,3,3.9,3c2.5,0,4-1.1,4-3c0-1.9-1.5-3.1-3.9-3.1
				C278.8,270.1,277.3,271.3,277.3,273.3z M277.9,265.6c0,1.7,1.3,2.8,3.4,2.8c2.1,0,3.3-1.1,3.3-2.8c0-1.7-1.3-2.7-3.4-2.7
				C279.2,262.9,277.9,264,277.9,265.6z"/>
			<path class="st0" d="M302.4,265.6c0,1.1,0,1.1,0,1.5h2.1c-0.2-0.4-0.3-0.5-0.6-0.8l1.1-0.5c0.4,0.4,0.6,0.8,1,1.3
				c0.7,0,1,0,1.5-0.1v1.5c-0.6-0.1-1.1-0.1-1.9-0.1h-3c0.2,2,0.4,3.4,0.9,4.8c0.9-1.4,1.5-3,1.7-4.2l1.5,0.6
				c-0.1,0.2-0.2,0.4-0.3,0.8c-0.6,1.7-1.3,2.9-2.3,4.3c0.4,0.8,0.6,1.2,1,1.7c0.4,0.6,0.9,1.1,1.1,1.1c0.3,0,0.6-1.3,0.7-3.1
				c0.4,0.5,0.8,0.7,1.3,1c-0.4,2.8-0.9,3.8-2,3.8c-1,0-2.1-1.1-3.2-3.1c-1.3,1.4-2.4,2.4-4,3.3c-0.3-0.4-0.6-0.8-1-1.2
				c1.9-1,3.2-2,4.4-3.5c-0.7-1.9-1.1-3.8-1.3-6.2h-8.8l0,1.4c0,4.5-0.6,7-2.2,9.3c-0.4-0.5-0.7-0.7-1.2-1.2c1.4-2,1.9-4.3,1.9-8.8
				c0-1,0-1.5-0.1-2.1c0.7,0.1,1.2,0.1,2,0.1h8.3c0-0.4,0-0.4-0.1-1.5h-9.2c-0.9,0-1.4,0-2,0.1v-1.6c0.6,0.1,1.1,0.1,2.1,0.1h1.6
				v-1.4c0-0.7,0-1.2-0.1-1.7h1.7c-0.1,0.5-0.1,1-0.1,1.7v1.4h3.3V262c0-0.7,0-1.2-0.1-1.7h1.7c-0.1,0.5-0.1,0.8-0.1,1.4h4.7
				c0.8,0,1.2,0,1.8-0.1v1.5c-0.5-0.1-1-0.1-1.8-0.1h-4.7v1.3h6c0.9,0,1.4,0,2-0.1v1.6c-0.6-0.1-1.2-0.1-2.1-0.1H302.4z
				 M295.2,272.6c-0.5,2.1-0.9,3.2-1.9,4.8c-0.3-0.2-0.7-0.5-1.2-0.7c1-1.3,1.5-2.5,1.9-4.5L295.2,272.6z M294.6,271.1
				c-0.7,0-1.1,0-1.6,0.1v-1.4c0.4,0.1,0.8,0.1,1.6,0.1h4.5c0.6,0,1,0,1.5-0.1v1.4c-0.4-0.1-0.7-0.1-1.5-0.1h-1.4v5.4
				c0,1.2-0.4,1.6-1.7,1.6c-0.4,0-0.5,0-1.4,0c0-0.6-0.1-1-0.3-1.5c0.5,0.1,1,0.2,1.4,0.2c0.4,0,0.6-0.1,0.6-0.4v-5.3H294.6z
				 M299.6,272.1c0.6,1.2,1,2.1,1.3,3.1l-1.2,0.5c-0.4-1.4-0.7-2-1.2-3.2L299.6,272.1z"/>
		</g>
	</g>
	<path class="st0" d="M44.8,205.6c0.1-0.6,0.1-1.1,0.1-1.9v-8.3c0-0.7,0-1.2-0.1-1.9h1.6c-0.1,0.6-0.1,1.1-0.1,1.9v1.9
		c0,0.4,0,0.7,0,1.1c0.7-1.1,1.8-1.6,3.2-1.6c2.4,0,3.9,1.6,3.9,4.4c0,2.8-1.5,4.5-4,4.5c-1.3,0-2.4-0.5-3.1-1.5c0,0,0,0.1,0,0.1
		c0,0.1,0,0.1,0,0.5v0.8H44.8z M49.2,198c-1.8,0-3,1.3-3,3.2c0,1.9,1.2,3.3,2.9,3.3c1.7,0,2.7-1.2,2.7-3.3
		C51.9,199.2,50.9,198,49.2,198z"/>
	<path class="st0" d="M55.3,198.9c-0.7-1.5-0.7-1.5-0.9-1.9h1.8c0.1,0.4,0.3,1.1,0.5,1.7l2.2,5l1.9-5c0.3-0.9,0.5-1.3,0.5-1.7H63
		c-0.1,0.2-0.3,0.8-0.8,1.9l-3.5,8.4c-0.4,1-1.2,1.5-2.4,1.5c-0.4,0-0.8,0-1.4-0.2l0.3-1.4c0.4,0.2,0.7,0.3,1,0.3
		c0.5,0,0.9-0.3,1.1-0.8l0.7-1.6L55.3,198.9z"/>
	<path class="st0" d="M74.7,203.7c0,0.8,0,1.3,0.1,1.8h-1.7c0.1-0.5,0.1-1.1,0.1-1.8v-8.8h-2.3c-0.8,0-1.4,0-1.9,0.1v-1.5
		c0.6,0.1,1,0.1,1.9,0.1H77c1,0,1.5,0,2-0.1v1.5c-0.5-0.1-1-0.1-2-0.1h-2.3V203.7z"/>
	<path class="st0" d="M91.2,199.6c0,3.8-2.1,6.2-5.5,6.2c-3.3,0-5.5-2.4-5.5-6.2c0-3.8,2.2-6.2,5.5-6.2
		C89.1,193.3,91.2,195.8,91.2,199.6z M89.7,199.6c0-1.7-0.5-3-1.3-3.9c-0.7-0.7-1.6-1-2.6-1c-2.4,0-4,1.9-4,4.9c0,3,1.6,4.9,4,4.9
		C88.1,204.5,89.7,202.6,89.7,199.6z"/>
	<path class="st0" d="M101.8,203.8c0.9,1.2,1,1.4,1.5,1.8h-2.1c-0.2-0.4-0.5-0.9-0.9-1.4l-3.5-4.6l-1.8,1.8v2.5c0,0.8,0,1.2,0.1,1.8
		h-1.7c0.1-0.6,0.1-1.1,0.1-1.8v-8.4c0-0.8,0-1.2-0.1-1.8h1.7c-0.1,0.5-0.1,1-0.1,1.8v4.1l4.5-4.6c0.6-0.6,0.9-0.9,1.1-1.4h2.2
		c-0.6,0.5-0.8,0.7-1.6,1.6l-3.4,3.4L101.8,203.8z"/>
	<path class="st0" d="M108.4,205.6c0.1-0.6,0.1-1.1,0.1-1.8v-3.2L105,195c-0.3-0.5-0.6-0.9-1-1.4h2c0.1,0.4,0.3,0.7,0.7,1.5l2.6,4.2
		l2.6-4.2c0.4-0.7,0.6-1.1,0.7-1.5h2c-0.2,0.3-0.6,0.8-1,1.4l-3.6,5.6v3.2c0,0.8,0,1.3,0.1,1.8H108.4z"/>
	<path class="st0" d="M126.8,199.6c0,3.8-2.1,6.2-5.5,6.2c-3.3,0-5.5-2.4-5.5-6.2c0-3.8,2.2-6.2,5.5-6.2
		C124.7,193.3,126.8,195.8,126.8,199.6z M125.3,199.6c0-1.7-0.5-3-1.3-3.9c-0.7-0.7-1.6-1-2.6-1c-2.4,0-4,1.9-4,4.9
		c0,3,1.6,4.9,4,4.9C123.8,204.5,125.3,202.6,125.3,199.6z"/>
	<path class="st0" d="M141.8,200.7c-0.8,0-1.2,0-1.6,0.1v-1.5c0.5,0.1,0.8,0.1,1.7,0.1h0.5c0.8,0,1.3,0,1.7-0.1
		c-0.1,0.7-0.1,1.1-0.1,1.8v1.5c0,0.8,0,1.2,0.1,1.8c-1.6,1-2.8,1.3-4.5,1.3c-1.7,0-2.9-0.5-3.9-1.4c-1.1-1.1-1.7-2.8-1.7-4.9
		c0-3.8,2.2-6.2,5.5-6.2c1.4,0,2.6,0.4,3.5,1.2c0.5,0.5,0.8,0.9,1.2,1.8l-1.5,0.4c-0.5-1.5-1.5-2.1-3.2-2.1c-2.4,0-3.9,1.9-3.9,4.9
		c0,1.6,0.4,3,1.2,3.9c0.7,0.7,1.6,1.1,2.8,1.1c1.2,0,2.1-0.3,3-0.8v-3H141.8z"/>
	<path class="st0" d="M148.3,193.6c-0.1,0.6-0.1,1.1-0.1,1.8v8.4c0,0.7,0,1.3,0.1,1.8h-1.7c0.1-0.6,0.1-1,0.1-1.8v-8.4
		c0-0.8,0-1.2-0.1-1.8H148.3z"/>
	<path class="st0" d="M158.8,205.6c-0.1-0.5-0.3-1.1-0.9-2.6c-0.9-2.1-1.5-2.7-2.7-2.7h-2.7v3.5c0,0.8,0,1.3,0.1,1.8h-1.7
		c0.1-0.6,0.1-1,0.1-1.8v-8.4c0-0.7,0-1.2-0.1-1.9c0.5,0,1,0,1.8,0h3.5c2.3,0,3.6,1.1,3.6,3.1c0,1-0.3,1.7-0.9,2.3
		c-0.4,0.4-0.8,0.6-1.7,0.8c0.6,0.2,1,0.6,1.6,1.7c0.3,0.7,0.7,1.5,1.2,2.6c0.2,0.5,0.5,1.1,0.7,1.5H158.8z M156,198.9
		c0.7,0,1.3-0.2,1.7-0.6c0.4-0.4,0.6-0.9,0.6-1.5c0-1.3-0.7-1.9-2.2-1.9h-3.6v4.1H156z"/>
	<path class="st0" d="M164.4,205.6c-0.8,0-1.2,0-1.8,0c0.1-0.6,0.1-1.1,0.1-1.9v-8.2c0-0.9,0-1.4-0.1-2h1.7c-0.1,0.6-0.1,1-0.1,2
		v8.7h4.7c0.9,0,1.3,0,1.9-0.1v1.5c-0.5-0.1-1-0.1-1.9-0.1H164.4z"/>
	<path class="st0" d="M173.6,202c0,0.7,0.2,1.1,0.5,1.5c0.5,0.7,1.4,1,2.5,1c1.8,0,2.8-0.8,2.8-2.2c0-0.7-0.3-1.3-0.9-1.6
		c-0.5-0.3-0.6-0.3-2.6-0.7c-1-0.2-1.6-0.5-2.2-0.8c-0.9-0.6-1.4-1.4-1.4-2.5c0-2,1.6-3.3,4.1-3.3c1.6,0,2.8,0.5,3.6,1.5
		c0.4,0.5,0.5,0.9,0.7,1.7l-1.6,0.2c-0.1-0.6-0.2-0.9-0.5-1.2c-0.5-0.6-1.2-0.9-2.2-0.9c-1.5,0-2.6,0.8-2.6,2c0,0.8,0.4,1.3,1.3,1.7
		c0.4,0.2,0.5,0.2,2.2,0.6c1.2,0.2,2,0.6,2.5,1c0.7,0.6,1.1,1.3,1.1,2.4c0,2.3-1.6,3.6-4.3,3.6c-1.8,0-3.1-0.5-3.8-1.5
		c-0.5-0.6-0.6-1.1-0.8-2.2L173.6,202z"/>
	<path class="st0" d="M197.1,197.1c-0.2-0.7-0.4-1-0.7-1.4c-0.6-0.7-1.5-1.1-2.6-1.1c-2.4,0-3.9,1.9-3.9,4.9s1.5,4.9,3.9,4.9
		c1.2,0,2.2-0.4,2.8-1.3c0.3-0.5,0.5-0.8,0.6-1.5l1.6,0.3c-0.3,1-0.5,1.5-0.9,2c-0.9,1.1-2.3,1.8-4.1,1.8c-1.5,0-2.8-0.5-3.7-1.4
		c-1.1-1.1-1.7-2.8-1.7-4.8c0-2,0.7-3.8,1.8-4.9c0.9-0.9,2.1-1.3,3.6-1.3c1.5,0,2.7,0.4,3.6,1.3c0.6,0.6,0.9,1.1,1.3,2.1
		L197.1,197.1z"/>
	<path class="st0" d="M211.5,199.6c0,3.8-2.1,6.2-5.5,6.2c-3.3,0-5.5-2.4-5.5-6.2c0-3.8,2.2-6.2,5.5-6.2
		C209.3,193.3,211.5,195.8,211.5,199.6z M209.9,199.6c0-1.7-0.5-3-1.3-3.9c-0.7-0.7-1.6-1-2.6-1c-2.4,0-4,1.9-4,4.9
		c0,3,1.6,4.9,4,4.9C208.4,204.5,209.9,202.6,209.9,199.6z"/>
	<path class="st0" d="M215.4,205.6c-0.8,0-1.2,0-1.8,0c0.1-0.6,0.1-1.1,0.1-1.9v-8.2c0-0.9,0-1.4-0.1-2h1.7c-0.1,0.6-0.1,1-0.1,2
		v8.7h4.7c0.9,0,1.3,0,1.9-0.1v1.5c-0.5-0.1-1-0.1-1.9-0.1H215.4z"/>
	<path class="st0" d="M225.2,205.6c-0.8,0-1.2,0-1.8,0c0.1-0.6,0.1-1.1,0.1-1.9v-8.2c0-0.9,0-1.4-0.1-2h1.7c-0.1,0.6-0.1,1-0.1,2
		v8.7h4.7c0.9,0,1.3,0,1.9-0.1v1.5c-0.5-0.1-1-0.1-1.9-0.1H225.2z"/>
	<path class="st0" d="M241.5,205.7c-0.5-0.1-0.9-0.1-1.8-0.1H235c-0.8,0-1.2,0-1.8,0c0.1-0.6,0.1-1.1,0.1-1.9v-8.3
		c0-0.7,0-1.1-0.1-1.9c0.5,0,1,0,1.8,0h4.5c0.7,0,1.3,0,1.8-0.1v1.5c-0.5-0.1-1-0.1-1.8-0.1h-4.7v3.7h4c0.7,0,1.2,0,1.8-0.1v1.5
		c-0.6-0.1-1-0.1-1.8-0.1h-4v4.3h4.9c0.8,0,1.2,0,1.8-0.1V205.7z"/>
	<path class="st0" d="M252,197.1c-0.2-0.7-0.4-1-0.7-1.4c-0.6-0.7-1.5-1.1-2.6-1.1c-2.4,0-3.9,1.9-3.9,4.9s1.5,4.9,3.9,4.9
		c1.2,0,2.2-0.4,2.8-1.3c0.3-0.5,0.5-0.8,0.6-1.5l1.6,0.3c-0.3,1-0.5,1.5-0.9,2c-0.9,1.1-2.3,1.8-4.1,1.8c-1.5,0-2.8-0.5-3.7-1.4
		c-1.1-1.1-1.7-2.8-1.7-4.8c0-2,0.7-3.8,1.8-4.9c0.9-0.9,2.1-1.3,3.6-1.3s2.7,0.4,3.6,1.3c0.6,0.6,0.9,1.1,1.3,2.1L252,197.1z"/>
	<path class="st0" d="M260.5,203.7c0,0.8,0,1.3,0.1,1.8h-1.7c0.1-0.5,0.1-1.1,0.1-1.8v-8.8h-2.3c-0.8,0-1.4,0-1.9,0.1v-1.5
		c0.6,0.1,1,0.1,1.9,0.1h6.1c1,0,1.5,0,2-0.1v1.5c-0.5-0.1-1-0.1-2-0.1h-2.3V203.7z"/>
	<path class="st0" d="M268.1,193.6c-0.1,0.6-0.1,1.1-0.1,1.8v8.4c0,0.7,0,1.3,0.1,1.8h-1.7c0.1-0.6,0.1-1,0.1-1.8v-8.4
		c0-0.8,0-1.2-0.1-1.8H268.1z"/>
	<path class="st0" d="M281.3,199.6c0,3.8-2.1,6.2-5.5,6.2c-3.3,0-5.5-2.4-5.5-6.2c0-3.8,2.2-6.2,5.5-6.2
		C279.2,193.3,281.3,195.8,281.3,199.6z M279.8,199.6c0-1.7-0.5-3-1.3-3.9c-0.7-0.7-1.6-1-2.6-1c-2.4,0-4,1.9-4,4.9
		c0,3,1.6,4.9,4,4.9C278.2,204.5,279.8,202.6,279.8,199.6z"/>
	<path class="st0" d="M285.4,193.6c0.1,0.3,0.4,0.8,0.8,1.5l4.6,7c0.3,0.4,0.7,1.1,1.1,1.8c-0.1-1.2-0.1-2.2-0.1-2.7v-5.6
		c0-0.8,0-1.3-0.1-1.9h1.7c-0.1,0.6-0.1,1.1-0.1,1.9v8.3c0,0.8,0,1.3,0.1,1.8h-1.9c-0.2-0.5-0.4-0.8-0.9-1.5l-4.7-7.1
		c-0.2-0.3-0.7-1.1-0.9-1.6c0.1,0.9,0.1,2,0.1,2.7v5.5c0,0.9,0,1.5,0.1,2h-1.7c0.1-0.5,0.1-1.1,0.1-2v-8.2c0-0.7,0-1.2-0.1-1.8
		H285.4z"/>
	<path class="st0" d="M310.1,202.9c2.1-1.1,3.3-3.1,3.3-5.5c0-2.3-1.1-4.1-3.1-5c-0.7-0.4-1.3-0.5-2.3-0.6c-0.4,3-1.1,6.1-2.1,8.3
		c-1.2,2.7-2.4,4-4,4c-2.1,0-3.6-2.2-3.6-5.2c0-2.2,0.8-4.2,2.2-5.8c1.7-1.8,4-2.8,6.8-2.8c4.7,0,7.8,2.9,7.8,7.3
		c0,3.2-1.6,5.8-4.5,7.2c-1,0.5-1.9,0.7-3.5,1.1c-0.3-0.8-0.4-1.1-0.9-1.7C308.1,203.7,309,203.4,310.1,202.9z M303.2,192.7
		c-2,1.3-3.2,3.5-3.2,6c0,1.9,0.8,3.4,1.9,3.4c0.8,0,1.6-1,2.4-2.9c0.8-1.9,1.6-4.9,1.8-7.5C305,191.9,304.1,192.1,303.2,192.7z"/>
</g>
<g>
	<defs>
		<path id="SVGID_1_" d="M351.7,561.9H198.3c-7,0-12.7-5.7-12.7-12.7V395.9c0-7,5.7-12.7,12.7-12.7h153.3c7,0,12.7,5.7,12.7,12.7
			v153.3C364.4,556.3,358.7,561.9,351.7,561.9z"/>
	</defs>
	<clipPath id="SVGID_00000106826478246972023190000004824557459161073299_">
		<use xlink:href="#SVGID_1_"  style="overflow:visible;"/>
	</clipPath>
	<g style="clip-path:url(#SVGID_00000106826478246972023190000004824557459161073299_);">
		
			<image style="overflow:visible;" width="283" height="282" xlink:href="../../design/A5_TGC_last/Links/245D4F4268EF94F12379B1BA28520B8C983F03EC.jpeg"  transform="matrix(0.7364 0 0 0.7364 170.798 368.7551)">
		</image>
	</g>
</g>
<g>
	<g>
		<path class="st0" d="M145.2,619.1c-0.7,0-1,0-1.3,0.1v-1c0.4,0,0.7,0.1,1.3,0.1h7.1c0.6,0,0.9,0,1.3-0.1v1c-0.4,0-0.7-0.1-1.3-0.1
			h-3.1v2.4h2.6c0.5,0,0.9,0,1.2-0.1v1c-0.3,0-0.6-0.1-1.2-0.1h-2.6v2.9h3.6c0.6,0,1,0,1.4-0.1v1c-0.5-0.1-0.8-0.1-1.4-0.1h-8
			c-0.6,0-1,0-1.4,0.1v-1c0.4,0,0.8,0.1,1.4,0.1h3.4v-2.9h-2.3c-0.6,0-0.9,0-1.2,0.1v-1c0.3,0,0.6,0.1,1.2,0.1h2.4v-2.4H145.2z
			 M147.4,615.7c1.3,0.5,1.7,0.7,3,1.4l-0.6,0.8c-1.1-0.7-1.8-1.1-3-1.5L147.4,615.7z"/>
		<path class="st0" d="M157.6,625.3c0,0.7,0,1,0,1.5h-1c0-0.4,0.1-0.8,0.1-1.5v-3.4c0-0.5,0-1.1,0-1.7c-0.4,0.7-0.6,1-1,1.5
			c-0.1-0.3-0.3-0.7-0.5-0.9c0.9-1,1.6-2.1,2.1-3.5c0.2-0.6,0.3-1.1,0.4-1.5l1,0.3c-0.1,0.2-0.1,0.2-0.2,0.6
			c-0.2,0.6-0.5,1.3-0.8,2.1V625.3z M164.6,621.8c0.5,0,0.8,0,1.1-0.1v0.9c-0.4,0-0.6,0-1.1,0h-1.6v1h1.5c0.5,0,0.8,0,1.1-0.1v0.9
			c-0.4,0-0.7-0.1-1.1-0.1h-1.6v1.1h2.1c0.6,0,0.8,0,1.1-0.1v0.9c-0.4,0-0.8-0.1-1.2-0.1H160v0.6h-0.9c0.1-0.4,0.1-0.8,0.1-1.3v-3
			c0-0.3,0-0.4,0-0.9c-0.3,0.5-0.5,0.7-0.9,1.2c-0.2-0.3-0.3-0.5-0.5-0.7c1-0.9,1.7-1.9,2.3-3.3l0.9,0.3c-0.4,0.6-0.4,0.8-0.6,1h2
			c0.3-0.5,0.5-0.8,0.7-1.3l0.9,0.2c-0.3,0.6-0.4,0.8-0.6,1h1.9c0.5,0,0.8,0,1.1-0.1v0.9c-0.3,0-0.7,0-1.1,0h-2.1v1H164.6z
			 M161.8,616.8c0-0.4,0-0.7-0.1-0.9h1c0,0.3-0.1,0.5-0.1,0.9v1.1h2.2v-0.6c0-0.4,0-0.6,0-0.9h1c0,0.2,0,0.5,0,0.9v0.7
			c0,0.4,0,0.5,0,0.7c-0.4,0-0.6,0-0.9,0h-5.2c-0.5,0-0.6,0-0.8,0c0-0.3,0-0.5,0-0.8v-0.7c0-0.3,0-0.6-0.1-0.9h1c0,0.2,0,0.5,0,0.9
			v0.6h2V616.8z M162.3,621.8v-1H160v1H162.3z M160,623.6h2.3v-1H160V623.6z M160,625.4h2.3v-1.1H160V625.4z"/>
		<path class="st0" d="M170.8,619.3h-1.4V618h1.4V619.3z M169.4,624.6v-1.4h1.4v1.4H169.4z"/>
		<path class="st0" d="M180.6,619.3c-0.2-0.5-0.3-0.8-0.6-1.1c-0.5-0.5-1.2-0.8-2-0.8c-1.9,0-3.1,1.5-3.1,3.8c0,2.3,1.2,3.8,3.1,3.8
			c0.9,0,1.7-0.4,2.2-1c0.3-0.4,0.4-0.6,0.5-1.2l1.2,0.3c-0.2,0.7-0.4,1.1-0.7,1.5c-0.7,0.9-1.8,1.4-3.2,1.4c-1.2,0-2.2-0.4-2.9-1.1
			c-0.8-0.9-1.3-2.2-1.3-3.7c0-1.6,0.5-2.9,1.4-3.8c0.7-0.7,1.6-1,2.8-1c1.2,0,2.1,0.3,2.8,1c0.5,0.4,0.7,0.8,1,1.6L180.6,619.3z"/>
		<path class="st0" d="M191.7,621.2c0,2.9-1.7,4.8-4.3,4.8c-2.6,0-4.2-1.9-4.2-4.8c0-2.9,1.7-4.8,4.3-4.8
			C190,616.4,191.7,618.2,191.7,621.2z M190.5,621.2c0-1.3-0.4-2.3-1-3c-0.5-0.5-1.2-0.8-2-0.8c-1.9,0-3.1,1.5-3.1,3.8
			c0,2.3,1.2,3.8,3.1,3.8C189.3,625,190.5,623.5,190.5,621.2z"/>
		<path class="st0" d="M194.2,623.1c0,0.6,0.1,0.8,0.4,1.2c0.4,0.5,1.1,0.8,1.9,0.8c1.4,0,2.2-0.6,2.2-1.7c0-0.6-0.2-1-0.7-1.2
			c-0.4-0.2-0.5-0.2-2-0.6c-0.8-0.2-1.3-0.4-1.7-0.6c-0.7-0.4-1.1-1.1-1.1-1.9c0-1.6,1.3-2.6,3.2-2.6c1.2,0,2.2,0.4,2.8,1.1
			c0.3,0.4,0.4,0.7,0.5,1.3l-1.2,0.2c-0.1-0.5-0.2-0.7-0.4-1c-0.4-0.4-1-0.7-1.7-0.7c-1.2,0-2,0.6-2,1.5c0,0.6,0.3,1,1,1.3
			c0.3,0.1,0.4,0.1,1.7,0.4c0.9,0.2,1.5,0.4,1.9,0.8c0.6,0.4,0.8,1,0.8,1.8c0,1.7-1.2,2.8-3.3,2.8c-1.4,0-2.4-0.4-3-1.1
			c-0.4-0.4-0.5-0.8-0.6-1.7L194.2,623.1z"/>
		<path class="st0" d="M210.1,620c0-0.4,0-1.6,0.1-2.1c-0.2,0.7-0.3,1.1-0.7,2l-2,4.6c-0.3,0.6-0.4,0.9-0.5,1.3h-1
			c-0.1-0.3-0.2-0.8-0.5-1.4l-2-4.5c-0.4-0.8-0.4-1-0.8-2.1c0,0.9,0.1,1.9,0.1,2.2v4.2c0,0.7,0,1.1,0.1,1.5h-1.3
			c0.1-0.5,0.1-0.8,0.1-1.5v-6.2c0-0.7,0-1.1-0.1-1.5h1.6c0.1,0.4,0.2,0.8,0.4,1.3l2.8,6.4l2.8-6.4c0.2-0.5,0.3-0.9,0.4-1.3h1.6
			c-0.1,0.5-0.1,0.8-0.1,1.5v6.2c0,0.7,0,1.1,0.1,1.5H210c0.1-0.4,0.1-0.9,0.1-1.5V620z"/>
		<path class="st0" d="M221.4,621.2c0,2.9-1.7,4.8-4.3,4.8c-2.6,0-4.2-1.9-4.2-4.8c0-2.9,1.7-4.8,4.3-4.8
			C219.8,616.4,221.4,618.2,221.4,621.2z M220.2,621.2c0-1.3-0.4-2.3-1-3c-0.5-0.5-1.2-0.8-2-0.8c-1.9,0-3.1,1.5-3.1,3.8
			c0,2.3,1.2,3.8,3.1,3.8C219,625,220.2,623.5,220.2,621.2z"/>
		<path class="st0" d="M224.3,625.8c0,0.9-0.2,1.3-0.9,1.6l-0.4-0.5c0.6-0.2,0.7-0.4,0.7-1.2h-0.8v-1.4h1.4V625.8z"/>
		<path class="st0" d="M233.9,624.4c0,0.6,0,1,0.1,1.4h-1.3c0.1-0.4,0.1-0.8,0.1-1.4v-6.9H231c-0.6,0-1.1,0-1.5,0.1v-1.2
			c0.5,0.1,0.8,0.1,1.4,0.1h4.7c0.8,0,1.1,0,1.5-0.1v1.2c-0.4-0.1-0.8-0.1-1.5-0.1h-1.8V624.4z"/>
		<path class="st0" d="M244.2,616.6c0,0.3,0.1,0.7,0.3,1.2l1.5,5.1c0.1,0.2,0.2,0.6,0.4,1.5c0.2-0.9,0.3-1.4,0.3-1.5l1.3-5
			c0.1-0.5,0.2-0.9,0.2-1.3h1.4c-0.2,0.4-0.3,0.7-0.5,1.4l-1.9,6.7c-0.3,1-0.3,1-0.3,1.2h-1.1c0-0.2-0.2-0.8-0.3-1.2l-1.5-5
			c-0.1-0.5-0.3-0.9-0.3-1.4c-0.1,0.6-0.3,1.1-0.4,1.4l-1.5,5c-0.2,0.6-0.3,0.9-0.3,1.2h-1.1c0-0.3,0-0.3-0.3-1.2l-1.9-6.7
			c-0.2-0.7-0.3-1-0.5-1.4h1.4c0,0.4,0.1,0.8,0.2,1.3l1.3,5.1c0.1,0.2,0.2,0.9,0.3,1.5c0.1-0.4,0.3-1.3,0.3-1.4l1.6-5.2
			c0.1-0.5,0.2-0.9,0.3-1.2H244.2z"/>
		<path class="st0" d="M252.1,616.6c-0.1,0.4-0.1,0.8-0.1,1.4v6.5c0,0.6,0,1,0.1,1.4h-1.3c0.1-0.5,0.1-0.8,0.1-1.4V618
			c0-0.6,0-1-0.1-1.4H252.1z"/>
		<path class="st0" d="M255.5,616.6c0.1,0.3,0.3,0.6,0.6,1.1l3.6,5.4c0.2,0.3,0.6,0.9,0.8,1.4c0-1-0.1-1.7-0.1-2.1V618
			c0-0.6,0-1-0.1-1.5h1.3c-0.1,0.4-0.1,0.8-0.1,1.5v6.4c0,0.6,0,1,0.1,1.4h-1.5c-0.2-0.4-0.3-0.6-0.7-1.1l-3.6-5.5
			c-0.1-0.2-0.5-0.8-0.7-1.2c0,0.7,0.1,1.6,0.1,2.1v4.2c0,0.7,0,1.1,0.1,1.5H254c0.1-0.4,0.1-0.9,0.1-1.5V618c0-0.6,0-1-0.1-1.4
			H255.5z"/>
		<path class="st0" d="M267.7,625.8c0.1-0.5,0.1-0.8,0.1-1.4v-6.5c0-0.5,0-0.9-0.1-1.4c0.4,0,0.8,0,1.4,0h2.5c1.9,0,3,1,3,2.7
			c0,1.8-1.1,2.9-3.1,2.9h-2.6v2.3c0,0.6,0,1,0.1,1.4H267.7z M271.5,621.2c1.2,0,1.9-0.7,1.9-1.8c0-1.2-0.6-1.8-1.9-1.8h-2.6v3.6
			H271.5z"/>
		<path class="st0" d="M277.3,625.8c-0.6,0-0.9,0-1.4,0c0.1-0.4,0.1-0.8,0.1-1.5v-6.3c0-0.7,0-1.1-0.1-1.5h1.3
			c-0.1,0.5-0.1,0.8-0.1,1.5v6.7h3.7c0.7,0,1,0,1.5-0.1v1.2c-0.4-0.1-0.8-0.1-1.5-0.1H277.3z"/>
		<path class="st0" d="M290.2,625.8c-0.1-0.4-0.2-0.9-0.4-1.2l-0.6-1.5h-4.1l-0.6,1.5c-0.2,0.5-0.3,0.8-0.4,1.2h-1.5
			c0.2-0.4,0.4-0.7,0.6-1.4l2.7-6.7c0.2-0.6,0.3-0.9,0.4-1.1h1.5c0.1,0.2,0.1,0.4,0.4,1.1l2.7,6.7c0.3,0.7,0.5,1.1,0.6,1.4H290.2z
			 M287.4,618.3c0-0.1,0-0.1-0.3-0.7c-0.1,0.2-0.1,0.3-0.1,0.4c-0.1,0.2-0.1,0.3-0.1,0.3l-1.5,3.9h3.4L287.4,618.3z"/>
		<path class="st0" d="M294.2,616.6c0.1,0.3,0.3,0.6,0.6,1.1l3.6,5.4c0.2,0.3,0.6,0.9,0.8,1.4c0-1-0.1-1.7-0.1-2.1V618
			c0-0.6,0-1-0.1-1.5h1.3c-0.1,0.4-0.1,0.8-0.1,1.5v6.4c0,0.6,0,1,0.1,1.4h-1.5c-0.2-0.4-0.3-0.6-0.7-1.1l-3.6-5.5
			c-0.1-0.2-0.5-0.8-0.7-1.2c0,0.7,0.1,1.6,0.1,2.1v4.2c0,0.7,0,1.1,0.1,1.5h-1.3c0.1-0.4,0.1-0.9,0.1-1.5V618c0-0.6,0-1-0.1-1.4
			H294.2z"/>
		<path class="st0" d="M308.7,625.9c-0.4-0.1-0.7-0.1-1.4-0.1h-3.6c-0.6,0-0.9,0-1.4,0c0.1-0.4,0.1-0.8,0.1-1.5V618
			c0-0.6,0-0.9-0.1-1.4c0.4,0,0.8,0,1.4,0h3.5c0.6,0,1,0,1.4-0.1v1.2c-0.4-0.1-0.8-0.1-1.4-0.1h-3.6v2.9h3.1c0.6,0,0.9,0,1.4-0.1
			v1.2c-0.4-0.1-0.8-0.1-1.4-0.1h-3.1v3.4h3.8c0.6,0,0.9,0,1.4-0.1V625.9z"/>
		<path class="st0" d="M314,624.4c0,0.6,0,1,0.1,1.4h-1.3c0.1-0.4,0.1-0.8,0.1-1.4v-6.9H311c-0.6,0-1.1,0-1.5,0.1v-1.2
			c0.5,0.1,0.8,0.1,1.4,0.1h4.7c0.8,0,1.1,0,1.5-0.1v1.2c-0.4-0.1-0.8-0.1-1.5-0.1H314V624.4z"/>
		<path class="st0" d="M331.4,616.9c0-0.5,0-0.8-0.1-1.1h1.1c0,0.3-0.1,0.6-0.1,1.1v1.9h0.1c0.4,0,0.6,0,0.9-0.1v0.9
			c-0.3,0-0.5,0-0.9,0h-0.2v5.8c0,0.6,0,0.9,0.1,1.4h-1.1c0.1-0.4,0.1-0.8,0.1-1.4v-5.7h-0.3c-0.4,0-0.7,0-1,0v-0.9
			c0.3,0,0.5,0.1,1,0.1h0.3V616.9z M335.8,621.5c0.5,0,0.7,0,1,0c0,0.2,0,0.3,0,0.7c0,0.6-0.1,1.9-0.2,2.5c-0.2,1.4-0.4,1.8-1.3,1.8
			c-0.2,0-0.6,0-0.8,0c0-0.4-0.1-0.5-0.2-0.9c0.3,0.1,0.6,0.1,0.9,0.1c0.3,0,0.4-0.1,0.5-0.5c0.1-0.8,0.2-1.8,0.2-2.8h-1
			c-0.3,2-0.7,3.2-1.7,4.3c-0.3-0.4-0.3-0.5-0.6-0.7c0.9-0.9,1.3-1.9,1.6-3.6h-0.5c-0.3,0-0.4,0-0.7,0v-0.9c0.2,0,0.4,0,0.7,0h0.5
			c0-0.3,0-0.3,0-0.6c0-0.2,0-0.3,0-0.5h0.9c0,0.2,0,0.4-0.1,0.7c0,0.2,0,0.3,0,0.4H335.8z M339.4,616.9c0.4,0,0.7,0,1,0
			c0,0.2,0,0.2,0,0.5c-0.2,2.4-0.4,2.7-1.8,2.7c-0.3,0-0.5,0-1.2,0c0-0.4-0.1-0.6-0.2-0.9c0.4,0.1,1,0.1,1.5,0.1
			c0.3,0,0.5-0.1,0.5-0.3c0.1-0.3,0.1-0.6,0.2-1.2h-2.5c-0.3,0.7-0.6,1.2-1.2,1.6c-0.5,0.4-1,0.7-1.7,1c-0.1-0.3-0.3-0.5-0.6-0.8
			c1.4-0.5,2.2-1.1,2.5-1.9h-1.1c-0.5,0-0.9,0-1.2,0.1v-0.9c0.3,0,0.7,0.1,1.2,0.1h1.3c0.1-0.4,0.1-0.7,0.1-0.9c0-0.1,0-0.1,0-0.2
			l1,0.1c0,0.1-0.1,0.2-0.1,0.6c0,0.1,0,0.3-0.1,0.5H339.4z M340,621.5c0.5,0,0.7,0,1,0c0,0.4,0,0.4,0,0.7c0,1.6-0.2,2.9-0.3,3.5
			c-0.2,0.6-0.5,0.8-1.5,0.8c-0.2,0-0.3,0-0.6,0c0-0.4,0-0.5-0.2-0.9c0.4,0.1,0.7,0.1,1,0.1c0.4,0,0.5-0.1,0.5-0.6
			c0.1-0.6,0.2-1.8,0.2-2.8h-1.2c-0.1,1.1-0.4,1.9-0.7,2.8c-0.3,0.6-0.5,1-1,1.6c-0.2-0.3-0.4-0.5-0.7-0.7c0.9-0.8,1.4-1.9,1.6-3.6
			h-0.2c-0.4,0-0.5,0-0.7,0v-0.9c0.2,0,0.4,0,0.8,0h0.3c0-0.4,0-0.5,0-0.6c0-0.2,0-0.4,0-0.5h0.9c0,0.2,0,0.3-0.1,0.7
			c0,0.2,0,0.2,0,0.4H340z"/>
		<path class="st0" d="M351,618.3c0.7,0,1.1,0,1.5-0.1c0,0.4,0,0.4-0.1,1.6c0,1.8-0.2,4.1-0.4,4.9c-0.2,1.2-0.6,1.6-1.7,1.6
			c-0.6,0-1.2,0-2.1-0.2c0-0.4-0.1-0.7-0.2-1.1c0.9,0.2,1.6,0.3,2.2,0.3c0.6,0,0.8-0.3,1-1.6c0.1-1.2,0.2-2.8,0.3-4.6h-3.6
			c-0.4,3.7-1.6,5.6-4.6,7.3c-0.3-0.4-0.5-0.6-0.7-0.9c1-0.5,1.5-0.8,2.1-1.3c1.4-1.2,2-2.6,2.2-5.2h-2.3c-0.7,0-1.1,0-1.5,0.1v-1
			c0.4,0,0.8,0.1,1.5,0.1h2.3c0-0.4,0-0.8,0-1.4c0-0.6,0-0.9-0.1-1.1h1.2c0,0.3-0.1,0.5-0.1,1c0,0.5,0,0.9,0,1.5H351z"/>
		<path class="st0" d="M357.7,619.3h-1.4V618h1.4V619.3z M356.3,624.6v-1.4h1.4v1.4H356.3z"/>
		<path class="st0" d="M362.2,623.2c3,0.5,5.1,1,7.8,2l-0.4,1.1c-1.2-0.5-2.2-0.9-4.1-1.3c-1.5-0.4-2.5-0.6-3.7-0.7L362.2,623.2z
			 M363.2,619.8c2,0.3,3.8,0.7,6,1.4l-0.4,1c-1.7-0.7-3.9-1.2-6.1-1.5L363.2,619.8z M363.4,616.5c2.1,0.3,3.8,0.6,6.2,1.3l-0.4,1
			c-1.7-0.6-4.2-1.2-6.2-1.4L363.4,616.5z"/>
		<path class="st0" d="M378.4,616.3c-0.1,0.1-0.1,0.1-0.3,0.5c-0.3,0.6-0.4,0.8-0.5,1c0.1,0,0.1,0,0.3,0c0.1,0,0.1,0,0.1,0
			c1.7,0,2.7,0,3.1,0c0.4,0,0.5,0,0.7-0.1l0.6,0.6c-0.1,0.2-0.1,0.2-0.3,0.6c-0.5,1.8-1.4,3.4-2.4,4.6c-1.1,1.3-2.4,2.2-4.2,3
			c-0.2-0.4-0.4-0.6-0.7-0.9c1.8-0.7,3.1-1.6,4.2-3c0.9-1.1,1.6-2.4,2.1-3.9l-3.9,0.1c-0.8,1.2-1.7,2.2-2.9,3.1
			c-0.3-0.4-0.4-0.5-0.8-0.7c1.3-0.9,2.2-1.9,3-3.4c0.4-0.8,0.7-1.3,0.7-1.7L378.4,616.3z"/>
		<path class="st0" d="M394.3,617.2c-0.1,0-0.1,0-0.4,0.1c-1,0.3-1.6,0.5-2.6,0.7c0,1.7,0,1.9,0,2.3h2.7c0.8,0,1,0,1.4-0.1v1.1
			c-0.4,0-0.7-0.1-1.4-0.1h-2.8c-0.1,1.1-0.3,1.9-0.8,2.6c-0.4,0.7-1.1,1.4-1.9,1.9c-0.3,0.2-0.6,0.3-1.1,0.6
			c-0.3-0.4-0.4-0.6-0.8-0.9c0.8-0.3,1.2-0.5,1.8-1c1.1-0.9,1.6-1.8,1.7-3.3h-3.1c-0.8,0-1,0-1.4,0.1v-1.1c0.4,0.1,0.6,0.1,1.5,0.1
			h3.2c0-0.5,0-1.2,0-2.1c-0.7,0.1-1.8,0.2-3.5,0.3c-0.1-0.4-0.1-0.5-0.3-1c0.4,0,0.5,0,0.7,0c1.5,0,3.6-0.3,5.1-0.7
			c0.7-0.2,1-0.3,1.4-0.6L394.3,617.2z"/>
		<path class="st0" d="M400.3,619.2c-0.1-0.6-0.1-0.7-0.2-0.9l1-0.2c0,0.3,0,0.4,0.1,1l0.2,0.9l3.8-0.6c0.4-0.1,0.5-0.1,0.7-0.2
			l0.6,0.5c-0.1,0.2-0.1,0.2-0.3,0.6c-0.5,1.3-1.2,2.1-2.3,2.9c-0.3-0.3-0.4-0.4-0.8-0.6c1-0.6,1.6-1.2,2.1-2.2c0,0,0,0,0.1-0.1
			c-0.1,0-0.2,0-0.3,0.1l-3.4,0.6l0.8,4.3c0.1,0.8,0.1,0.8,0.3,1.1l-1.1,0.2c0-0.4,0-0.6-0.1-1.1l-0.8-4.4l-1.1,0.2
			c-0.5,0.1-0.8,0.1-1.1,0.3l-0.2-1c0.4,0,0.7,0,1.2-0.1l1.1-0.2L400.3,619.2z"/>
	</g>
</g>
</svg>
