<?xml version="1.0" encoding="utf-8"?>
<!-- Generator: Adobe Illustrator 25.4.1, SVG Export Plug-In . SVG Version: 6.00 Build 0)  -->
<svg version="1.1" id="レイヤー_1" xmlns="http://www.w3.org/2000/svg" xmlns:xlink="http://www.w3.org/1999/xlink" x="0px"
	 y="0px" viewBox="0 0 160 23" style="enable-background:new 0 0 160 23;" xml:space="preserve">
<style type="text/css">
	.st0{fill:#EDBCB9;}
</style>
<g>
	<path class="st0" d="M1.9,19.6V2.7c0-0.3,0-0.5-0.1-0.8c0-0.2-0.1-0.5-0.2-0.7C1.6,1.1,1.4,0.9,1.2,0.8S0.8,0.6,0.5,0.6V0.3h3.1
		l7.8,20.3l7.8-20.3h3v0.3c-0.4,0-0.6,0.1-0.8,0.2C21.1,1,21,1.2,20.9,1.5c-0.1,0.3-0.1,0.5-0.2,0.9c0,0.3,0,0.7,0,1v0v16.3
		c0,0.3,0,0.7,0,1c0,0.3,0.1,0.6,0.2,0.9s0.2,0.5,0.4,0.6c0.2,0.2,0.5,0.2,0.8,0.2v0.3h-4.5v-0.3c0.4,0,0.6-0.1,0.8-0.2
		c0.2-0.2,0.3-0.4,0.4-0.6s0.1-0.5,0.2-0.9c0-0.3,0-0.7,0-1V1.1l-8.3,21.6h-0.3L2.2,1v18.6c0,0.3,0,0.7,0,1c0,0.3,0.1,0.6,0.2,0.9
		s0.2,0.5,0.4,0.6c0.2,0.2,0.5,0.2,0.8,0.2v0.3H0.5v-0.3c0.4,0,0.6-0.1,0.8-0.2c0.2-0.2,0.3-0.4,0.4-0.6c0.1-0.3,0.1-0.5,0.2-0.9
		C1.9,20.3,1.9,20,1.9,19.6z"/>
	<path class="st0" d="M31.3,19.6V2.7c0-0.3,0-0.5-0.1-0.8c0-0.2-0.1-0.5-0.2-0.7c-0.1-0.2-0.2-0.3-0.4-0.5s-0.4-0.2-0.7-0.2V0.3
		h12.6v3.1l-0.3,0c0-0.3,0-0.7,0-1c0-0.3-0.1-0.6-0.3-0.9c-0.2-0.3-0.5-0.5-0.9-0.6c-0.4-0.2-1-0.2-1.7-0.2h-6.3v9.5h3.8
		c0.3,0,0.7,0,1,0s0.6-0.1,0.9-0.2s0.5-0.2,0.6-0.4s0.2-0.5,0.2-0.8h0.3v3.2h-0.3c0-0.4-0.1-0.6-0.2-0.8s-0.4-0.3-0.6-0.4
		c-0.3-0.1-0.5-0.1-0.9-0.2c-0.3,0-0.7,0-1,0h-3.8v11.9h6.3c0.7,0,1.3-0.1,1.7-0.2s0.7-0.4,0.9-0.6c0.2-0.3,0.3-0.5,0.3-0.9
		c0-0.3,0-0.7,0-1l0.3,0v3.1H29.8v-0.3c0.4,0,0.6-0.1,0.8-0.2c0.2-0.2,0.3-0.4,0.4-0.6c0.1-0.3,0.1-0.5,0.2-0.9
		C31.3,20.3,31.3,20,31.3,19.6z"/>
	<path class="st0" d="M50.1,20.2c0-0.1,0.1-0.4,0.2-0.8c0.1-0.4,0.2-0.8,0.3-1.2c0.1-0.5,0.3-1,0.4-1.5c0,0.8,0.2,1.5,0.5,2.2
		c0.4,0.7,0.8,1.3,1.5,1.8c0.6,0.5,1.3,1,2.1,1.3s1.6,0.5,2.5,0.5c0.7,0,1.4-0.1,2.1-0.4c0.7-0.3,1.3-0.7,1.8-1.2
		c0.5-0.5,0.9-1,1.2-1.6c0.3-0.6,0.5-1.2,0.5-1.8c0-0.8-0.2-1.4-0.5-2c-0.4-0.6-0.8-1.1-1.4-1.6c-0.6-0.5-1.2-0.9-2-1.3
		c-0.8-0.4-1.5-0.8-2.4-1.2c-0.7-0.4-1.4-0.7-2.1-1.2c-0.7-0.4-1.3-0.9-1.8-1.4c-0.5-0.5-1-1.1-1.3-1.8c-0.3-0.7-0.5-1.4-0.5-2.3
		l0.3-0.1l-0.3,0.1c0-0.8,0.2-1.5,0.6-2.1c0.4-0.6,0.9-1.1,1.6-1.4c0.6-0.4,1.3-0.6,2.1-0.8c0.8-0.2,1.5-0.3,2.1-0.3
		c0.6,0,1.1,0,1.6,0.1s0.8,0.1,1.2,0.2s0.8,0.1,1.2,0.2c0.4,0.1,0.9,0.1,1.5,0.1c0,0.1-0.1,0.4-0.2,0.7c-0.1,0.3-0.2,0.6-0.2,1
		c-0.1,0.4-0.2,0.8-0.3,1.2c-0.3-0.7-0.6-1.3-1.1-1.7S60.4,1.1,60,0.9s-0.9-0.3-1.3-0.4c-0.4,0-0.7-0.1-0.8-0.1
		C56.3,0.5,55,0.9,54,1.6c-1,0.7-1.5,1.6-1.5,2.8c0,0.7,0.2,1.4,0.5,2c0.3,0.6,0.8,1.1,1.3,1.6c0.6,0.5,1.2,0.9,1.9,1.3
		s1.5,0.8,2.2,1.2c0.7,0.4,1.5,0.8,2.2,1.2c0.7,0.4,1.4,0.9,1.9,1.4c0.6,0.5,1,1.1,1.3,1.8c0.3,0.7,0.5,1.5,0.5,2.4
		c0,0.8-0.2,1.6-0.6,2.3c-0.4,0.7-1,1.3-1.6,1.8c-0.7,0.5-1.4,0.9-2.2,1.2c-0.8,0.3-1.6,0.4-2.4,0.4c-1,0-1.9-0.1-2.7-0.3
		s-1.6-0.4-2.3-0.7c-0.7-0.3-1.2-0.5-1.7-0.8C50.6,20.7,50.3,20.4,50.1,20.2z"/>
	<path class="st0" d="M72.2,20.2c0-0.1,0.1-0.4,0.2-0.8s0.2-0.8,0.3-1.2c0.1-0.5,0.3-1,0.4-1.5c0,0.8,0.2,1.5,0.5,2.2
		c0.4,0.7,0.8,1.3,1.5,1.8s1.3,1,2.1,1.3c0.8,0.3,1.6,0.5,2.5,0.5c0.7,0,1.4-0.1,2.1-0.4c0.7-0.3,1.3-0.7,1.8-1.2
		c0.5-0.5,0.9-1,1.2-1.6c0.3-0.6,0.5-1.2,0.5-1.8c0-0.8-0.2-1.4-0.5-2c-0.4-0.6-0.8-1.1-1.4-1.6s-1.2-0.9-2-1.3
		c-0.8-0.4-1.5-0.8-2.4-1.2c-0.7-0.4-1.4-0.7-2.1-1.2c-0.7-0.4-1.3-0.9-1.8-1.4c-0.5-0.5-1-1.1-1.3-1.8c-0.3-0.7-0.5-1.4-0.5-2.3
		l0.3-0.1l-0.3,0.1c0-0.8,0.2-1.5,0.6-2.1c0.4-0.6,0.9-1.1,1.6-1.4c0.6-0.4,1.3-0.6,2.1-0.8c0.8-0.2,1.5-0.3,2.1-0.3
		c0.6,0,1.1,0,1.6,0.1c0.4,0.1,0.8,0.1,1.2,0.2s0.8,0.1,1.2,0.2c0.4,0.1,0.9,0.1,1.5,0.1c0,0.1-0.1,0.4-0.2,0.7
		c-0.1,0.3-0.2,0.6-0.2,1c-0.1,0.4-0.2,0.8-0.3,1.2c-0.3-0.7-0.6-1.3-1.1-1.7c-0.4-0.4-0.9-0.7-1.4-0.9c-0.5-0.2-0.9-0.3-1.3-0.4
		c-0.4,0-0.7-0.1-0.8-0.1c-1.6,0.1-2.9,0.4-3.9,1.1s-1.5,1.6-1.5,2.8c0,0.7,0.2,1.4,0.5,2C75.5,7,76,7.5,76.5,7.9
		c0.6,0.5,1.2,0.9,1.9,1.3c0.7,0.4,1.5,0.8,2.2,1.2c0.7,0.4,1.5,0.8,2.2,1.2c0.7,0.4,1.4,0.9,1.9,1.4c0.6,0.5,1,1.1,1.3,1.8
		c0.3,0.7,0.5,1.5,0.5,2.4c0,0.8-0.2,1.6-0.6,2.3c-0.4,0.7-1,1.3-1.6,1.8c-0.7,0.5-1.4,0.9-2.2,1.2c-0.8,0.3-1.6,0.4-2.4,0.4
		c-1,0-1.9-0.1-2.7-0.3s-1.6-0.4-2.3-0.7c-0.7-0.3-1.2-0.5-1.7-0.8C72.7,20.7,72.4,20.4,72.2,20.2z"/>
	<path class="st0" d="M94.4,22.4c0.4,0,0.7-0.1,0.9-0.3c0.2-0.2,0.3-0.4,0.4-0.7l6.8-19.7c0.1-0.5,0.1-0.8,0-0.9
		c-0.1-0.1-0.5-0.2-1-0.2V0.3h2.5l7.3,20.8c0.2,0.4,0.4,0.7,0.7,0.9c0.3,0.2,0.7,0.4,1.1,0.4v0.3h-4.4v-0.3c0.4,0,0.6-0.1,0.8-0.2
		c0.1-0.1,0.2-0.3,0.2-0.6c0-0.2,0-0.5-0.1-0.8c-0.1-0.3-0.2-0.6-0.3-1l-1.6-4.5h-9.4l-2.1,6c-0.2,0.5-0.2,0.8,0,1
		c0.1,0.1,0.4,0.2,0.8,0.2v0.3h-2.4V22.4z M98.2,14.9h9.2l-4.6-13.3L98.2,14.9z"/>
	<path class="st0" d="M139.3,12.4v0.3c-0.7,0-1.1,0.2-1.3,0.5c-0.2,0.3-0.3,0.7-0.3,1.2v5.1v1.2c-0.9,0.6-1.9,1.1-2.9,1.4
		c-1,0.3-2.1,0.5-3.2,0.5c-1.3,0-2.5-0.2-3.7-0.7c-1.2-0.4-2.3-1-3.3-1.8c-1-0.8-1.8-1.7-2.5-2.8c-0.7-1.1-1.2-2.3-1.5-3.6
		c-0.3-1.5-0.3-3,0-4.4c0.3-1.5,0.9-2.8,1.6-4c0.8-1.2,1.8-2.2,3-3.1c1.2-0.9,2.6-1.5,4.1-1.8c0.7-0.1,1.5-0.2,2.4-0.2
		c1.2,0,2.3,0.1,3.3,0.4c1,0.3,1.9,0.7,2.6,1.1v2.4c-0.3-0.6-0.6-1.2-1.1-1.6c-0.5-0.4-1-0.8-1.6-1.1c-0.6-0.3-1.2-0.5-1.9-0.7
		c-0.7-0.1-1.3-0.2-2-0.2c-0.3,0-0.6,0-0.8,0c-0.3,0-0.5,0.1-0.8,0.1c-1.3,0.3-2.5,0.8-3.5,1.7c-1,0.9-1.8,1.9-2.5,3.1
		c-0.6,1.2-1.1,2.5-1.3,3.8c-0.2,1.4-0.2,2.7,0,4c0.3,1.2,0.7,2.3,1.3,3.4c0.6,1.1,1.4,2,2.3,2.8c0.9,0.8,1.9,1.5,3,2
		c1.1,0.5,2.2,0.7,3.4,0.7c0.7,0,1.3-0.1,2-0.3c0.7-0.2,1.3-0.4,1.8-0.8v-5.8c0-0.3,0-0.7,0-1c0-0.3-0.1-0.6-0.3-0.9
		c-0.2-0.3-0.5-0.5-0.9-0.6s-1-0.2-1.7-0.2v-0.3H139.3z"/>
	<path class="st0" d="M148.4,19.6V2.7c0-0.3,0-0.5-0.1-0.8c0-0.2-0.1-0.5-0.2-0.7c-0.1-0.2-0.2-0.3-0.4-0.5
		c-0.2-0.1-0.4-0.2-0.7-0.2V0.3h12.6v3.1l-0.3,0c0-0.3,0-0.7,0-1c0-0.3-0.1-0.6-0.3-0.9c-0.2-0.3-0.5-0.5-0.9-0.6
		c-0.4-0.2-1-0.2-1.7-0.2H150v9.5h3.8c0.3,0,0.7,0,1,0c0.3,0,0.6-0.1,0.9-0.2c0.3-0.1,0.5-0.2,0.6-0.4c0.2-0.2,0.2-0.5,0.2-0.8h0.3
		v3.2h-0.3c0-0.4-0.1-0.6-0.2-0.8c-0.2-0.2-0.4-0.3-0.6-0.4c-0.3-0.1-0.5-0.1-0.9-0.2c-0.3,0-0.7,0-1,0H150v11.9h6.3
		c0.7,0,1.3-0.1,1.7-0.2s0.7-0.4,0.9-0.6c0.2-0.3,0.3-0.5,0.3-0.9c0-0.3,0-0.7,0-1l0.3,0v3.1h-12.6v-0.3c0.4,0,0.6-0.1,0.8-0.2
		c0.2-0.2,0.3-0.4,0.4-0.6s0.1-0.5,0.2-0.9C148.4,20.3,148.4,20,148.4,19.6z"/>
</g>
</svg>
