<?xml version="1.0" encoding="utf-8"?>
<!-- Generator: Adobe Illustrator 25.4.1, SVG Export Plug-In . SVG Version: 6.00 Build 0)  -->
<svg version="1.1" id="レイヤー_1" xmlns="http://www.w3.org/2000/svg" xmlns:xlink="http://www.w3.org/1999/xlink" x="0px"
	 y="0px" viewBox="0 0 128 23" style="enable-background:new 0 0 128 23;" xml:space="preserve">
<style type="text/css">
	.st0{fill:#888888;stroke:#888888;stroke-width:0.5;stroke-linecap:round;stroke-linejoin:round;stroke-miterlimit:10;}
</style>
<g>
	<path class="st0" d="M9.1,0.7c0.7-0.1,1.5-0.2,2.4-0.2c1.2,0,2.2,0.1,3.3,0.4s1.9,0.7,2.5,1.1v2.4c-0.3-0.6-0.6-1.1-1.1-1.6
		c-0.5-0.4-1-0.8-1.6-1.1s-1.2-0.5-1.9-0.6c-0.7-0.1-1.3-0.2-2-0.2c-0.3,0-0.6,0-0.8,0S9.4,1,9.1,1C7.9,1.3,6.7,1.9,5.7,2.7
		c-1,0.8-1.8,1.9-2.4,3S2.2,8.2,2,9.5c-0.2,1.4-0.2,2.7,0,3.9c0.3,1.2,0.7,2.3,1.3,3.3c0.6,1,1.4,2,2.3,2.8c0.9,0.8,1.9,1.4,3,1.9
		c1.1,0.5,2.2,0.7,3.3,0.7c0.5,0,1-0.1,1.5-0.2c0.5-0.1,1-0.3,1.5-0.5c0.5-0.2,0.9-0.5,1.3-0.8c0.4-0.3,0.7-0.7,0.9-1.2v1.2
		c-0.9,0.6-1.8,1.1-2.8,1.4c-1,0.3-2,0.5-3.1,0.5c-1.3,0-2.5-0.2-3.7-0.6c-1.2-0.4-2.3-1-3.2-1.8c-1-0.8-1.8-1.7-2.5-2.8
		c-0.7-1.1-1.2-2.3-1.4-3.5c-0.3-1.5-0.3-2.9,0-4.4C0.8,8,1.4,6.7,2.1,5.5s1.8-2.2,3-3C6.3,1.6,7.6,1,9.1,0.7z"/>
	<path class="st0" d="M27.8,0.8c0.8-0.2,1.6-0.3,2.3-0.3c1.3,0,2.5,0.2,3.7,0.6c1.2,0.4,2.2,1,3.2,1.8c1,0.8,1.8,1.7,2.5,2.8
		c0.7,1.1,1.2,2.3,1.4,3.6c0.3,1.5,0.3,2.9,0,4.4s-0.8,2.7-1.6,3.9s-1.8,2.2-3,3c-1.2,0.8-2.5,1.4-4,1.7c-0.7,0.1-1.4,0.2-2.2,0.2
		c-1.3,0-2.5-0.2-3.7-0.6c-1.2-0.4-2.3-1-3.2-1.8c-1-0.8-1.8-1.7-2.5-2.8c-0.7-1.1-1.2-2.3-1.4-3.5c-0.3-1.5-0.3-2.9,0-4.4
		c0.3-1.4,0.8-2.7,1.6-3.9s1.8-2.2,3-3C25,1.6,26.4,1.1,27.8,0.8z M20.8,13.4c0.3,1.2,0.7,2.3,1.3,3.3c0.6,1,1.4,2,2.3,2.8
		c0.9,0.8,1.9,1.4,3,1.9c1.1,0.5,2.2,0.7,3.3,0.7c0.3,0,0.5,0,0.8,0c0.3,0,0.5-0.1,0.8-0.1c1.3-0.3,2.4-0.8,3.4-1.7
		c1-0.8,1.8-1.9,2.5-3c0.6-1.2,1.1-2.4,1.3-3.8c0.2-1.3,0.2-2.7-0.1-3.9c-0.3-1.2-0.7-2.3-1.3-3.3c-0.6-1-1.4-2-2.3-2.8
		c-0.9-0.8-1.9-1.4-3-1.9c-1.1-0.5-2.2-0.7-3.3-0.7c-0.3,0-0.5,0-0.8,0C28.4,1,28.1,1,27.9,1c-1.3,0.3-2.4,0.8-3.4,1.7
		c-1,0.8-1.8,1.9-2.4,3c-0.6,1.2-1.1,2.4-1.3,3.8C20.5,10.9,20.6,12.2,20.8,13.4z"/>
	<path class="st0" d="M42.9,22.2c0.4,0,0.6-0.1,0.8-0.2c0.2-0.2,0.3-0.4,0.4-0.6c0.1-0.3,0.1-0.5,0.2-0.9c0-0.3,0-0.7,0-1V2.9
		c0-0.3,0-0.5-0.1-0.8c0-0.2-0.1-0.5-0.2-0.6c-0.1-0.2-0.2-0.3-0.4-0.5s-0.4-0.2-0.7-0.2V0.5h2.7L58.2,20V2.9c0-0.3,0-0.5-0.1-0.8
		c0-0.2-0.1-0.5-0.2-0.6c-0.1-0.2-0.2-0.3-0.4-0.5c-0.2-0.1-0.4-0.2-0.7-0.2V0.5h3.1v0.3c-0.5,0-0.9,0.2-1.1,0.5
		c-0.2,0.3-0.3,0.7-0.3,1.2v20h-0.3v0l-13.6-21v18c0,0.3,0,0.7,0,1c0,0.3,0.1,0.6,0.2,0.9c0.1,0.3,0.2,0.5,0.4,0.6
		c0.2,0.2,0.5,0.2,0.8,0.2v0.3h-3.1V22.2z"/>
	<path class="st0" d="M70.4,0.7c0.7-0.1,1.5-0.2,2.4-0.2c1.2,0,2.2,0.1,3.3,0.4s1.9,0.7,2.5,1.1v2.4c-0.3-0.6-0.6-1.1-1.1-1.6
		c-0.5-0.4-1-0.8-1.6-1.1s-1.2-0.5-1.9-0.6c-0.7-0.1-1.3-0.2-2-0.2c-0.3,0-0.6,0-0.8,0C71,1,70.8,1,70.5,1c-1.3,0.3-2.4,0.8-3.4,1.7
		c-1,0.8-1.8,1.9-2.4,3c-0.6,1.2-1.1,2.4-1.3,3.8c-0.2,1.4-0.2,2.7,0,3.9c0.3,1.2,0.7,2.3,1.3,3.3c0.6,1,1.4,2,2.3,2.8
		c0.9,0.8,1.9,1.4,3,1.9c1.1,0.5,2.2,0.7,3.3,0.7c0.5,0,1-0.1,1.5-0.2c0.5-0.1,1-0.3,1.5-0.5c0.5-0.2,0.9-0.5,1.3-0.8
		c0.4-0.3,0.7-0.7,0.9-1.2v1.2c-0.9,0.6-1.8,1.1-2.8,1.4c-1,0.3-2,0.5-3.1,0.5c-1.3,0-2.5-0.2-3.7-0.6c-1.2-0.4-2.3-1-3.2-1.8
		c-1-0.8-1.8-1.7-2.5-2.8c-0.7-1.1-1.2-2.3-1.4-3.5c-0.3-1.5-0.3-2.9,0-4.4c0.3-1.4,0.8-2.7,1.6-3.9c0.8-1.2,1.8-2.2,3-3
		C67.6,1.6,69,1,70.4,0.7z"/>
	<path class="st0" d="M81.8,19.5V2.9c0-0.3,0-0.5-0.1-0.8c0-0.2-0.1-0.5-0.2-0.6S81.3,1.1,81.1,1c-0.2-0.1-0.4-0.2-0.7-0.2V0.5h12.4
		v3l-0.3,0c0-0.3,0-0.7,0-1c0-0.3-0.1-0.6-0.3-0.9c-0.2-0.3-0.5-0.5-0.8-0.6c-0.4-0.2-0.9-0.2-1.7-0.2h-6.2v9.3h3.7c0.3,0,0.7,0,1,0
		c0.3,0,0.6-0.1,0.9-0.2c0.3-0.1,0.5-0.2,0.6-0.4c0.2-0.2,0.2-0.5,0.2-0.8h0.3v3.1h-0.3c0-0.4-0.1-0.6-0.2-0.8
		c-0.2-0.2-0.4-0.3-0.6-0.4c-0.3-0.1-0.5-0.1-0.9-0.2c-0.3,0-0.7,0-1,0h-3.7v11.7h6.2c0.7,0,1.3-0.1,1.7-0.2
		c0.4-0.2,0.7-0.4,0.8-0.6c0.2-0.3,0.3-0.5,0.3-0.9c0-0.3,0-0.7,0-1l0.3,0v3H80.4v-0.3c0.4,0,0.6-0.1,0.8-0.2
		c0.2-0.2,0.3-0.4,0.4-0.6c0.1-0.3,0.1-0.5,0.2-0.9C81.8,20.1,81.8,19.8,81.8,19.5z"/>
	<path class="st0" d="M94.5,22.5v-0.3c0.4,0,0.6-0.1,0.8-0.2c0.2-0.2,0.3-0.4,0.4-0.6s0.1-0.5,0.2-0.9c0-0.3,0-0.7,0-1V2.9
		c0-0.3,0-0.5-0.1-0.8c0-0.2-0.1-0.5-0.2-0.6c-0.1-0.2-0.2-0.3-0.4-0.5c-0.2-0.1-0.4-0.2-0.7-0.2V0.5h5.7c1,0,2.1,0.2,3.1,0.5
		c1,0.3,1.9,0.8,2.8,1.4c0.8,0.6,1.5,1.3,1.9,2.2c0.5,0.9,0.7,1.9,0.7,3s-0.2,2.1-0.7,3c-0.5,0.9-1.1,1.6-1.9,2.2
		c-0.8,0.6-1.7,1-2.8,1.4c-1,0.3-2.1,0.5-3.1,0.5h-2.7v5c0,0.3,0,0.7,0,1c0,0.3,0.1,0.6,0.2,0.9c0.1,0.3,0.2,0.5,0.4,0.6
		c0.2,0.2,0.5,0.2,0.8,0.2v0.3H94.5z M99.6,14.2c0.9,0,1.8-0.1,2.7-0.4c0.9-0.3,1.7-0.7,2.5-1.2c0.7-0.6,1.3-1.3,1.8-2.1
		c0.5-0.8,0.7-1.8,0.7-3s-0.2-2.1-0.7-3c-0.5-0.8-1.1-1.5-1.8-2.1c-0.7-0.6-1.6-1-2.5-1.2c-0.9-0.3-1.8-0.4-2.7-0.4h-2.1v13.4H99.6z
		"/>
	<path class="st0" d="M110.5,2V0.5h17.2V2c-0.5-0.3-1.1-0.6-1.9-0.7c-0.8-0.2-1.6-0.3-2.4-0.3c-0.8-0.1-1.5-0.1-2.2-0.1
		c-0.7,0-1.1,0-1.3,0v19.5c0,0.5,0.1,0.9,0.3,1.3c0.2,0.4,0.5,0.6,1.1,0.6v0.3h-4.4v-0.3c0.4,0,0.6-0.1,0.8-0.2
		c0.2-0.2,0.3-0.4,0.4-0.6c0.1-0.3,0.1-0.5,0.2-0.9c0-0.3,0-0.7,0-1V0.8c-0.2,0-0.6,0-1.3,0c-0.7,0-1.4,0-2.2,0.1
		c-0.8,0.1-1.6,0.2-2.4,0.3C111.7,1.5,111,1.7,110.5,2z"/>
</g>
</svg>
